<?xml version="1.0" encoding="utf-8"?>
<!-- Generator: Adobe Illustrator 27.6.1, SVG Export Plug-In . SVG Version: 6.00 Build 0)  -->
<svg version="1.1" id="圖層_1" xmlns="http://www.w3.org/2000/svg" xmlns:xlink="http://www.w3.org/1999/xlink" x="0px" y="0px"
	 viewBox="0 0 49 49" style="enable-background:new 0 0 49 49;" xml:space="preserve">
<style type="text/css">
	.st0{fill:url(#SVGID_1_);}
	.st1{fill:#FFFFFF;}
	.st2{fill:url(#SVGID_00000145771284381276725990000006714527240040966804_);}
	.st3{fill:url(#SVGID_00000165227702554223935150000001822826721866026431_);}
	.st4{fill:url(#SVGID_00000042001323606997989810000017994505160035757191_);}
</style>
<g>
	<g>
		<g>
			<linearGradient id="SVGID_1_" gradientUnits="userSpaceOnUse" x1="24.5" y1="49.09" x2="24.5" y2="9.009868e-02">
				<stop  offset="0" style="stop-color:#17C3EB"/>
				<stop  offset="0.1962" style="stop-color:#2BC8ED"/>
				<stop  offset="0.5029" style="stop-color:#45CFF0"/>
				<stop  offset="0.7801" style="stop-color:#55D4F1"/>
				<stop  offset="1" style="stop-color:#5AD5F2"/>
			</linearGradient>
			<path class="st0" d="M40,0.1H27.6H9c-5,0-9,4-9,9v31c0,5,4,9,9,9h31c5,0,9-4,9-9v-31C49,4.1,45,0.1,40,0.1z"/>
		</g>
	</g>
	<g>
		<path class="st1" d="M33.7,15.4l-2.1,0c-1.1,0-2,0.5-2.6,1.4l-1.4,1.7c-0.5,0.6-1.2,1-1.9,1.3c-0.3,0.1-0.7,0.2-1.1,0.1
			c-0.4,0-0.8-0.1-1.2-0.2c-0.7-0.2-1.4-0.7-1.9-1.2L20,16.9c-0.6-0.9-1.5-1.4-2.6-1.4l-2.1,0c-2.3,0-4.2,1.9-4.2,4.2l0,14.2
			c0,1.6,1.3,3,3,3l20.8,0v0h0c1.6,0,3-1.3,3-3l0-14.2C37.9,17.4,36,15.5,33.7,15.4z M26.8,24.2c0.4,0,0.7,0.5,0.7,1.1
			s-0.3,1.1-0.7,1.1c-0.4,0-0.7-0.5-0.7-1.1S26.4,24.2,26.8,24.2z M22.2,24.2c0.4,0,0.7,0.5,0.7,1.1s-0.3,1.1-0.7,1.1
			c-0.4,0-0.7-0.5-0.7-1.1S21.9,24.2,22.2,24.2z M31.6,28.4c0,0.1-0.1,0.2-0.3,0.3c0,0,0,0,0,0.1c0,0.1,0,0.2-0.1,0.3
			c0,0.2-0.1,0.3-0.1,0.5c-0.3,1.1-0.9,2-1.8,2.8c-1.1,1-2.4,1.6-3.9,1.7c-0.3,0-0.7,0.1-1,0.1c-1.8,0-3.4-0.6-4.8-1.8
			c-1.1-1-1.7-2.2-1.9-3.6c0,0,0-0.1,0-0.1l0-0.1c0,0,0,0,0-0.1c0,0,0,0-0.1,0c-0.1,0-0.2,0-0.3,0c-0.1,0-0.1-0.1-0.1-0.2
			c0-0.1,0-0.2,0.1-0.4c0.1-0.2,0.4-0.4,0.7-0.4c0.1,0,0.2,0,0.3,0.1c0.1,0.1,0.1,0.2,0,0.3c0,0.1-0.1,0.2-0.2,0.3
			c-0.1,0.1-0.1,0.1-0.1,0.3c0,0.1,0.1,0.2,0.1,0.3c0.1,0.3,0.2,0.6,0.3,0.8c0.7,1.3,1.7,2.3,3.2,2.9c0.9,0.4,1.8,0.6,2.8,0.6
			c1.7,0,3.1-0.5,4.4-1.5c0.9-0.7,1.6-1.6,1.9-2.8c0-0.1,0-0.1,0.1-0.2l0-0.1c0-0.1,0-0.1-0.1-0.2c-0.1-0.1-0.2-0.1-0.3-0.2
			c-0.1-0.1-0.1-0.3,0-0.4c0.1-0.1,0.2-0.2,0.4-0.1c0,0,0.1,0,0.1,0.1c0.1,0.1,0.3,0.2,0.4,0.3C31.6,28.2,31.6,28.3,31.6,28.4z"/>
		<path class="st1" d="M23.8,18h1.5c0.2,0,0.4-0.2,0.4-0.4v-0.9h0.9c0.2,0,0.4-0.2,0.4-0.4v-1.5c0-0.2-0.2-0.4-0.4-0.4h-0.9v-0.9
			c0-0.2-0.2-0.4-0.4-0.4h-1.5c-0.2,0-0.4,0.2-0.4,0.4v0.9h-0.9c-0.2,0-0.4,0.2-0.4,0.4v1.5c0,0.2,0.2,0.4,0.4,0.4h0.9v0.9
			C23.3,17.8,23.5,18,23.8,18z"/>
		<path class="st1" d="M18.1,14c0.1,0,0.2,0,0.3-0.1c0.1-0.1,0.2-0.2,0.3-0.2c0.1-0.1,0.3-0.2,0.4-0.2c0.6-0.5,1.2-0.8,2-1.2
			c2.4-1.2,4.4-1.2,6.8,0c0.9,0.4,1.3,0.7,2.1,1.2l0.2,0.1c0.2,0.1,0.4,0.2,0.5,0.4c0.1,0.1,0.2,0.1,0.3,0.1c0,0,0.1,0,0.1,0
			c0.1,0,0.2-0.1,0.3-0.2c0.1-0.2,0.1-0.5-0.1-0.6L31,13.1c-1-0.7-1.9-1.4-2.8-1.9c-1.1-0.8-2.5-1.2-3.8-1.2c-1.4,0-2.6,0.4-3.7,1.1
			c-0.8,0.5-1.6,1.1-2.3,1.6c-0.2,0.2-0.4,0.3-0.6,0.5c-0.2,0.1-0.3,0.4-0.1,0.7C17.8,13.9,17.9,14,18.1,14z"/>
	</g>
	
		<linearGradient id="SVGID_00000056423350463946684780000009999083438724238480_" gradientUnits="userSpaceOnUse" x1="24.442" y1="34.3125" x2="24.442" y2="27.7129">
		<stop  offset="0" style="stop-color:#17C3EB"/>
		<stop  offset="0.1962" style="stop-color:#2BC8ED"/>
		<stop  offset="0.5029" style="stop-color:#45CFF0"/>
		<stop  offset="0.7801" style="stop-color:#55D4F1"/>
		<stop  offset="1" style="stop-color:#5AD5F2"/>
	</linearGradient>
	<path style="fill:url(#SVGID_00000056423350463946684780000009999083438724238480_);" d="M31.6,28.4c0,0.1-0.1,0.2-0.3,0.3
		c0,0,0,0,0,0.1c0,0.1,0,0.2-0.1,0.3c0,0.2-0.1,0.3-0.1,0.5c-0.3,1.1-0.9,2-1.8,2.8c-1.1,1-2.4,1.6-3.9,1.7c-0.3,0-0.7,0.1-1,0.1
		c-1.8,0-3.4-0.6-4.8-1.8c-1.1-1-1.7-2.2-1.9-3.6c0,0,0-0.1,0-0.1l0-0.1c0,0,0,0,0-0.1c0,0,0,0-0.1,0c-0.1,0-0.2,0-0.3,0
		c-0.1,0-0.1-0.1-0.1-0.2c0-0.1,0-0.2,0.1-0.4c0.1-0.2,0.4-0.4,0.7-0.4c0.1,0,0.2,0,0.3,0.1c0.1,0.1,0.1,0.2,0,0.3
		c0,0.1-0.1,0.2-0.2,0.3c-0.1,0.1-0.1,0.1-0.1,0.3c0,0.1,0.1,0.2,0.1,0.3c0.1,0.3,0.2,0.6,0.3,0.8c0.7,1.3,1.7,2.3,3.2,2.9
		c0.9,0.4,1.8,0.6,2.8,0.6c1.7,0,3.1-0.5,4.4-1.5c0.9-0.7,1.6-1.6,1.9-2.8c0-0.1,0-0.1,0.1-0.2l0-0.1c0-0.1,0-0.1-0.1-0.2
		c-0.1-0.1-0.2-0.1-0.3-0.2c-0.1-0.1-0.1-0.3,0-0.4c0.1-0.1,0.2-0.2,0.4-0.1c0,0,0.1,0,0.1,0.1c0.1,0.1,0.3,0.2,0.4,0.3
		C31.6,28.2,31.6,28.3,31.6,28.4z"/>
	
		<linearGradient id="SVGID_00000116938562191877236680000013970574804344155285_" gradientUnits="userSpaceOnUse" x1="26.7566" y1="26.4601" x2="26.7566" y2="24.1901">
		<stop  offset="0" style="stop-color:#17C3EB"/>
		<stop  offset="0.1962" style="stop-color:#2BC8ED"/>
		<stop  offset="0.5029" style="stop-color:#45CFF0"/>
		<stop  offset="0.7801" style="stop-color:#55D4F1"/>
		<stop  offset="1" style="stop-color:#5AD5F2"/>
	</linearGradient>
	<path style="fill:url(#SVGID_00000116938562191877236680000013970574804344155285_);" d="M26.8,24.2c0.4,0,0.7,0.5,0.7,1.1
		s-0.3,1.1-0.7,1.1c-0.4,0-0.7-0.5-0.7-1.1S26.4,24.2,26.8,24.2z"/>
	
		<linearGradient id="SVGID_00000166657031942253548240000006224334552173266591_" gradientUnits="userSpaceOnUse" x1="22.2225" y1="26.4601" x2="22.2225" y2="24.1901">
		<stop  offset="0" style="stop-color:#17C3EB"/>
		<stop  offset="0.1962" style="stop-color:#2BC8ED"/>
		<stop  offset="0.5029" style="stop-color:#45CFF0"/>
		<stop  offset="0.7801" style="stop-color:#55D4F1"/>
		<stop  offset="1" style="stop-color:#5AD5F2"/>
	</linearGradient>
	<path style="fill:url(#SVGID_00000166657031942253548240000006224334552173266591_);" d="M22.2,24.2c0.4,0,0.7,0.5,0.7,1.1
		s-0.3,1.1-0.7,1.1c-0.4,0-0.7-0.5-0.7-1.1S21.9,24.2,22.2,24.2z"/>
</g>
</svg>
