<svg width="362" height="302" viewBox="0 0 362 302" fill="none" xmlns="http://www.w3.org/2000/svg">
<g clip-path="url(#clip0_1350_119263)">
<path d="M90.3328 232.415H350.147C351.635 232.415 353.109 232.121 354.483 231.55C355.858 230.98 357.107 230.143 358.159 229.089C359.211 228.035 360.046 226.783 360.615 225.405C361.185 224.028 361.478 222.551 361.478 221.06V70.4941C361.48 69.4879 361.346 68.4859 361.081 67.5155C360.429 65.11 359.005 62.9865 357.029 61.4727C355.053 59.9589 352.635 59.139 350.147 59.1396H248.667C246.3 63.1359 244.841 67.6062 244.394 72.2321C243.135 85.6805 250.83 98.1134 257.715 109.73C264.599 121.346 271.166 134.852 267.519 147.861C265.054 156.634 258.373 162.984 250.083 166.79C242.117 170.322 233.355 171.66 224.701 170.664C219.504 170.006 214.384 168.835 209.417 167.167C202.903 165.047 196.54 162.298 190.188 159.519C190.183 159.519 190.183 159.519 190.178 159.513C190.068 159.466 189.953 159.414 189.844 159.367C184.928 157.215 180.018 155.059 175.035 153.158C169.195 150.87 163.135 149.196 156.95 148.164C147.553 146.688 138.077 147.222 129.693 151.494C116.028 158.451 108.704 173.485 102.974 187.735C97.1862 202.141 91.9991 217.029 90.3328 232.415Z" fill="#5AD6F3"/>
<path d="M0.522461 174.815V221.06C0.522381 222.551 0.815381 224.028 1.38475 225.405C1.95411 226.783 2.78868 228.035 3.8408 229.089C4.89291 230.143 6.14197 230.98 7.51664 231.55C8.89131 232.121 10.3647 232.415 11.8526 232.415H55.0419C55.7888 225.436 55.162 218.485 52.4196 211.998C46.4437 197.854 31.9846 189.488 18.1994 182.772C12.4063 179.95 6.51401 177.228 0.522461 174.815Z" fill="#5AD6F3"/>
<path d="M45.7839 221.735C45.7839 224.747 46.9776 227.635 49.1024 229.764C51.2273 231.894 54.1091 233.09 57.1141 233.09H100.303C101.05 226.112 100.423 219.16 97.6811 212.674C96.2761 209.348 92.9943 205.665 88.7179 201.943C71.9404 187.344 45.7839 199.468 45.7839 221.735Z" fill="#5AD6F3"/>
<path d="M0 221.06V70.4941C0.00356149 67.345 1.25344 64.3259 3.47544 62.0991C5.69744 59.8723 8.71009 58.6198 11.8525 58.6162H350.148C353.29 58.6198 356.303 59.8723 358.525 62.0991C360.747 64.3259 361.996 67.345 362 70.4941V221.06C361.996 224.209 360.747 227.228 358.525 229.455C356.303 231.682 353.29 232.934 350.148 232.938H11.8525C8.71005 232.934 5.69736 231.682 3.47536 229.455C1.25336 227.228 0.00350756 224.209 0 221.06ZM11.8525 59.6632C8.98706 59.6664 6.23993 60.8085 4.21378 62.839C2.18763 64.8695 1.04793 67.6226 1.04473 70.4941V221.06C1.04788 223.931 2.18755 226.685 4.2137 228.715C6.23985 230.746 8.98702 231.888 11.8525 231.891H350.148C353.013 231.888 355.76 230.746 357.786 228.715C359.812 226.685 360.952 223.931 360.955 221.06V70.4941C360.952 67.6226 359.812 64.8695 357.786 62.839C355.76 60.8085 353.013 59.6664 350.148 59.6632H11.8525Z" fill="#3F3D56"/>
<path d="M111.948 232.043H127.311C129.939 223.177 133.731 213.779 137.194 205.215C143.839 188.794 152.327 171.468 168.171 163.45C174.935 160.026 182.311 158.689 189.844 158.762C200.249 158.861 210.947 161.66 220.742 165.37C224.748 166.884 228.718 168.549 232.673 170.25C247.57 176.665 262.306 183.653 278.327 185.542C298.6 187.93 322.436 178.84 327.973 159.261C332.199 144.271 324.588 128.709 316.606 115.321C308.625 101.934 299.703 87.6097 301.16 72.1098C301.165 72.0578 301.171 72.0005 301.181 71.9485C301.73 66.3812 305.047 62.3802 309.68 59.8151H289.506C289.24 74.2744 297.587 87.0374 305.099 99.6392C313.08 113.022 320.691 128.589 316.465 143.579C310.928 163.153 265.079 140.208 244.806 137.815C239.08 137.144 248.175 139.532 242.716 137.815C234.155 135.125 233.205 159.797 224.874 156.176C219.687 153.918 214.494 151.675 209.234 149.682C207.056 148.855 204.83 148.08 202.579 147.362C202.574 147.362 202.574 147.362 202.569 147.357C187.451 142.559 170.918 140.691 156.95 147.627C156.856 147.674 156.757 147.721 156.663 147.768C140.82 155.78 132.331 173.107 125.687 189.527C120.197 203.102 114.654 217.724 111.948 232.043Z" fill="#3F3D56"/>
<path d="M112.115 124.125H12.1909C11.3722 124.125 10.5869 124.451 10.008 125.031C9.42901 125.611 9.10376 126.398 9.10376 127.218C9.10376 128.039 9.42901 128.826 10.008 129.406C10.5869 129.986 11.3722 130.312 12.1909 130.312H112.115C112.934 130.312 113.719 129.986 114.298 129.406C114.877 128.826 115.202 128.039 115.202 127.218C115.202 126.398 114.877 125.611 114.298 125.031C113.719 124.451 112.934 124.125 112.115 124.125Z" fill="#3F3D56"/>
<path d="M43.2423 106.777H12.2605C11.4418 106.777 10.6565 107.103 10.0776 107.683C9.4986 108.263 9.17334 109.05 9.17334 109.871C9.17334 110.691 9.4986 111.478 10.0776 112.059C10.6565 112.639 11.4418 112.965 12.2605 112.965H43.2423C44.0611 112.965 44.8463 112.639 45.4253 112.059C46.0043 111.478 46.3295 110.691 46.3295 109.871C46.3295 109.05 46.0043 108.263 45.4253 107.683C44.8463 107.103 44.0611 106.777 43.2423 106.777Z" fill="#3F3D56"/>
<path d="M162.716 287.88L156.383 287.826L153.58 262.777L162.926 262.856L162.716 287.88Z" fill="#FFB6B6"/>
<path d="M142.431 297.972C142.426 298.724 142.718 299.448 143.244 299.984C143.77 300.521 144.488 300.827 145.238 300.834L157.829 300.939L160.033 296.462L160.843 300.962L165.594 301.005L164.394 284.954L162.741 284.844L155.999 284.378L153.824 284.232L153.786 288.774L143.672 295.649C143.293 295.906 142.982 296.252 142.766 296.657C142.55 297.062 142.435 297.513 142.431 297.972Z" fill="#2F2E41"/>
<path d="M226.967 287.88L220.634 287.826L217.831 262.777L227.177 262.856L226.967 287.88Z" fill="#FFB6B6"/>
<path d="M206.682 297.972C206.677 298.724 206.969 299.448 207.495 299.984C208.022 300.521 208.739 300.827 209.49 300.834L222.08 300.939L224.285 296.462L225.094 300.962L229.845 301.005L228.645 284.954L226.992 284.844L220.251 284.378L218.076 284.232L218.037 288.774L207.923 295.649C207.544 295.906 207.233 296.252 207.017 296.657C206.801 297.062 206.686 297.513 206.682 297.972Z" fill="#2F2E41"/>
<path d="M154.904 87.2764L183.405 65.2945C184.61 64.3596 185.4 62.9875 185.604 61.4742C185.808 59.961 185.41 58.428 184.497 57.206C184.024 56.5739 183.428 56.0448 182.744 55.6511C182.061 55.2574 181.305 55.0073 180.522 54.916C179.739 54.8248 178.946 54.8943 178.19 55.1203C177.435 55.3463 176.734 55.7241 176.129 56.2307L147.221 79.9741L129.049 93.6594C128.149 93.1355 127.111 92.9017 126.075 92.9898C125.038 93.0778 124.054 93.4835 123.255 94.1518C122.457 94.82 121.883 95.7183 121.612 96.7247C121.341 97.7311 121.385 98.7967 121.739 99.7769C122.094 100.757 122.74 101.604 123.592 102.203C124.443 102.802 125.458 103.124 126.498 103.125C127.538 103.126 128.553 102.806 129.406 102.208C130.258 101.611 130.906 100.765 131.262 99.7855L154.904 87.2764Z" fill="#FFB6B6"/>
<path d="M178.134 92.3296L176.877 120.448L219.547 125.623C216.19 114.324 210.684 98.6306 213.207 90.7675L178.134 92.3296Z" fill="#A0616A"/>
<path d="M202.389 40.78H189.245L183.6 50.4599L180.911 50.311C175.669 52.3343 173.579 54.4282 170.686 60.0071L160.52 68.5624L168.356 77.9852C173.768 77.0966 175.719 72.8866 174 65.1546C174 65.1546 168.074 75.5057 176.611 80.598C176.611 80.598 175.088 90.1926 176.611 90.0895C178.134 89.9864 181.641 88.0337 178.134 89.9864C174.626 91.9391 175.227 92.0233 175.342 92.656C177.236 103.113 178.803 110.965 178.803 110.965L215.891 114.629C215.891 114.629 213.754 92.1518 213.87 90.8738C213.986 89.5958 213.207 92.7202 213.986 89.5958C214.766 86.4715 215.935 87.6431 214.766 86.4715C213.597 85.2999 222.802 84.2909 219.209 78.6606L231.224 75.5197L224.508 59.5243C224.508 54.1236 215.853 49.7454 210.464 49.7454H209.773L202.389 40.78Z" fill="#E6E6E6"/>
<path d="M216.376 110.382C201.866 115.384 188.804 114.286 177.758 104.683C177.758 104.683 174.65 116.2 171.503 114.629C168.356 113.059 169.911 117.454 169.047 119.065C168.129 120.775 169.194 123.661 166.163 124.642C163.132 125.623 164.271 128.506 163.289 130.628C156.422 145.476 148.58 166.494 143.282 193.153C137.838 220.547 151.118 266.441 151.118 266.441L163.654 265.394L166.789 205.717L181.124 180.492C181.124 180.492 188.166 176.382 183.746 174.298C179.325 172.213 182.287 169.63 185.507 170.136C188.728 170.643 192.385 153.891 192.385 153.891C187.793 165.456 216.413 267.488 216.413 267.488L228.428 266.441L221.637 124.052L216.376 110.382Z" fill="#2F2E41"/>
<path d="M210.19 16.4786C211.614 20.0348 215.634 27.0282 216.179 30.8433L215.934 30.6018C215.466 31.4021 214.935 32.1632 214.345 32.8778C213.288 31.7653 212.011 30.8855 210.596 30.2947C211.369 31.8835 211.816 33.6112 211.912 35.3761C209.296 37.6597 202.613 36.2819 199.274 37.499C193.9 39.4527 188.195 40.1482 182.563 40.7258C180.563 40.9321 178.325 41.0573 176.924 39.8733C175.523 38.6894 176.357 36.4969 175.604 34.8385C170.234 23.0263 175.189 18.7645 179.399 13.4083C180.326 12.2296 180.322 10.4707 181.449 9.34605C183.013 7.78722 185.411 7.30774 187.622 6.92366C187.047 6.95398 186.475 6.83565 185.96 6.58006C185.444 6.32447 185.003 5.94022 184.679 5.46431C184.395 4.98483 184.248 4.43593 184.255 3.87815C184.262 3.32037 184.422 2.77539 184.719 2.3033C185.51 0.98978 187.152 0.225952 188.737 0.0351348C190.299 -0.071127 191.867 0.0639935 193.388 0.435755C194.373 0.565575 195.327 0.871077 196.204 1.33781C196.618 1.55917 196.955 1.90192 197.169 2.32022C197.384 2.73851 197.465 3.21244 197.404 3.67862C197.272 4.10912 197.044 4.50419 196.739 4.83436C196.433 5.16453 196.057 5.42128 195.639 5.58546C195 5.85582 194.329 6.03995 193.643 6.13299C196.796 5.7229 199.999 6.28478 202.826 7.74387C206.369 9.63776 208.76 12.9243 210.19 16.4786Z" fill="#2F2E41"/>
<path d="M191.006 36.416C198 36.416 203.67 30.7338 203.67 23.7245C203.67 16.7151 198 11.033 191.006 11.033C184.012 11.033 178.342 16.7151 178.342 23.7245C178.342 30.7338 184.012 36.416 191.006 36.416Z" fill="#FFB6B6"/>
<path d="M203.192 16.9195C202.458 19.1435 200.359 19.8602 198.42 20.3071C197.808 20.45 197.193 20.5831 196.572 20.7015C196.343 20.4145 196.099 20.1331 195.845 19.8672C194.788 18.7547 193.511 17.875 192.096 17.2841C192.708 18.5391 193.115 19.8845 193.3 21.2688C192.128 21.4393 190.949 21.5786 189.763 21.6868C188.76 21.9007 187.714 21.7203 186.84 21.1829C185.966 20.6454 185.331 19.792 185.067 18.799C183.988 20.5676 182.712 22.2332 180.967 22.9358C179.969 23.2951 178.882 23.3247 177.866 23.0201C176.85 22.7155 175.959 22.0929 175.322 21.2434C174.277 19.9656 173.694 18.249 173.276 16.5924C172.781 14.6229 172.506 12.3542 173.478 11.1046C174.257 10.0933 175.601 10.0752 176.84 10.1649C179.577 10.3753 182.284 10.8672 184.92 11.6329L185.144 12.1357C184.691 9.4084 185.673 6.78433 187.491 5.85111C188.718 5.22715 190.193 5.33178 191.627 5.45836C193.468 5.54069 195.287 5.8933 197.026 6.5049C199.022 7.27404 200.731 8.64219 201.921 10.4222C203.193 12.3583 203.825 14.9989 203.192 16.9195Z" fill="#2F2E41"/>
<path d="M185.138 5.05745C185.263 5.02048 184.939 5.06796 185.051 5.07098C184.996 5.06774 184.94 5.05996 184.886 5.04773C184.876 5.04587 184.75 5.00554 184.834 5.03516C184.646 4.9788 184.478 4.86907 184.351 4.71922C184.053 4.35055 183.82 3.9343 183.661 3.48792C183.459 2.89805 183.136 2.35749 182.711 1.90174C182.591 1.78048 182.444 1.6894 182.281 1.63589C182.119 1.58237 181.947 1.56794 181.778 1.59376C181.609 1.61958 181.449 1.68493 181.31 1.78449C181.171 1.88406 181.058 2.01503 180.979 2.16679C180.732 2.71355 180.957 3.38723 181.133 3.92424C181.315 4.48221 181.585 5.00717 181.933 5.47889C182.517 6.25029 183.312 6.83485 184.222 7.16134C185.274 7.54449 186.422 7.57737 187.495 7.25509C187.637 7.19616 187.758 7.0972 187.845 6.97025C187.932 6.8433 187.979 6.69386 187.983 6.54011C187.986 6.38637 187.945 6.23497 187.864 6.10435C187.783 5.97374 187.666 5.86956 187.527 5.80449L185.737 5.07054C185.643 5.02901 185.542 5.00647 185.439 5.00423C185.336 5.00198 185.234 5.02007 185.138 5.05745C185.042 5.09482 184.954 5.15074 184.88 5.22205C184.806 5.29336 184.746 5.37865 184.705 5.47304C184.663 5.56743 184.641 5.66907 184.638 5.77217C184.636 5.87526 184.654 5.97779 184.692 6.0739C184.729 6.17001 184.785 6.25781 184.856 6.3323C184.927 6.40679 185.012 6.46651 185.106 6.50804L186.895 7.24197L186.927 5.79138C186.704 5.85597 186.474 5.89533 186.242 5.90874C185.995 5.93358 185.745 5.92303 185.5 5.87739C185.266 5.84662 185.036 5.79037 184.814 5.70965C184.672 5.65759 184.532 5.59834 184.396 5.53212C184.346 5.50804 184.297 5.48304 184.249 5.45712C184.252 5.45899 184.044 5.3375 184.136 5.39458C183.904 5.24639 183.687 5.0769 183.487 4.88831C183.416 4.82143 183.351 4.74888 183.292 4.67139C183.191 4.54589 183.096 4.41454 183.009 4.278C182.833 3.98886 182.694 3.67883 182.594 3.35509C182.548 3.21902 182.51 3.08068 182.479 2.94062C182.47 2.86373 182.456 2.78753 182.437 2.71254C182.371 2.53386 182.45 2.81688 182.373 2.89429L182.044 3.13785C181.982 3.15634 181.916 3.16063 181.853 3.15039C181.789 3.14015 181.728 3.11565 181.675 3.0787C181.636 3.0236 181.645 3.03274 181.701 3.10612C181.766 3.19249 181.826 3.28292 181.88 3.37687C181.998 3.59805 182.105 3.82511 182.2 4.05716C182.397 4.55068 182.646 5.02172 182.942 5.46227C183.233 5.90787 183.657 6.25013 184.153 6.44027C184.649 6.6304 185.193 6.65871 185.706 6.52116C185.898 6.44432 186.053 6.29468 186.137 6.10452C186.22 5.91436 186.226 5.69894 186.152 5.50472C186.073 5.31331 185.924 5.15984 185.735 5.07646C185.546 4.99308 185.332 4.98627 185.138 5.05745Z" fill="#2F2E41"/>
<path d="M165.386 142.947C186.067 142.947 202.832 126.146 202.832 105.421C202.832 84.6958 186.067 67.8947 165.386 67.8947C144.705 67.8947 127.94 84.6958 127.94 105.421C127.94 126.146 144.705 142.947 165.386 142.947Z" fill="white"/>
<path d="M165.386 143.471C157.877 143.471 150.536 141.239 144.292 137.058C138.048 132.878 133.182 126.935 130.308 119.982C127.434 113.03 126.682 105.379 128.147 97.9981C129.612 90.6172 133.228 83.8374 138.538 78.516C143.848 73.1946 150.613 69.5707 157.979 68.1025C165.344 66.6343 172.978 67.3878 179.916 70.2676C186.853 73.1475 192.783 78.0244 196.955 84.2817C201.127 90.5389 203.354 97.8954 203.354 105.421C203.343 115.509 199.339 125.18 192.221 132.314C185.103 139.447 175.452 143.46 165.386 143.471ZM165.386 68.4183C158.083 68.4183 150.944 70.5885 144.872 74.6545C138.8 78.7204 134.068 84.4995 131.273 91.2609C128.478 98.0223 127.747 105.462 129.172 112.64C130.597 119.818 134.113 126.411 139.277 131.586C144.441 136.761 151.02 140.285 158.183 141.713C165.345 143.141 172.769 142.408 179.516 139.607C186.263 136.807 192.03 132.064 196.087 125.979C200.144 119.894 202.31 112.739 202.31 105.421C202.298 95.6106 198.405 86.2053 191.483 79.2683C184.56 72.3314 175.175 68.4294 165.386 68.4183Z" fill="#3F3D56"/>
<path d="M160.278 124.952C159.631 124.952 158.993 124.801 158.415 124.511C157.837 124.221 157.334 123.8 156.946 123.282L146.73 109.631C146.402 109.193 146.163 108.694 146.027 108.163C145.892 107.632 145.861 107.079 145.939 106.536C146.016 105.994 146.199 105.472 146.478 105C146.757 104.528 147.126 104.116 147.563 103.787C148.001 103.458 148.499 103.219 149.029 103.083C149.558 102.947 150.11 102.917 150.651 102.995C151.193 103.072 151.714 103.256 152.184 103.535C152.655 103.814 153.066 104.184 153.394 104.622L160.078 113.552L177.244 87.7485C177.547 87.2924 177.937 86.9006 178.392 86.5956C178.846 86.2905 179.356 86.0782 179.893 85.9707C180.429 85.8632 180.981 85.8626 181.518 85.969C182.055 86.0754 182.565 86.2867 183.02 86.5907C183.475 86.8948 183.866 87.2858 184.171 87.7412C184.475 88.1967 184.687 88.7078 184.794 89.2454C184.901 89.7829 184.902 90.3363 184.796 90.8741C184.69 91.4119 184.479 91.9234 184.175 92.3795L163.744 123.093C163.374 123.648 162.877 124.107 162.294 124.43C161.711 124.753 161.06 124.932 160.394 124.95C160.355 124.951 160.316 124.952 160.278 124.952Z" fill="#5AD6F3"/>
<path d="M124.139 301.377C124.139 301.459 124.155 301.54 124.186 301.616C124.217 301.691 124.263 301.76 124.321 301.818C124.379 301.876 124.447 301.922 124.523 301.953C124.598 301.984 124.679 302 124.761 302H257.071C257.236 302 257.394 301.934 257.511 301.818C257.627 301.701 257.693 301.542 257.693 301.377C257.693 301.212 257.627 301.053 257.511 300.937C257.394 300.82 257.236 300.754 257.071 300.754H124.761C124.679 300.754 124.598 300.77 124.523 300.801C124.447 300.832 124.379 300.878 124.321 300.936C124.263 300.994 124.217 301.063 124.186 301.138C124.155 301.214 124.139 301.295 124.139 301.377Z" fill="#CCCCCC"/>
<path d="M241.287 106.705L229.046 72.814C228.523 71.3797 227.459 70.209 226.082 69.5544C224.705 68.8997 223.127 68.8138 221.688 69.315C220.943 69.5743 220.259 69.9829 219.677 70.5158C219.095 71.0487 218.628 71.6948 218.303 72.4146C217.979 73.1345 217.804 73.9131 217.789 74.7029C217.775 75.4927 217.921 76.2772 218.219 77.0086L232.011 111.822L239.502 133.33C238.73 134.029 238.193 134.95 237.961 135.966C237.73 136.982 237.817 138.045 238.21 139.011C238.603 139.976 239.282 140.797 240.157 141.361C241.031 141.926 242.058 142.207 243.097 142.167C244.137 142.126 245.138 141.766 245.967 141.135C246.795 140.504 247.409 139.633 247.726 138.64C248.043 137.647 248.047 136.581 247.738 135.585C247.429 134.59 246.821 133.714 245.998 133.077L241.287 106.705Z" fill="#FFB6B6"/>
<path d="M222.866 57.7211L232.791 75.5197C232.791 75.5197 209.918 83.3679 209.862 82.0613C209.807 80.7546 210.999 62.6221 210.999 62.6221L222.866 57.7211Z" fill="#E6E6E6"/>
</g>
<defs>
<clipPath id="clip0_1350_119263">
<rect width="362" height="302" fill="white"/>
</clipPath>
</defs>
</svg>
