<svg width="293" height="252" viewBox="0 0 293 252" fill="none" xmlns="http://www.w3.org/2000/svg">
<g clip-path="url(#clip0_1350_119307)">
<path d="M121.879 218.926L125.079 208.518C121.229 204.286 116.402 201.057 111.018 199.11C116.278 207.813 111.181 219.166 113.305 229.107C113.992 232.202 115.366 235.104 117.328 237.597C119.29 240.09 121.788 242.109 124.638 243.507L129.494 249.516C132.04 245.074 133.592 240.133 134.041 235.035C134.491 229.937 133.829 224.801 132.1 219.983C131.104 217.29 129.771 214.732 128.135 212.371C125.249 215.76 121.879 218.926 121.879 218.926Z" fill="#F2F2F2"/>
<path d="M104.283 220.256L102.499 209.515C97.1627 207.442 91.4004 206.701 85.7125 207.357C94.3068 212.804 94.8146 225.235 101.155 233.187C103.152 235.652 105.678 237.637 108.547 238.994C111.416 240.351 114.555 241.046 117.729 241.028L124.759 244.243C125.054 239.134 124.237 234.021 122.362 229.257C120.488 224.494 117.602 220.192 113.903 216.65C111.808 214.683 109.474 212.987 106.955 211.603C105.885 215.921 104.283 220.256 104.283 220.256Z" fill="#F2F2F2"/>
<path d="M209.021 246.845L204.091 246.844L201.746 227.857L209.022 227.857L209.021 246.845Z" fill="#FFB6B6"/>
<path d="M210.278 251.617L194.384 251.616V251.415C194.384 249.777 195.036 248.205 196.196 247.047C197.356 245.888 198.929 245.237 200.57 245.237H200.571L203.474 243.037L208.891 245.237L210.278 245.238L210.278 251.617Z" fill="#2F2E41"/>
<path d="M288.648 228.889L285.287 232.49L269.779 221.257L274.739 215.943L288.648 228.889Z" fill="#FFB6B6"/>
<path d="M293 231.224L282.163 242.835L282.016 242.698C280.816 241.581 280.109 240.034 280.051 238.396C279.994 236.759 280.59 235.165 281.708 233.967L282.077 230.346L287.381 227.888L288.327 226.875L293 231.224Z" fill="#2F2E41"/>
<path d="M281.354 218.218L276.144 229.1L244.15 207.945L239.495 201.612L224.234 180.846L218.031 190.677L213.714 200.953C212.307 201.869 211.122 203.086 210.244 204.516C209.365 205.946 208.815 207.552 208.634 209.22L208.437 211.039L211.165 235.527L200.797 238.706L194.843 205.81L196.789 198.682L198.793 188.675L208.882 157.056H235.881L251.366 189.973L252.498 196.68L256.888 201.713L281.354 218.218Z" fill="#2F2E41"/>
<path d="M225.246 105.324L229.791 108.78L235.272 110.462C235.272 110.462 237.538 142.293 239.58 144.332C241.622 146.371 239.78 146.426 240.19 149.074C240.601 151.723 241.598 157.153 241.598 157.153C227.816 164.438 215.935 164.634 206.391 156.108C206.269 155.581 206.331 155.028 206.567 154.541C206.803 154.053 207.199 153.661 207.688 153.429C209.465 152.488 206.051 148.095 207.503 147.36C208.954 146.626 206.912 140.254 206.912 140.254L208.252 126.959L207.194 124.834L209.776 111.831L214.257 110.197L216.047 105.89L225.246 105.324Z" fill="#5AD6F3"/>
<path d="M228.093 161.898C228.073 161.323 228.179 160.751 228.404 160.221C228.629 159.692 228.968 159.218 229.396 158.833C229.824 158.449 230.332 158.163 230.883 157.995C231.434 157.827 232.015 157.782 232.585 157.863L238.99 145.43L242.559 151.762L235.929 162.598C235.73 163.546 235.189 164.387 234.409 164.963C233.63 165.539 232.666 165.81 231.7 165.724C230.734 165.637 229.833 165.2 229.169 164.495C228.504 163.79 228.121 162.866 228.093 161.898Z" fill="#FFB6B6"/>
<path d="M238.88 158.856L252.618 137.592L252.573 137.495C252.521 137.382 249.41 130.673 246.396 124.527C245.931 123.58 245.47 122.647 245.021 121.754C244.828 121.368 244.638 120.99 244.45 120.621C243.184 118.128 242.078 116.068 241.417 115.089C239.957 112.877 237.783 111.229 235.255 110.421L235.192 110.405L235.131 110.43C233.895 110.951 232.873 111.877 232.235 113.056C231.597 114.234 231.379 115.595 231.619 116.913C232.811 123.272 235.466 129.267 239.375 134.426L241.602 137.357L233.863 154.162L238.88 158.856Z" fill="#5AD6F3"/>
<path d="M191.639 77.3482C192.017 77.782 192.296 78.2933 192.455 78.8461C192.614 79.399 192.649 79.9799 192.559 80.548C192.469 81.1162 192.255 81.6576 191.933 82.1343C191.611 82.611 191.188 83.0113 190.694 83.3071L193.557 96.9935L186.793 94.3188L185.11 81.732C184.668 80.8702 184.557 79.8763 184.8 78.9386C185.042 78.0009 185.62 77.1845 186.425 76.6441C187.23 76.1038 188.205 75.877 189.166 76.0068C190.127 76.1365 191.007 76.6138 191.639 77.3482Z" fill="#FFB6B6"/>
<path d="M185.177 86.4943L187.913 111.652L188.01 111.7C188.089 111.739 191.555 113.437 195.809 115.458C196.527 115.799 196.424 117.277 197.174 117.63C197.691 117.873 199.055 116.991 199.577 117.234C204.227 119.406 208.929 121.518 210.803 122.09C213.333 122.89 216.06 122.803 218.533 121.841L218.593 121.814L218.624 121.756C219.256 120.574 219.466 119.212 219.219 117.895C218.971 116.578 218.282 115.385 217.265 114.511C212.33 110.321 206.487 107.333 200.197 105.784L196.618 104.908L192.035 86.9861L185.177 86.4943Z" fill="#5AD6F3"/>
<path d="M220.401 103.898C225.366 103.898 229.39 99.8788 229.39 94.9205C229.39 89.9622 225.366 85.9427 220.401 85.9427C215.436 85.9427 211.411 89.9622 211.411 94.9205C211.411 99.8788 215.436 103.898 220.401 103.898Z" fill="#FFB6B6"/>
<path d="M211.475 88.9046C212.215 86.7566 215.895 85.2668 221.861 85.0597C227.827 84.8525 229.341 91.8741 229.341 91.8741C233.323 95.1008 225.088 103.739 224.689 103.428L224.868 101.805C225.165 99.1169 226.425 97.0193 224.822 94.2176L223.283 94.2353C221.295 94.6171 219.307 94.9989 217.319 95.3806L219.672 93.311L219.606 93.2085C218.605 93.7292 217.515 94.0596 216.393 94.1827C215.128 94.257 213.745 93.7542 213.139 92.6426C212.977 92.3371 212.878 92.0023 212.848 91.658C211.142 92.3387 210.362 94.4389 210.362 94.4389C210.362 94.4389 210.736 91.0525 211.475 88.9046Z" fill="#2F2E41"/>
<path d="M36.2198 89.4431C36.0978 89.2887 35.9664 89.1418 35.8264 89.0034C35.8607 88.9565 35.8949 88.9052 35.9291 88.8583L36.2198 89.4431Z" fill="#2F2E41"/>
<path d="M37.9681 125.552C36.4976 128.16 33.5608 129.616 30.6496 130.329C27.3797 131.184 23.9364 131.118 20.7021 130.137C20.2917 130.004 19.8813 129.851 19.4838 129.68C19.6749 129.173 19.8264 128.652 19.9369 128.122C20.0857 127.404 20.1602 126.673 20.1592 125.94C19.8353 126.571 19.4157 127.149 18.9152 127.652C18.5291 128.057 18.0907 128.409 17.6114 128.698C16.1248 127.797 14.8375 126.603 13.8282 125.189C13.8923 125.031 13.9564 124.873 14.0163 124.715C14.3267 123.89 14.5725 123.042 14.7515 122.179C14.9944 121.012 15.1162 119.823 15.1149 118.631C14.5878 119.658 13.9042 120.597 13.0886 121.415C12.8441 121.676 12.5843 121.923 12.3106 122.153C11.8868 120.868 11.7229 119.511 11.8286 118.162C11.9343 116.813 12.3073 115.498 12.9262 114.294C14.619 111.169 17.9021 109.312 20.8261 107.292C23.7543 105.273 26.6826 102.541 26.9305 98.9932C27.0972 96.5983 25.9858 94.199 26.4304 91.8424C26.6173 90.8487 27.0738 89.9252 27.75 89.1727C28.4263 88.4201 29.2963 87.8673 30.2655 87.5745C31.2346 87.2817 32.2656 87.2601 33.2461 87.512C34.2267 87.764 35.1192 88.2799 35.8264 89.0034C34.1678 91.3515 32.5177 93.7806 31.8466 96.5726C31.1626 99.4159 31.7226 102.75 33.9669 104.633C34.7364 105.282 35.6811 105.743 36.2753 106.554C37.0661 107.63 37.0704 109.064 37.1987 110.388C37.4551 112.962 38.2973 115.438 38.7504 117.987C39.2078 120.531 39.2335 123.293 37.9681 125.552Z" fill="#2F2E41"/>
<path d="M7.8228 231.42L11.7244 234.43L25.2082 220.834L19.4498 216.391L7.8228 231.42Z" fill="#A0616A"/>
<path d="M7.98878 228.478L14.4405 232.87L12.3988 235.509L15.1332 244.077C15.2683 244.5 15.2644 244.956 15.1221 245.377C14.9798 245.797 14.7065 246.162 14.3421 246.417C13.9778 246.671 13.5414 246.803 13.0967 246.793C12.6521 246.782 12.2224 246.63 11.8705 246.358L4.5281 240.692L5.28211 237.106L2.76839 239.334L1.52588e-05 237.198L7.98878 228.478Z" fill="#2F2E41"/>
<path d="M27.6167 97.0279C27.6161 98.5502 27.9897 100.049 28.7048 101.394C29.4198 102.738 30.4544 103.887 31.7177 104.739C32.981 105.591 34.4344 106.12 35.9503 106.28C37.4662 106.44 38.9983 106.226 40.412 105.657C41.8258 105.087 43.0779 104.18 44.0586 103.015C45.0393 101.849 45.7185 100.461 46.0367 98.9722C46.3548 97.4834 46.3021 95.9394 45.8832 94.4757C45.4643 93.012 44.6921 91.6733 43.6342 90.5773L43.5895 90.5327C43.515 90.4545 43.4405 90.3764 43.3623 90.302L43.3608 90.3017L43.3596 90.3009L43.3588 90.2997L43.3586 90.2982C43.2617 90.209 43.1649 90.1197 43.0643 90.0341C41.4253 88.5982 39.1217 87.0396 36.7712 87.0396C31.6269 87.0396 27.6167 91.8904 27.6167 97.0279Z" fill="#2F2E41"/>
<path d="M80.6967 92.2519C80.7413 92.7479 80.6764 93.2477 80.5066 93.716C80.3369 94.1842 80.0664 94.6097 79.7142 94.9623C79.362 95.3149 78.9367 95.586 78.4682 95.7567C77.9998 95.9274 77.4995 95.9934 77.0027 95.9501L53.9425 116.743L49.9741 110.484L73.8894 92.0133C74.0175 91.1846 74.4456 90.4317 75.0924 89.8971C75.7393 89.3626 76.5601 89.0836 77.3991 89.113C78.2382 89.1424 79.0374 89.4782 79.6451 90.0567C80.2529 90.6352 80.627 91.4163 80.6967 92.2519Z" fill="#A0616A"/>
<path d="M44.087 123.02C44.087 123.02 44.945 124.602 47.8758 122.159C50.2222 120.202 61.4634 111.709 63.8851 108.229C64.4381 108.448 65.0482 108.477 65.6194 108.311C66.1907 108.145 66.6905 107.795 67.0401 107.314L60.4047 101.511C58.4194 101.739 58.462 103.071 58.6687 103.827L53.6635 106.092L40.7386 114.341L43.4464 121.887L44.087 123.02Z" fill="#5AD6F3"/>
<path d="M31.5657 137.6L31.0824 139.899L30.672 148.377L48.7407 149.369L48.1796 136.328L46.4282 133.455L31.5657 137.6Z" fill="#A0616A"/>
<path d="M39.2235 106.978C43.5363 106.978 47.0325 103.487 47.0325 99.1797C47.0325 94.8726 43.5363 91.3811 39.2235 91.3811C34.9108 91.3811 31.4146 94.8726 31.4146 99.1797C31.4146 103.487 34.9108 106.978 39.2235 106.978Z" fill="#A0616A"/>
<path d="M25.3596 127.944L25.3116 121.462C25.3105 119.129 26.1009 116.865 27.5538 115.039C29.0068 113.213 31.0365 111.932 33.3119 111.406L33.3413 111.399L34.8855 109.321L41.159 109.948L42.3088 112.295L46.8547 114.998L48.6049 120.617C49.3641 121.122 50.011 121.778 50.5057 122.544C51.0003 123.309 51.332 124.168 51.4801 125.067C52.0744 128.858 49.4168 132.651 49.1007 133.085L48.2862 137.667L30.5678 140.789L30.4239 140.807L25.3596 127.944Z" fill="#5AD6F3"/>
<path d="M48.7792 97.7893C47.8684 98.3655 46.9233 98.8858 45.9492 99.3475C44.9606 99.8218 43.9266 100.195 42.8628 100.462C42.5585 99.7949 42.186 99.1611 41.7514 98.5706C41.8632 99.2703 41.8661 99.9832 41.7599 100.684C39.9967 100.968 38.1908 100.82 36.4976 100.253L35.0271 97.7893L34.9159 100.539C33.6976 100.761 32.4835 100.97 31.2652 101.188C31.1925 101.196 31.1199 101.213 31.0515 101.226C30.2948 97.8192 31.3678 94.0666 33.7532 91.7955C34.9375 90.6796 36.4149 89.9227 38.0132 89.6128C39.6116 89.3029 41.2652 89.4528 42.7816 90.0451C42.974 90.122 43.1706 90.2073 43.3587 90.297L43.359 90.2986L43.3599 90.3001L43.3613 90.301L43.363 90.3013C43.4741 90.3567 43.5682 90.4891 43.6921 90.4763C49.0271 89.8828 49.1981 94.0154 48.7792 97.7893Z" fill="#2F2E41"/>
<path d="M35.7883 221.364L39.6959 224.366L53.1525 210.743L47.3853 206.312L35.7883 221.364Z" fill="#A0616A"/>
<path d="M36.3027 218.694L42.7633 223.073L40.7269 225.716L43.4786 234.279C43.6146 234.702 43.6116 235.157 43.4701 235.578C43.3287 235.999 43.0561 236.364 42.6923 236.62C42.3284 236.875 41.8923 237.008 41.4477 236.998C41.003 236.989 40.573 236.837 40.2205 236.566L32.8667 230.915L33.6135 227.327L31.1042 229.561L28.3316 227.43L36.3027 218.694Z" fill="#2F2E41"/>
<path d="M23.1084 204.737L23.1082 204.686L24.9601 201.499L23.0691 197.35L23.0123 186.692L23.3189 185.092C23.7312 182.94 23.6112 180.719 22.9694 178.624L22.9349 172.136C22.8684 170.511 25.3896 169.081 24.8017 167.726C19.2444 154.919 30.4765 145.149 30.5524 145.07L30.782 144.832L32.0273 145.774L33.2127 145.775L49.2085 148.686L49.324 148.901C49.9531 150.08 51.1673 154.142 51.2393 155.98C52.0365 156.902 61.1173 167.396 61.9245 168.125C67.3795 173.054 70.5026 181.212 71.8787 185.637C72.2205 186.73 72.2894 187.89 72.0794 189.017C71.8694 190.143 71.3869 191.2 70.6739 192.098L50.0232 214.687L44.4659 209.564L55.6398 189.23L54.8341 187.166C53.3883 186.9 52.08 186.141 51.1322 185.019L48.8695 182.337C48.2431 181.596 47.845 180.69 47.7234 179.728L46.3513 179.563L41.4362 174.41L38.0262 205.249L37.0992 207.686L20.9543 226.641L14.1146 222.372L23.1084 204.737Z" fill="#2F2E41"/>
<path d="M20.6428 72.3149C20.3326 72.7049 20.1118 73.158 19.996 73.6424C19.8801 74.1268 19.872 74.6307 19.9723 75.1186C20.0725 75.6065 20.2786 76.0664 20.5761 76.4661C20.8736 76.8658 21.2553 77.1955 21.6942 77.432L16.5605 92.6101L20.7524 108.695L27.512 105.643L23.3408 93.5107L26.4615 75.8512C26.8104 75.0885 26.8671 74.2246 26.6207 73.423C26.3744 72.6214 25.8422 71.9379 25.1249 71.502C24.4077 71.0661 23.5553 70.9081 22.7292 71.0579C21.9031 71.2078 21.1607 71.655 20.6428 72.3149Z" fill="#A0616A"/>
<path d="M26.8302 121.948C26.8302 121.948 25.2425 122.799 24.1384 119.149C23.2545 116.227 17.2388 100.362 17.1304 96.1249C16.548 96.0043 16.0223 95.6935 15.6362 95.2417C15.2501 94.7898 15.0255 94.2225 14.9978 93.6292L23.7348 92.4217C25.268 93.7019 24.4996 94.7913 23.9108 95.3097L26.8865 100.344L33.1064 113.933L27.9887 121.353L26.8302 121.948Z" fill="#5AD6F3"/>
<path d="M31.2635 101.187C32.1607 98.4847 33.7695 96.0734 35.9212 94.2061C38.073 92.3387 40.6882 91.084 43.4927 90.5736C43.5038 90.5699 43.5411 90.555 43.5895 90.5327C43.6193 90.5141 43.6566 90.4955 43.6938 90.4769C43.5821 90.4136 43.4741 90.3579 43.3623 90.302L43.3609 90.3017L43.3597 90.3009L43.3588 90.2997L43.3586 90.2983C43.2617 90.209 43.1649 90.1197 43.0643 90.0342L42.7812 90.0453C42.7812 90.0453 32.8317 88.4718 31.2635 101.187Z" fill="#FD6584"/>
<path d="M159.648 188.09C160.734 186.46 160.091 184.127 158.212 182.878C156.334 181.63 153.93 181.94 152.845 183.57C151.759 185.199 152.401 187.533 154.28 188.781C156.159 190.029 158.562 189.72 159.648 188.09Z" fill="#F2F2F2"/>
<path d="M137.605 127.253C138.691 125.623 138.048 123.289 136.17 122.041C134.291 120.793 131.888 121.102 130.802 122.732C129.716 124.362 130.359 126.696 132.237 127.944C134.116 129.192 136.519 128.883 137.605 127.253Z" fill="#F2F2F2"/>
<path d="M229.784 220.91C230.87 219.28 230.227 216.947 228.349 215.698C226.47 214.45 224.067 214.76 222.981 216.39C221.895 218.02 222.538 220.353 224.416 221.601C226.295 222.849 228.698 222.54 229.784 220.91Z" fill="#F2F2F2"/>
<path d="M43.4222 25.1901C44.5081 23.5601 43.8654 21.2268 41.9867 19.9786C40.108 18.7303 37.7047 19.0398 36.6188 20.6697C35.5329 22.2997 36.1756 24.633 38.0544 25.8813C39.9331 27.1295 42.3364 26.8201 43.4222 25.1901Z" fill="#F2F2F2"/>
<path d="M130.391 5.97832C131.477 4.34833 130.834 2.01506 128.956 0.766799C127.077 -0.481461 124.674 -0.172018 123.588 1.45797C122.502 3.08795 123.145 5.42125 125.023 6.66951C126.902 7.91777 129.305 7.6083 130.391 5.97832Z" fill="#F2F2F2"/>
<path d="M89.2311 167.163C90.317 165.533 89.6743 163.2 87.7956 161.951C85.9169 160.703 83.5135 161.013 82.4277 162.643C81.3418 164.273 81.9845 166.606 83.8632 167.854C85.742 169.102 88.1452 168.793 89.2311 167.163Z" fill="#E6E6E6"/>
<path d="M56.5132 93.7222C54.3209 93.7159 52.2078 92.9029 50.5779 91.4386C48.948 89.9744 47.9156 87.9616 47.6781 85.7851L42.5901 38.5935C42.3401 36.2504 43.031 33.904 44.5112 32.069C45.9914 30.234 48.14 29.0603 50.4857 28.8055L201.561 12.5603C203.907 12.3106 206.257 13.0005 208.094 14.4787C209.932 15.9569 211.107 18.1027 211.362 20.4453L216.45 67.6367C216.7 69.9798 216.009 72.3264 214.529 74.1614C213.049 75.9965 210.9 77.1702 208.554 77.4251L57.4793 93.6702C57.1584 93.7048 56.836 93.7221 56.5132 93.7222Z" fill="#E6E6E6"/>
<path d="M199.897 14.7511C199.613 14.7512 199.329 14.7665 199.047 14.7969L53.4189 30.4563C52.4006 30.5658 51.4139 30.8745 50.5151 31.3648C49.6163 31.8551 48.823 32.5174 48.1805 33.3139C47.538 34.1104 47.0589 35.0255 46.7705 36.0069C46.4821 36.9883 46.3902 38.0169 46.4998 39.0338L49.0724 62.8943C49.4882 66.7517 50.6608 70.4895 52.5231 73.8943C54.3854 77.2991 56.901 80.3042 59.9262 82.7381C62.9515 85.172 66.4272 86.9869 70.1548 88.0794C73.8824 89.1718 77.789 89.5203 81.6515 89.1049L184.052 78.0937C187.903 77.6796 191.635 76.5122 195.033 74.658C198.432 72.8038 201.432 70.2992 203.862 67.2871C206.292 64.2751 208.104 60.8146 209.194 57.1033C210.285 53.3919 210.633 49.5024 210.218 45.6568L207.636 21.7068C207.43 19.7991 206.527 18.0343 205.098 16.7508C203.67 15.4673 201.818 14.7552 199.897 14.7511Z" fill="white"/>
<path d="M169.23 39.5831L87.8362 48.3354C87.6034 48.3607 87.368 48.34 87.1433 48.2744C86.9186 48.2088 86.709 48.0996 86.5266 47.953C86.3442 47.8065 86.1925 47.6255 86.0802 47.4203C85.9679 47.2152 85.8972 46.99 85.8722 46.7575C85.8471 46.525 85.8682 46.2899 85.9342 46.0656C86.0002 45.8413 86.1098 45.6322 86.2568 45.4502C86.4038 45.2682 86.5852 45.117 86.7908 45.0051C86.9964 44.8932 87.222 44.8229 87.4548 44.7982L168.848 36.0459C169.081 36.0206 169.316 36.0413 169.541 36.1069C169.766 36.1725 169.975 36.2817 170.158 36.4283C170.34 36.5748 170.492 36.7559 170.604 36.961C170.717 37.1661 170.787 37.3914 170.812 37.6238C170.837 37.8563 170.816 38.0914 170.75 38.3157C170.684 38.54 170.575 38.7492 170.428 38.9311C170.281 39.1131 170.099 39.2643 169.894 39.3762C169.688 39.4881 169.462 39.5584 169.23 39.5831Z" fill="#5AD6F3"/>
<path d="M170.4 50.4389L89.0066 59.1912C88.5369 59.2417 88.0664 59.1038 87.6985 58.8078C87.3307 58.5119 87.0956 58.0821 87.045 57.613C86.9944 57.144 87.1325 56.674 87.4289 56.3067C87.7252 55.9393 88.1556 55.7045 88.6253 55.654L170.019 46.9017C170.488 46.8512 170.959 46.9891 171.327 47.2851C171.695 47.581 171.93 48.0108 171.98 48.4799C172.031 48.9489 171.893 49.4188 171.597 49.7862C171.3 50.1536 170.87 50.3884 170.4 50.4389Z" fill="#5AD6F3"/>
<path d="M99.6623 69.0268L90.177 70.0467C89.7074 70.0972 89.2368 69.9593 88.8689 69.6634C88.5011 69.3674 88.266 68.9376 88.2154 68.4686C88.1648 67.9995 88.3029 67.5296 88.5993 67.1622C88.8956 66.7948 89.326 66.5601 89.7957 66.5096L99.2809 65.4896C99.5136 65.4643 99.7491 65.485 99.9738 65.5506C100.198 65.6162 100.408 65.7254 100.59 65.872C100.773 66.0185 100.925 66.1995 101.037 66.4047C101.149 66.6098 101.22 66.835 101.245 67.0675C101.27 67.3 101.249 67.5351 101.183 67.7594C101.117 67.9837 101.007 68.1928 100.86 68.3748C100.713 68.5568 100.532 68.708 100.326 68.8199C100.121 68.9317 99.8951 69.0021 99.6623 69.0268Z" fill="#5AD6F3"/>
<path d="M53.3107 40.5847C55.0815 40.5847 56.5169 39.1512 56.5169 37.3828C56.5169 35.6144 55.0815 34.1808 53.3107 34.1808C51.54 34.1808 50.1045 35.6144 50.1045 37.3828C50.1045 39.1512 51.54 40.5847 53.3107 40.5847Z" fill="#3F3D56"/>
<path d="M196.789 24.5749C198.56 24.5749 199.996 23.1413 199.996 21.373C199.996 19.6046 198.56 18.171 196.789 18.171C195.019 18.171 193.583 19.6046 193.583 21.373C193.583 23.1413 195.019 24.5749 196.789 24.5749Z" fill="#3F3D56"/>
<path d="M153.443 90.3099C153.148 90.0515 152.915 89.7308 152.76 89.3711C152.605 89.0114 152.532 88.6217 152.546 88.2304C152.707 83.5796 151.94 78.9433 150.29 74.5914C150.15 74.2255 150.094 73.8331 150.124 73.4427C150.155 73.0523 150.273 72.6737 150.469 72.3344C150.657 72.0083 150.913 71.7272 151.221 71.5108C151.529 71.2944 151.881 71.148 152.252 71.0817C155.978 68.8359 159.799 68.2054 163.609 69.2081C164.224 69.1178 164.85 69.2491 165.376 69.5786C165.902 69.908 166.294 70.414 166.48 71.0056C168.023 76.0071 168.881 81.1939 169.031 86.4251C169.045 87.0527 168.832 87.6644 168.431 88.1478C168.031 88.6313 167.468 88.954 166.848 89.0568L155.573 90.9171C155.195 90.9803 154.808 90.9586 154.439 90.8535C154.071 90.7485 153.73 90.5628 153.443 90.3099Z" fill="#5AD6F3"/>
<path d="M154.444 76.7593L163.934 75.1936C164.012 75.1809 164.087 75.153 164.154 75.1114C164.221 75.0698 164.28 75.0154 164.326 74.9512C164.372 74.8871 164.405 74.8145 164.423 74.7376C164.441 74.6607 164.443 74.581 164.431 74.5031C164.418 74.4252 164.39 74.3506 164.348 74.2836C164.306 74.2166 164.251 74.1585 164.187 74.1126C164.123 74.0667 164.05 74.0339 163.973 74.0161C163.896 73.9983 163.816 73.9958 163.738 74.0089L154.248 75.5747C154.091 75.6009 153.951 75.6883 153.858 75.8177C153.766 75.947 153.728 76.1078 153.754 76.2646C153.78 76.4215 153.867 76.5617 153.997 76.6544C154.126 76.7472 154.287 76.7849 154.444 76.7593Z" fill="white"/>
<path d="M155.228 81.498L164.718 79.9323C164.875 79.9063 165.016 79.819 165.109 79.6896C165.202 79.5602 165.239 79.3992 165.213 79.2421C165.187 79.085 165.1 78.9446 164.97 78.8519C164.84 78.7592 164.679 78.7216 164.522 78.7476L155.032 80.3134C154.954 80.3261 154.879 80.354 154.812 80.3956C154.745 80.4372 154.686 80.4916 154.64 80.5557C154.594 80.6198 154.561 80.6924 154.543 80.7693C154.525 80.8462 154.523 80.9259 154.535 81.0038C154.548 81.0817 154.576 81.1563 154.618 81.2233C154.66 81.2903 154.715 81.3485 154.779 81.3944C154.843 81.4403 154.916 81.4731 154.993 81.4909C155.07 81.5086 155.15 81.5111 155.228 81.498Z" fill="white"/>
<path d="M156.012 86.2367L165.502 84.671C165.659 84.645 165.8 84.5577 165.893 84.4283C165.985 84.2989 166.023 84.1379 165.997 83.9808C165.971 83.8237 165.884 83.6833 165.754 83.5906C165.624 83.4979 165.463 83.4604 165.306 83.4863L155.816 85.0521C155.738 85.0649 155.663 85.093 155.596 85.1346C155.529 85.1762 155.471 85.2307 155.425 85.2947C155.379 85.3588 155.346 85.4313 155.328 85.5081C155.31 85.5849 155.308 85.6645 155.321 85.7423C155.334 85.82 155.362 85.8945 155.403 85.9615C155.445 86.0284 155.5 86.0865 155.564 86.1324C155.628 86.1784 155.701 86.2112 155.777 86.2291C155.854 86.247 155.934 86.2496 156.012 86.2367Z" fill="white"/>
</g>
<defs>
<clipPath id="clip0_1350_119307">
<rect width="293" height="252" fill="white"/>
</clipPath>
</defs>
</svg>
