<svg width="397" height="281" viewBox="0 0 397 281" fill="none" xmlns="http://www.w3.org/2000/svg">
<g clip-path="url(#clip0_1337_119070)">
<path opacity="0.1" d="M131.986 280.842C151.32 280.842 166.993 278.327 166.993 275.224C166.993 272.121 151.32 269.605 131.986 269.605C112.652 269.605 96.9795 272.121 96.9795 275.224C96.9795 278.327 112.652 280.842 131.986 280.842Z" fill="#5AD6F3"/>
<path opacity="0.1" d="M322.277 281C346.402 281 365.959 278.485 365.959 275.382C365.959 272.279 346.402 269.764 322.277 269.764C298.151 269.764 278.594 272.279 278.594 275.382C278.594 278.485 298.151 281 322.277 281Z" fill="#5AD6F3"/>
<path opacity="0.1" d="M4.9722 121.412H41.4338V171.072H7.64152C7.55171 171.582 7.46548 172.095 7.37207 172.609H41.4338V212.658C41.3727 212.64 41.3188 212.619 41.2614 212.597C40.2985 212.217 39.3429 211.814 38.3873 211.384L37.7765 211.107C36.8185 210.655 35.8604 210.176 34.9024 209.671C34.5683 209.495 34.2342 209.312 33.9036 209.126C28.5851 206.148 23.7534 202.376 19.5762 197.939C19.4541 197.821 19.3391 197.695 19.217 197.58C18.635 196.948 18.0637 196.309 17.5105 195.656L16.8997 194.938C16.2459 194.138 15.6136 193.315 14.9992 192.483C14.9094 192.36 14.8232 192.238 14.7298 192.124C12.2313 188.662 10.1567 184.914 8.55046 180.959C8.50016 180.84 8.45705 180.711 8.41034 180.6C7.91696 179.331 7.47985 178.051 7.09903 176.759C6.93377 176.216 6.7757 175.682 6.63918 175.118C6.58888 174.953 6.54577 174.791 6.50625 174.63C4.46564 166.671 4.22493 158.403 4.22493 150.193C4.22493 149.234 4.22493 148.272 4.22493 147.321C4.22493 144 4.26445 140.658 4.32193 137.319C4.32193 136.454 4.35786 135.593 4.37582 134.724C4.42612 132.52 4.49797 130.315 4.59138 128.111C4.61293 127.497 4.64167 126.887 4.67401 126.277C4.67401 125.925 4.69197 125.573 4.7279 125.221C4.81412 123.943 4.88597 122.676 4.9722 121.412Z" fill="#5AD6F3"/>
<path opacity="0.1" d="M41.4338 66.1202H21.4336C24.6847 61.0353 28.237 56.1491 32.0714 51.4876C35.0425 47.8402 38.1788 44.2861 41.4338 40.8613V66.1202Z" fill="#5AD6F3"/>
<path opacity="0.1" d="M41.4338 67.6562V119.876H5.08717C5.08717 119.725 5.11231 119.571 5.12309 119.42C5.15543 119.007 5.18776 118.594 5.22368 118.185C5.2632 117.704 5.30632 117.219 5.35302 116.749C5.39972 116.279 5.45002 115.704 5.50391 115.184C5.5578 114.663 5.6081 114.135 5.66917 113.615C5.73025 113.094 5.78414 112.574 5.8488 112.057C5.91347 111.54 5.97095 111.016 6.03921 110.499C6.0931 110.068 6.15058 109.641 6.20806 109.21C6.2907 108.603 6.37692 107.993 6.47033 107.39C6.47033 107.3 6.49548 107.207 6.50985 107.121C7.16557 102.706 8.05904 98.329 9.18636 94.0101C10.3664 89.4795 11.8732 85.0403 13.6951 80.7273C15.6314 76.2153 17.8985 71.8524 20.478 67.6742L41.4338 67.6562Z" fill="#5AD6F3"/>
<path opacity="0.1" d="M50.1387 121.409V171.072H128.016V121.409H50.1387ZM50.1387 172.605V215.254C50.5842 215.347 51.0261 215.437 51.4644 215.512C52.0607 215.627 52.6535 215.731 53.2607 215.821C53.3756 215.839 53.4942 215.857 53.6199 215.868C53.857 215.907 54.1013 215.94 54.3385 215.972C54.9384 216.054 55.5348 216.123 56.1348 216.177C56.4186 216.205 56.706 216.23 56.9934 216.252L57.6868 216.306C58.064 216.334 58.4376 216.356 58.8077 216.367C59.0376 216.367 59.2675 216.388 59.5047 216.396C59.6843 216.396 59.8639 216.396 60.0507 216.396C60.2376 216.396 60.5034 216.396 60.7297 216.396C61.0387 216.396 61.3477 216.396 61.6531 216.396H62.0662C62.3752 216.396 62.6841 216.396 62.9895 216.367H63.0111C63.223 216.367 63.4386 216.367 63.6541 216.338C63.714 216.342 63.774 216.342 63.8338 216.338C64.0134 216.338 64.193 216.338 64.3655 216.313H64.4912L65.6948 216.22C66.09 216.184 66.4887 216.137 66.8911 216.094L67.7102 215.997C71.0427 215.53 74.3381 214.83 77.572 213.901C84.8363 211.876 91.9425 209.043 99.2032 206.968C108.591 204.294 118.963 202.98 128.034 206.25V172.605H50.1387ZM128.016 66.1201V0.00391783C119.49 -0.0883884 110.987 0.908112 102.713 2.96922C82.9933 7.91977 65.2996 18.6573 50.1387 32.3709V66.1165H54.0474V67.6494H50.1387V119.876H128.016V67.653H70.0957V66.1201H128.016ZM228.046 43.787C223.167 43.6147 218.317 42.071 213.93 39.6873C205.541 35.128 198.841 28.0881 191.354 22.1467C175.798 9.77218 156.506 2.30508 136.714 0.452662V66.1201H247.888L248.164 65.8293L228.046 43.787ZM238.173 41.992L248.912 53.7671V38.9047C245.315 39.3498 242.165 40.4088 238.188 41.9777L238.173 41.992ZM248.912 225.844V172.605H226.03C225.969 172.379 225.908 172.149 225.836 171.92C225.904 172.149 225.962 172.379 226.027 172.605H136.728V211.108C137.576 211.736 138.413 212.396 139.243 213.068C140.138 213.786 141.021 214.543 141.909 215.286L142.803 216.026C143.231 216.385 143.662 216.744 144.097 217.081C144.959 217.78 145.83 218.469 146.709 219.149C147.143 219.508 147.589 219.831 148.031 220.169C155.046 225.528 162.446 230.365 170.172 234.64C171.904 235.597 173.651 236.532 175.414 237.443C176.588 238.043 177.77 238.639 178.956 239.217C180.738 240.086 182.534 240.923 184.345 241.73C201.039 249.218 218.691 254.356 236.797 256.998C240.819 257.591 244.856 258.058 248.908 258.398V225.841H249.267L248.912 225.844ZM136.728 67.653V119.876H248.926V67.653H136.728ZM136.728 121.409V171.072H248.926V121.409H136.728ZM257.635 38.84V55.4184L271.341 40.3909C266.799 39.6585 262.231 39.1356 257.635 38.8221V38.84ZM257.635 121.427V171.072H366.761V121.409L257.635 121.427ZM366.362 229.786L366.746 172.605H257.635V258.969C264.664 259.264 271.703 259.18 278.723 258.717V258.717H278.846C282.199 258.507 285.536 258.201 288.858 257.798H288.934C306.656 255.737 323.986 251.117 340.38 244.081M387.803 129.587C387.393 128.621 386.966 127.663 386.531 126.715C385.719 124.92 384.86 123.175 383.977 121.43H375.462V171.072H396.989C396.978 157.014 393.418 142.654 387.814 129.569L387.803 129.587ZM375.462 172.623V221.806C381.526 215.997 386.65 209.352 390.339 201.756C394.776 192.608 396.806 182.704 396.971 172.616L375.462 172.623ZM375.462 106.956V119.88H383.179C380.845 115.431 378.272 111.111 375.473 106.938L375.462 106.956ZM301.454 48.5832C300.886 48.3678 300.319 48.1488 299.747 47.937C293.723 45.7138 287.567 43.8651 281.314 42.4013L260.34 65.4021L259.937 65.8293L260.207 66.1237H334.855C324.458 58.9727 313.25 53.0787 301.465 48.5652L301.454 48.5832ZM337.043 67.6709H259.165L257.635 69.071V119.876H271.05H271.071H366.775V95.2669C358.118 84.8043 348.125 75.5206 337.053 67.653L337.043 67.6709Z" fill="#5AD6F3"/>
<path opacity="0.1" d="M41.434 93.9961V119.876H5.0874C5.0874 119.725 5.11255 119.571 5.12333 119.42C5.15566 119.007 5.18799 118.594 5.22392 118.185C5.26344 117.704 5.30655 117.22 5.35326 116.749C5.39996 116.279 5.45026 115.705 5.50415 115.184C5.55804 114.663 5.60833 114.136 5.66941 113.615C5.73048 113.095 5.78437 112.574 5.84904 112.057C5.91371 111.54 5.97119 111.016 6.03945 110.499C6.09334 110.068 6.15082 109.641 6.2083 109.21C6.29093 108.604 6.37716 107.993 6.47056 107.39C6.47056 107.3 6.49571 107.207 6.51008 107.121C7.16581 102.706 8.05927 98.3294 9.18659 94.0105L41.434 93.9961Z" fill="#5AD6F3"/>
<path opacity="0.1" d="M4.9722 121.412H41.4338V171.072H7.64152C7.55171 171.582 7.46548 172.095 7.37207 172.609H41.4338V212.658C41.3727 212.64 41.3188 212.619 41.2614 212.597C40.2985 212.217 39.3429 211.814 38.3873 211.384L37.7765 211.107C36.8185 210.655 35.8604 210.176 34.9024 209.671C34.5683 209.495 34.2342 209.312 33.9036 209.126C28.5851 206.148 23.7534 202.376 19.5762 197.939C19.4541 197.821 19.3391 197.695 19.217 197.58C18.635 196.948 18.0637 196.309 17.5105 195.656L16.8997 194.938C16.2459 194.138 15.6136 193.315 14.9992 192.483C14.9094 192.36 14.8232 192.238 14.7298 192.124C12.2313 188.662 10.1567 184.914 8.55046 180.959C8.50016 180.84 8.45705 180.711 8.41034 180.6C7.91696 179.331 7.47985 178.051 7.09903 176.759C6.93377 176.216 6.7757 175.682 6.63918 175.118C6.58888 174.953 6.54577 174.791 6.50625 174.63C4.46564 166.671 4.22493 158.403 4.22493 150.193C4.22493 149.234 4.22493 148.272 4.22493 147.321C4.22493 144 4.26445 140.658 4.32193 137.319C4.32193 136.454 4.35786 135.593 4.37582 134.724C4.42612 132.52 4.49797 130.315 4.59138 128.111C4.61293 127.497 4.64167 126.887 4.67401 126.277C4.67401 125.925 4.69197 125.573 4.7279 125.221C4.81412 123.943 4.88597 122.676 4.9722 121.412Z" fill="#5AD6F3"/>
<path opacity="0.1" d="M77.554 75.1301V119.875H50.1387V75.1301H54.0475V59.9805H70.0921V75.1301H77.554Z" fill="#5AD6F3"/>
<path opacity="0.1" d="M77.5543 121.408H50.1426V171.068H77.5543V121.408Z" fill="#5AD6F3"/>
<path opacity="0.1" d="M50.1387 172.609H77.5541V213.893C74.3202 214.822 71.0248 215.521 67.6923 215.986L66.8732 216.086C66.4708 216.133 66.0721 216.173 65.6769 216.212C65.2817 216.252 64.8721 216.28 64.4733 216.305H64.3476C64.1752 216.305 63.9883 216.327 63.8195 216.331H63.6363C63.4207 216.331 63.2051 216.352 62.9896 216.359C62.6842 216.377 62.3788 216.381 62.0663 216.384C61.9334 216.384 61.8076 216.384 61.6747 216.384C61.3657 216.384 61.0603 216.384 60.7514 216.384H60.0724C59.8891 216.384 59.7131 216.384 59.5227 216.384L58.8293 216.359C58.4701 216.359 58.0821 216.32 57.7084 216.295L57.0186 216.244L56.16 216.165C55.5564 216.112 54.9565 216.043 54.3637 215.961L53.6452 215.86L53.2859 215.81C52.6859 215.717 52.0931 215.616 51.4896 215.501C51.0477 215.426 50.6094 215.333 50.1639 215.243L50.1387 172.609Z" fill="#5AD6F3"/>
<path opacity="0.1" d="M248.926 69.8457H226.321V119.872H248.926V69.8457Z" fill="#5AD6F3"/>
<path opacity="0.1" d="M248.93 121.408V171.072H136.729V149.65H196.492V162.287H226.322V121.408H248.93Z" fill="#5AD6F3"/>
<path opacity="0.1" d="M249.285 225.855H248.926V258.434C244.878 258.091 240.843 257.626 236.819 257.037C218.704 254.387 201.044 249.238 184.345 241.737C179.524 239.568 174.801 237.201 170.176 234.636C162.45 230.359 155.049 225.522 148.031 220.165C146.268 218.815 144.528 217.434 142.811 216.022C141.621 215.042 140.44 214.037 139.243 213.06C138.413 212.389 137.576 211.728 136.728 211.096V172.609H226.023C225.962 172.379 225.901 172.149 225.836 171.923C225.905 172.149 225.969 172.379 226.03 172.609H248.926V225.833C249.048 225.837 249.167 225.848 249.285 225.855Z" fill="#5AD6F3"/>
<path opacity="0.1" d="M307.881 66.1193H293.151V61.5458H299.755V47.9219C300.327 48.1301 300.897 48.3443 301.465 48.5645V61.5458H307.881V66.1193Z" fill="#5AD6F3"/>
<path opacity="0.1" d="M343.369 119.876H271.057C271.057 119.876 271.057 119.876 271.082 119.894L271.05 119.876H257.635V69.8497H261.436V106.826H278.806V84.9275H293.155V67.6562H307.885V84.9419H322.234V106.841H343.369V119.876Z" fill="#5AD6F3"/>
<path opacity="0.1" d="M257.635 121.408V171.072H343.369V121.408H257.635ZM366.642 229.53L366.761 190.22H343.369V172.63H257.635V258.968C264.664 259.263 271.704 259.179 278.724 258.717V258.717H278.846C282.199 258.506 285.536 258.2 288.858 257.798H288.934C306.656 255.737 323.986 251.116 340.38 244.08" fill="#5AD6F3"/>
<path opacity="0.1" d="M376.985 172.609H396.986C396.81 182.693 394.783 192.597 390.35 201.745C386.66 209.345 381.534 215.99 375.477 221.794V190.203H376.985V172.609Z" fill="#5AD6F3"/>
<path opacity="0.1" d="M396.996 171.072H376.985V129.569H387.814C393.418 142.654 396.978 157.014 396.996 171.072Z" fill="#5AD6F3"/>
<path opacity="0.1" d="M248.93 83.7539H236.819V99.4384H248.93V83.7539Z" fill="#5AD6F3"/>
<path opacity="0.1" d="M248.93 116.265H236.819V119.876H248.93V116.265Z" fill="#5AD6F3"/>
<path opacity="0.1" d="M248.93 121.408H236.819V131.945H248.93V121.408Z" fill="#5AD6F3"/>
<path opacity="0.1" d="M248.93 148.774H236.819V164.459H248.93V148.774Z" fill="#5AD6F3"/>
<path opacity="0.1" d="M248.93 181.285H236.819V196.97H248.93V181.285Z" fill="#5AD6F3"/>
<path opacity="0.1" d="M248.927 225.833C249.049 225.833 249.167 225.833 249.286 225.855H248.927V229.498H236.819V213.796H248.927V225.833Z" fill="#5AD6F3"/>
<path opacity="0.1" d="M248.927 246.3V258.416C244.879 258.074 240.843 257.608 236.819 257.019V246.3H248.927Z" fill="#5AD6F3"/>
<path opacity="0.1" d="M188.631 169.92H136.729V171.072H188.631V169.92Z" fill="#5AD6F3"/>
<path opacity="0.1" d="M188.631 172.604H136.729V177.02H188.631V172.604Z" fill="#5AD6F3"/>
<path opacity="0.1" d="M188.631 191.495H136.728V198.596H188.631V191.495Z" fill="#5AD6F3"/>
<path opacity="0.1" d="M188.628 213.071V220.172H148.031C146.268 218.827 144.527 217.446 142.807 216.029C141.618 215.049 140.44 214.044 139.24 213.071H188.628Z" fill="#5AD6F3"/>
<path opacity="0.1" d="M188.628 234.643V241.736H184.342C179.525 239.566 174.803 237.197 170.176 234.632L188.628 234.643Z" fill="#5AD6F3"/>
<path opacity="0.1" d="M288.944 126.223H278.727V136.432H288.944V126.223Z" fill="#5AD6F3"/>
<path opacity="0.1" d="M67.7175 78.6523H57.5V88.8621H67.7175V78.6523Z" fill="#5AD6F3"/>
<path opacity="0.1" d="M67.7174 102.367H57.5V112.577H67.7174V102.367Z" fill="#5AD6F3"/>
<path opacity="0.1" d="M67.7174 126.083H57.5V136.293H67.7174V126.083Z" fill="#5AD6F3"/>
<path opacity="0.1" d="M67.7174 149.794H57.5V160.004H67.7174V149.794Z" fill="#5AD6F3"/>
<path opacity="0.1" d="M67.7175 173.51H57.5V183.719H67.7175V173.51Z" fill="#5AD6F3"/>
<path opacity="0.1" d="M67.7174 197.225H57.5V207.434H67.7174V197.225Z" fill="#5AD6F3"/>
<path opacity="0.1" d="M327.95 126.223H317.732V136.433H327.95V126.223Z" fill="#5AD6F3"/>
<path opacity="0.1" d="M288.944 151.406H278.727V161.616H288.944V151.406Z" fill="#5AD6F3"/>
<path opacity="0.1" d="M327.95 151.406H317.732V161.616H327.95V151.406Z" fill="#5AD6F3"/>
<path opacity="0.1" d="M288.944 176.586H278.727V186.796H288.944V176.586Z" fill="#5AD6F3"/>
<path opacity="0.1" d="M327.95 176.586H317.732V186.796H327.95V176.586Z" fill="#5AD6F3"/>
<path opacity="0.1" d="M288.944 201.77H278.727V211.979H288.944V201.77Z" fill="#5AD6F3"/>
<path opacity="0.1" d="M327.95 201.77H317.732V211.98H327.95V201.77Z" fill="#5AD6F3"/>
<path opacity="0.1" d="M288.944 226.953H278.727V237.163H288.944V226.953Z" fill="#5AD6F3"/>
<path opacity="0.1" d="M327.95 226.953H317.732V237.163H327.95V226.953Z" fill="#5AD6F3"/>
<path opacity="0.1" d="M278.727 258.717V252.133H288.94V257.78L278.727 258.717Z" fill="#5AD6F3"/>
<path opacity="0.1" d="M6.46674 107.113V112.954H41.4338V107.113H6.46674ZM9.95159 112.588H7.09904V107.472H9.97314L9.95159 112.588ZM13.4328 112.588H10.5587V107.472H13.4328V112.588ZM16.9069 112.588H14.0328V107.472H16.9069V112.588ZM20.3882 112.588H17.5177V107.472H20.3918L20.3882 112.588ZM23.8658 112.588H20.9917V107.472H23.8658V112.588ZM27.3471 112.588H24.473V107.472H27.3471V112.588ZM30.8284 112.588H27.9543V107.472H30.8284V112.588ZM34.306 112.588H31.4319V107.472H34.306V112.588ZM37.7837 112.588H34.9096V107.472H37.7837V112.588ZM41.2614 112.588H38.3873V107.472H41.2614V112.588Z" fill="#5AD6F3"/>
<path opacity="0.1" d="M6.46674 124.108V129.949H41.4338V124.108H6.46674ZM9.95159 129.579H7.09904V124.478H9.97314L9.95159 129.579ZM13.4328 129.579H10.5587V124.478H13.4328V129.579ZM16.9069 129.579H14.0328V124.478H16.9069V129.579ZM20.3882 129.579H17.5177V124.478H20.3918L20.3882 129.579ZM23.8658 129.579H20.9917V124.478H23.8658V129.579ZM27.3471 129.579H24.473V124.478H27.3471V129.579ZM30.8284 129.579H27.9543V124.478H30.8284V129.579ZM34.306 129.579H31.4319V124.478H34.306V129.579ZM37.7837 129.579H34.9096V124.478H37.7837V129.579ZM41.2614 129.579H38.3873V124.478H41.2614V129.579Z" fill="#5AD6F3"/>
<path opacity="0.1" d="M6.46674 141.11V146.962H41.4338V141.11H6.46674ZM9.95159 146.581H7.09904V141.476H9.97314L9.95159 146.581ZM13.4328 146.581H10.5587V141.476H13.4328V146.581ZM16.9069 146.581H14.0328V141.476H16.9069V146.581ZM20.3882 146.581H17.5177V141.476H20.3918L20.3882 146.581ZM23.8658 146.581H20.9917V141.476H23.8658V146.581ZM27.3471 146.581H24.473V141.476H27.3471V146.581ZM30.8284 146.581H27.9543V141.476H30.8284V146.581ZM34.306 146.581H31.4319V141.476H34.306V146.581ZM37.7837 146.581H34.9096V141.476H37.7837V146.581ZM41.2614 146.581H38.3873V141.476H41.2614V146.581Z" fill="#5AD6F3"/>
<path opacity="0.1" d="M6.46674 158.112V163.946H41.4338V158.112H6.46674ZM9.95159 163.583H7.09904V158.475H9.97314L9.95159 163.583ZM13.4328 163.583H10.5587V158.475H13.4328V163.583ZM16.9069 163.583H14.0328V158.475H16.9069V163.583ZM20.3882 163.583H17.5177V158.475H20.3918L20.3882 163.583ZM23.8658 163.583H20.9917V158.475H23.8658V163.583ZM27.3471 163.583H24.473V158.475H27.3471V163.583ZM30.8284 163.583H27.9543V158.475H30.8284V163.583ZM34.306 163.583H31.4319V158.475H34.306V163.583ZM37.7837 163.583H34.9096V158.475H37.7837V163.583ZM41.2614 163.583H38.3873V158.475H41.2614V163.583Z" fill="#5AD6F3"/>
<path opacity="0.1" d="M6.61768 175.11C6.75779 175.66 6.91586 176.209 7.08112 176.751V175.477H9.95523V180.581H8.41758C8.46429 180.7 8.51099 180.829 8.55769 180.94H41.4339V175.11H6.61768ZM13.4437 180.581H10.5696V175.477H13.4437V180.581ZM16.9177 180.581H14.0436V175.477H16.9177V180.581ZM20.399 180.581H17.5177V175.477H20.3918L20.399 180.581ZM23.8767 180.581H21.0026V175.477H23.8767V180.581ZM27.3579 180.581H24.4838V175.477H27.3579V180.581ZM30.8392 180.581H27.9651V175.477H30.8392V180.581ZM34.3168 180.581H31.4427V175.477H34.3168V180.581ZM37.7945 180.581H34.9204V175.477H37.7945V180.581ZM41.2722 180.581H38.3981V175.477H41.2722V180.581Z" fill="#5AD6F3"/>
<path opacity="0.1" d="M14.7368 192.112C14.8266 192.227 14.9129 192.356 15.0063 192.471H16.9068V194.923C17.1115 195.167 17.3127 195.411 17.5211 195.641V192.457H20.3952V197.58H19.2312C19.3462 197.698 19.4575 197.824 19.5905 197.939H41.4444V192.112H14.7368ZM23.8657 197.58H20.9916V192.478H23.8657V197.58ZM27.3469 197.58H24.4728V192.478H27.3469V197.58ZM30.8282 197.58H27.9541V192.478H30.8282V197.58ZM34.3059 197.58H31.4318V192.478H34.3059V197.58ZM37.7835 197.58H34.9094V192.478H37.7835V197.58ZM41.2612 197.58H38.3871V192.478H41.2612V197.58Z" fill="#5AD6F3"/>
<path opacity="0.1" d="M33.918 209.111C34.2449 209.298 34.5791 209.47 34.9168 209.657V209.477H37.7909V211.093L38.4016 211.376V209.477H41.2757V212.583C41.3308 212.61 41.3886 212.632 41.4482 212.647V209.111H33.918Z" fill="#5AD6F3"/>
<path opacity="0.1" d="M271.057 119.876H271.078H271.057ZM248.926 225.83H249.286H248.926ZM225.836 171.92C225.905 172.149 225.962 172.379 226.027 172.605C225.969 172.379 225.908 172.149 225.836 171.92ZM271.057 119.865H271.078H271.057ZM54.062 66.1094V67.6423H70.1103V66.1094H54.062ZM248.926 225.83H249.286H248.926ZM225.836 171.92C225.905 172.149 225.962 172.379 226.027 172.605C225.969 172.379 225.908 172.149 225.836 171.92ZM271.057 119.865H271.078H271.057ZM248.926 225.819H249.286H248.926ZM225.836 171.92C225.905 172.149 225.962 172.379 226.027 172.605C225.969 172.379 225.908 172.149 225.836 171.92Z" fill="#5AD6F3"/>
<path d="M165.836 136.3C165.836 136.3 164.42 136.103 164.42 134.042C164.42 131.981 163.407 128.133 163.407 128.133C163.407 128.115 162.531 121.431 161.32 120.368C160.109 119.305 158.554 113.066 158.554 113.066C158.554 113.066 158.288 109.681 157.745 108.952C157.203 108.223 156.47 106.439 155.389 103.894C154.307 101.348 149.798 99.5857 149.798 99.5857C149.798 99.5857 141.647 94.8613 139.337 93.3212C139.127 93.1947 138.93 93.0467 138.751 92.8797C138.349 92.3519 136.596 92.3412 136.596 92.3412C136.412 91.1852 136.236 89.8569 136.179 88.6543C136.179 88.525 136.179 88.3958 136.161 88.2666C138.737 86.7451 140.677 84.3462 141.625 81.5103C141.668 81.3739 141.704 81.2303 141.744 81.0938C141.898 81.043 142.04 80.9606 142.161 80.8518C142.281 80.743 142.378 80.6102 142.444 80.462C142.653 79.9989 142.656 79.4568 142.915 79.026C143.217 78.5163 143.792 78.2434 144.244 77.8593C145.387 76.89 145.681 75.2566 145.627 73.7703C145.591 72.5677 145.397 71.3543 145.473 70.1588L145.494 69.8573C145.516 69.6778 145.541 69.4983 145.574 69.326C145.75 68.4357 146.134 67.5956 146.35 66.7125C146.565 65.8294 146.587 64.8349 146.084 64.0739C145.347 62.9574 143.813 62.7348 142.466 62.6199C140.939 62.4907 139.574 62.6594 138.597 61.3922C138.139 60.7298 137.625 60.1088 137.059 59.5362C136.858 59.3495 134.903 58.1576 134.903 58.0786C132.996 57.1958 130.834 57.0301 128.814 57.612C127.801 57.9063 126.845 58.3874 125.818 58.6279C123.601 59.152 121.05 58.5848 119.168 59.8521C118.119 60.5701 117.49 61.7117 116.901 62.8246C116.422 63.7412 115.936 64.6566 115.442 65.5709C114.648 67.0751 113.84 68.6044 113.506 70.2701C113.435 70.6326 113.392 70.9998 113.376 71.3686V71.3866C113.376 71.5194 113.376 71.6523 113.376 71.7851V71.9538C113.376 72.0795 113.376 72.2015 113.398 72.3128C113.419 72.4241 113.416 72.46 113.427 72.5354C113.437 72.6108 113.455 72.7795 113.477 72.8944C113.499 73.0093 113.542 73.2103 113.585 73.3683C113.603 73.4365 113.628 73.5011 113.649 73.5657C113.685 73.6878 113.728 73.8062 113.775 73.9247C113.8 73.9857 113.825 74.0504 113.854 74.1114C113.908 74.237 113.973 74.3591 114.037 74.4704C114.066 74.5206 114.088 74.5673 114.116 74.614C114.217 74.7809 114.327 74.9416 114.447 75.095C115.216 76.0535 116.347 76.6638 117.185 77.5613C117.185 77.5972 117.185 77.6331 117.185 77.6654C117.185 77.7659 117.185 77.8629 117.185 77.9634C117.229 79.965 117.762 81.9254 118.738 83.6742C119.713 85.4229 121.101 86.907 122.782 87.9973C122.782 88.1337 122.8 88.2737 122.807 88.4102C122.877 89.4758 122.864 90.5452 122.767 91.6088C122.621 91.4366 122.438 91.2995 122.232 91.2075C122.025 91.1156 121.801 91.0711 121.575 91.0775C121.42 91.07 121.266 91.0833 121.115 91.117L121.083 91.0919V91.1242C120.292 91.318 119.319 92.1401 118.388 94.4772C118.388 94.4772 115.557 97.6651 113.402 97.5322C111.246 97.3994 105.789 100.849 105.789 100.849C105.789 100.849 100.464 104.303 99.322 107.821C98.6834 109.816 97.9178 111.768 97.0299 113.665L90.4482 127.218L89.2339 137.969C89.2339 137.969 89.9057 142.751 89.7728 143.48C89.6399 144.209 92.5355 150.782 92.5355 150.782C92.5355 150.782 102.103 167.579 106.011 168.441L106.292 168.244C106.459 168.331 106.636 168.397 106.82 168.441L107.625 167.874C107.673 168.506 107.652 169.142 107.563 169.769C107.025 171.428 107.765 182.252 108.706 184.373C109.647 186.495 109.313 214.313 109.313 214.313L109.18 216.769C109.18 216.769 109.18 216.848 109.213 216.984L109.18 217.566L109.277 217.616C109.378 218.395 109.345 219.185 109.18 219.953C108.842 221.03 108.706 224.074 108.706 224.074C108.706 224.074 106.015 241.263 107.29 244.717C108.566 248.17 109.651 251.954 109.651 251.954C109.651 251.954 110.998 256.262 109.715 256.998C108.433 257.734 104.786 258.969 105.537 260.764C106.22 262.422 108.81 266.867 109.195 267.517L109.162 267.858L108.634 273.576C108.72 274.331 108.925 275.068 109.241 275.759C109.82 277.005 110.944 278.297 113.082 278.157C113.441 278.132 113.858 278.089 114.26 278.035C118.173 277.511 122.99 275.766 122.99 275.766C122.74 275.607 122.511 275.418 122.308 275.203V275.203C122.115 275.016 121.963 274.793 121.86 274.546C121.757 274.299 121.705 274.034 121.708 273.767C121.765 272.726 119.814 267.764 119.329 266.544C119.254 266.368 119.214 266.267 119.214 266.267C119.214 266.267 123.662 261.622 122.922 257.504C122.922 257.504 118 254.632 119.62 253.056C121.241 251.48 124.136 246.953 124.136 246.953C124.136 246.953 124.269 230.027 124.136 227.499C123.998 225.745 124.081 223.981 124.384 222.247C124.438 221.985 124.503 221.73 124.571 221.479C126.812 221.813 129.074 221.985 131.34 221.992C132.166 221.992 133.006 221.992 133.854 221.942C133.854 222.181 133.865 222.44 133.887 222.718C134.074 226.911 134.422 234.263 134.706 236.995C135.108 240.911 137.332 251.466 137.332 251.466C137.332 251.466 133.089 254.187 138.072 260.893C138.072 260.893 138.072 263.323 137.742 263.675C137.389 264.825 137.104 265.995 136.89 267.179C136.682 268.443 136.596 269.721 136.933 270.385C137.742 271.972 142.592 271.842 142.592 271.842L142.71 271.821C143.626 271.726 144.551 271.814 145.432 272.08C146.314 272.346 147.133 272.783 147.844 273.368C149.687 274.847 156.682 274.197 160.469 273.727C161.952 273.54 162.944 273.368 162.944 273.368C162.992 273.2 163.009 273.025 162.994 272.851C162.955 271.921 162.225 269.882 157.282 268.062C157.282 268.062 152.633 264.939 152.698 262.218H152.601H152.062C152.453 262.196 152.705 262.218 152.705 262.218C152.705 262.218 150.883 255.576 151.627 255.038C152.371 254.499 150.143 247.14 150.143 247.14C150.143 247.14 148.868 234.791 148.8 233.925C148.803 233.183 148.915 232.445 149.134 231.735L148.8 224.965C148.8 224.965 148.735 222.714 148.8 221.982C148.789 221.346 148.737 220.712 148.645 220.082C148.613 219.831 148.581 219.569 148.545 219.311C150.287 218.869 151.419 218.46 151.419 218.46L151.218 194.892C152.698 192.02 152.971 185.719 152.964 181.25C152.964 178.378 152.834 176.253 152.834 176.253L154.857 172.954C154.857 172.954 155.324 169.005 154.584 168.139C154.257 167.748 154.404 167.342 154.674 167.009C154.814 166.898 154.961 166.797 155.116 166.707C155.116 166.707 155.094 166.675 155.069 166.628C155.21 166.51 155.36 166.403 155.518 166.309C155.518 166.309 154.799 165.196 155.442 164.725C156.046 165.135 156.585 165.443 156.994 165.695C156.966 165.957 156.937 166.108 156.937 166.108L157.109 165.749C157.505 165.971 157.745 166.108 157.745 166.108C157.745 166.108 160.914 159.8 160.846 158.87C160.778 157.94 163.001 154.024 163.001 154.024C163.001 154.024 163.271 151.967 164.485 151.105C165.699 150.244 165.426 144.001 165.426 144.001C165.426 144.001 165.764 140.748 166.572 139.42C167.381 138.092 165.836 136.3 165.836 136.3ZM105.207 133.532L105.268 135.036C104.909 134.458 104.65 134.042 104.65 134.042L105.207 133.532Z" fill="url(#paint0_linear_1337_119070)"/>
<path d="M157.918 163.382L157.142 166.685C157.142 166.685 150.927 163.515 149.806 159.487C148.685 155.459 151.681 153.93 151.681 153.93L157.472 156.382L157.918 163.382Z" fill="white"/>
<path opacity="0.1" d="M157.918 163.382L157.142 166.685C157.142 166.685 150.927 163.515 149.806 159.487C148.685 155.459 151.681 153.93 151.681 153.93L157.472 156.382L157.918 163.382Z" fill="black"/>
<path d="M123.037 275.787C123.037 275.787 117.289 277.898 113.337 278.164C111.239 278.304 110.136 277.019 109.568 275.78C109.258 275.092 109.058 274.359 108.975 273.608L109.489 267.918L109.762 264.888L118.158 262.709L119.347 266.342L119.459 266.619C119.936 267.832 121.851 272.768 121.794 273.799C121.791 274.062 121.842 274.324 121.944 274.568C122.045 274.811 122.194 275.032 122.383 275.217C122.576 275.434 122.795 275.626 123.037 275.787V275.787Z" fill="white"/>
<path d="M162.301 272.894C162.315 273.067 162.298 273.241 162.25 273.407C162.25 273.407 149.956 275.457 147.442 273.407C146.732 272.808 145.906 272.364 145.015 272.103C144.124 271.843 143.189 271.771 142.268 271.892C142.268 271.892 137.512 272.022 136.718 270.456C136.387 269.799 136.473 268.525 136.678 267.268C136.887 266.091 137.165 264.927 137.512 263.783L137.702 263.632L138.834 262.724L152.083 262.332H152.184C152.119 265.039 156.682 268.144 156.682 268.144C161.528 269.939 162.243 271.968 162.301 272.894Z" fill="white"/>
<path opacity="0.1" d="M162.301 272.894C162.313 273.067 162.295 273.241 162.247 273.407C162.247 273.407 149.956 275.457 147.442 273.407C146.733 272.809 145.907 272.365 145.017 272.104C144.127 271.843 143.192 271.771 142.272 271.892C142.272 271.892 137.511 272.022 136.721 270.456C136.391 269.796 136.473 268.525 136.678 267.268C138.51 267.452 141.402 267.907 142.538 268.995C144.255 270.65 147.165 272.302 148.95 272.431C150.348 272.521 158.708 272.786 162.301 272.894Z" fill="black"/>
<path opacity="0.1" d="M123.037 275.787C123.037 275.787 117.289 277.898 113.337 278.164C111.239 278.304 110.136 277.019 109.572 275.777C111.034 276.268 113.064 276.785 114.131 276.311C115.395 275.751 119.879 275.389 122.394 275.234C122.585 275.444 122.801 275.629 123.037 275.787V275.787Z" fill="black"/>
<path d="M131.566 105.677C126.823 103.836 120.723 97.7509 122.246 94.9076C122.585 94.1901 122.786 93.4158 122.839 92.6244C122.937 91.5502 122.952 90.4699 122.882 89.3935C122.776 87.6304 122.563 85.8754 122.246 84.1378C122.246 84.1378 137.052 84.4716 136.189 86.6507C135.938 87.2897 135.898 88.399 135.967 89.6411C136.035 90.8833 136.215 92.287 136.401 93.4752C136.66 95.1051 136.919 96.3472 136.919 96.3472C136.919 96.3472 136.013 97.6144 135.482 97.6827C134.95 97.7509 138.37 108.302 131.566 105.677Z" fill="#CF6F80"/>
<path opacity="0.1" d="M119.448 266.619L119.336 266.741C114.91 261.392 109.557 268.058 109.557 268.058L109.478 267.918L109.751 264.888L118.147 262.709L119.336 266.342L119.448 266.619Z" fill="black"/>
<path opacity="0.1" d="M152.187 262.71C152.187 262.71 148.954 262.641 147.229 264.164C145.505 265.686 137.17 264.494 137.529 264.164C137.636 264 137.7 263.812 137.716 263.618L138.848 262.71L152.097 262.318C152.148 262.559 152.187 262.71 152.187 262.71Z" fill="black"/>
<path d="M124.955 220.703C124.714 221.298 124.531 221.915 124.409 222.545C124.109 224.27 124.026 226.026 124.161 227.772C124.294 230.285 124.161 247.126 124.161 247.126C124.161 247.126 121.319 251.617 119.735 253.2C118.151 254.783 122.968 257.626 122.968 257.626C123.687 261.719 119.333 266.343 119.333 266.343C114.906 260.993 109.553 267.664 109.553 267.664C109.553 267.664 106.643 262.638 105.918 260.843C105.192 259.048 108.759 257.806 110.013 257.077C111.267 256.348 109.952 252.051 109.952 252.051C109.952 252.051 108.892 248.285 107.635 244.849C106.378 241.414 109.022 224.311 109.022 224.311C109.022 224.311 109.158 221.274 109.485 220.215C109.65 219.451 109.683 218.664 109.582 217.889C109.561 217.627 109.536 217.408 109.518 217.261C109.5 217.113 109.485 217.045 109.485 217.045L109.536 216.959L111.332 213.613C111.332 213.613 125.817 218.596 124.955 220.703Z" fill="#5AD6F3"/>
<path d="M152.187 262.314C152.187 262.314 148.954 262.246 147.23 263.75C145.505 265.254 137.17 264.081 137.529 263.75C137.889 263.42 137.86 260.975 137.86 260.975C132.97 254.305 137.141 251.598 137.141 251.598C137.141 251.598 134.957 241.098 134.562 237.203C134.285 234.481 133.944 227.169 133.761 222.994C133.682 221.199 133.635 219.964 133.635 219.964L137.63 219.159L138.144 219.055L147.779 217.124C147.779 217.124 148.045 218.919 148.225 220.387C148.314 221.014 148.365 221.646 148.376 222.279C148.311 222.997 148.376 225.244 148.376 225.244L148.703 231.983C148.489 232.69 148.379 233.424 148.376 234.162C148.44 235.02 149.694 247.305 149.694 247.305C149.694 247.305 151.875 254.635 151.131 255.163C150.387 255.691 152.187 262.314 152.187 262.314Z" fill="#5AD6F3"/>
<path opacity="0.1" d="M136.189 86.6507C135.938 87.2897 135.898 88.399 135.967 89.6412C133.984 90.8344 131.704 91.4446 129.389 91.4014C127.075 91.3582 124.819 90.6635 122.882 89.397C122.776 87.6328 122.563 85.8766 122.246 84.1378C122.246 84.1378 137.052 84.4644 136.189 86.6507Z" fill="black"/>
<path d="M141.913 78.7165C141.916 80.0101 141.712 81.296 141.309 82.5254C140.409 85.2802 138.563 87.6284 136.098 89.1549C133.633 90.6814 130.707 91.2879 127.838 90.8674C124.969 90.4468 122.34 89.0261 120.418 86.8565C118.495 84.6868 117.402 81.9079 117.332 79.0109C117.332 78.9104 117.332 78.817 117.332 78.7165C117.304 77.0858 117.601 75.4659 118.207 73.9512C118.812 72.4365 119.713 71.0574 120.857 69.8944C122.001 68.7313 123.366 67.8076 124.871 67.177C126.376 66.5464 127.992 66.2217 129.624 66.2217C131.256 66.2217 132.872 66.5464 134.377 67.177C135.882 67.8076 137.247 68.7313 138.391 69.8944C139.535 71.0574 140.436 72.4365 141.042 73.9512C141.647 75.4659 141.944 77.0858 141.916 78.7165H141.913Z" fill="#CF6F80"/>
<path opacity="0.1" d="M131.566 105.677C126.823 103.835 120.723 97.7505 122.246 94.9072C122.585 94.1897 122.786 93.4154 122.839 92.624L129.331 97.9551L133.348 101.247L136.401 93.4784C136.66 95.1083 136.919 96.3504 136.919 96.3504C136.919 96.3504 136.013 97.6176 135.482 97.6858C134.95 97.7541 138.37 108.301 131.566 105.677Z" fill="black"/>
<path d="M148.354 129.238L142.933 220.244L135.862 220.707L117.554 167.938L120.558 105.29L121.19 92.0536L129.331 98.7345L133.351 102.026L136.495 94.0316L142.34 99.1222L148.354 129.238Z" fill="#5AD6F3"/>
<path opacity="0.1" d="M124.955 220.703C124.714 221.298 124.532 221.915 124.409 222.545C119.265 221.751 114.268 220.191 109.586 217.917L109.489 217.867L109.521 217.289L109.539 216.988L111.336 213.642C111.336 213.642 125.818 218.596 124.955 220.703Z" fill="black"/>
<path opacity="0.1" d="M137.712 222.559C136.397 222.783 135.071 222.934 133.739 223.012C133.66 221.217 133.613 219.982 133.613 219.982L137.608 219.178L137.712 222.559Z" fill="black"/>
<path opacity="0.1" d="M148.203 220.405C145.649 221.069 141.704 221.816 138.172 221.349L138.122 219.073L147.757 217.142C147.757 217.142 148.023 218.919 148.203 220.405Z" fill="black"/>
<path opacity="0.1" d="M138.108 221.766C123.378 224.279 109.888 217.074 109.888 217.074L110.017 214.633C110.017 214.633 110.351 186.958 109.424 184.836C108.497 182.714 107.775 171.955 108.3 170.304C108.824 168.652 106.385 143.889 106.385 143.889L105.99 133.837L91.5258 127.982L97.9926 114.512C98.866 112.624 99.6172 110.681 100.242 108.697C101.366 105.2 106.586 101.764 106.586 101.764C106.586 101.764 111.939 98.3324 114.055 98.4617C116.171 98.5909 118.945 95.4246 118.945 95.4246C120.993 90.2084 122.846 92.5705 122.846 92.5705C122.846 92.8182 122.846 92.5706 122.746 93.3424C122.027 99.0684 134.364 117.162 134.54 117.481L135.715 146.079L136.904 182.269L138.108 221.766Z" fill="black"/>
<path d="M137.713 221.766C122.983 224.279 109.489 217.074 109.489 217.074L109.622 214.633C109.622 214.633 109.956 186.958 109.026 184.836C108.095 182.714 107.377 171.955 107.905 170.304C108.433 168.652 105.99 143.889 105.99 143.889L105.591 133.837L91.1199 127.96L97.5866 114.491C98.4582 112.602 99.2093 110.659 99.8356 108.675C100.956 105.178 106.18 101.743 106.18 101.743C106.18 101.743 111.533 98.3109 113.646 98.4401C115.758 98.5693 118.535 95.403 118.535 95.403C120.587 90.1868 122.846 92.549 122.846 92.549C122.846 92.7967 122.631 92.908 122.746 93.3208C124.327 98.8745 133.969 117.14 134.145 117.46L135.334 146.057L136.524 182.248L137.713 221.766Z" fill="white"/>
<path opacity="0.1" d="M133.743 118.274C132.158 117.614 123.766 108.039 123.766 108.039V105.86C123.461 105.142 121.646 105.58 120.173 106.083L120.806 92.8467L121.524 93.4426C123.098 98.9927 133.559 117.955 133.743 118.274Z" fill="black"/>
<path d="M134.142 117.481C132.554 116.821 124.161 107.246 124.161 107.246V105.067C123.856 104.349 122.042 104.787 120.569 105.29L121.205 92.0536L121.923 92.6495C123.5 98.1996 133.966 117.165 134.142 117.481Z" fill="white"/>
<path opacity="0.1" d="M109.888 165.231C110.085 165.231 120.13 164.176 120.13 164.176C120.13 164.176 126.213 176.127 125.814 179.035C125.415 181.942 124.693 184.516 122.246 184.061C119.8 183.605 109.079 184.42 109.079 184.42L109.888 165.231Z" fill="black"/>
<path d="M109.489 164.438C109.687 164.438 119.732 163.383 119.732 163.383C119.732 163.383 125.81 175.337 125.415 178.242C125.02 181.146 124.291 183.723 121.848 183.268C119.405 182.812 108.681 183.627 108.681 183.627L109.489 164.438Z" fill="white"/>
<path d="M117.059 158.827C117.059 158.827 126.277 163.778 126.475 165.289C126.672 166.8 121.783 164.629 120.727 164.366C120.031 164.199 119.324 164.089 118.611 164.036L111.565 164.226L117.059 158.827Z" fill="#CF6F80"/>
<path opacity="0.1" d="M131.171 118.892C131.706 118.892 132.141 118.458 132.141 117.922C132.141 117.387 131.706 116.953 131.171 116.953C130.635 116.953 130.201 117.387 130.201 117.922C130.201 118.458 130.635 118.892 131.171 118.892Z" fill="black"/>
<path d="M131.171 118.497C131.706 118.497 132.141 118.063 132.141 117.528C132.141 116.993 131.706 116.559 131.171 116.559C130.635 116.559 130.201 116.993 130.201 117.528C130.201 118.063 130.635 118.497 131.171 118.497Z" fill="#3F3D56"/>
<path opacity="0.1" d="M132.956 160.851C133.492 160.851 133.926 160.417 133.926 159.882C133.926 159.347 133.492 158.913 132.956 158.913C132.42 158.913 131.986 159.347 131.986 159.882C131.986 160.417 132.42 160.851 132.956 160.851Z" fill="black"/>
<path d="M132.956 160.453C133.492 160.453 133.926 160.019 133.926 159.484C133.926 158.949 133.492 158.515 132.956 158.515C132.42 158.515 131.986 158.949 131.986 159.484C131.986 160.019 132.42 160.453 132.956 160.453Z" fill="#3F3D56"/>
<path opacity="0.1" d="M132.137 139.872C132.673 139.872 133.107 139.438 133.107 138.903C133.107 138.368 132.673 137.934 132.137 137.934C131.601 137.934 131.167 138.368 131.167 138.903C131.167 139.438 131.601 139.872 132.137 139.872Z" fill="black"/>
<path d="M132.137 139.477C132.673 139.477 133.107 139.043 133.107 138.508C133.107 137.972 132.673 137.538 132.137 137.538C131.601 137.538 131.167 137.972 131.167 138.508C131.167 139.043 131.601 139.477 132.137 139.477Z" fill="#3F3D56"/>
<path d="M154.497 163.835C154.497 163.835 155.159 164.826 154.497 165.289C153.836 165.752 154.562 166.872 154.562 166.872C154.562 166.872 152.913 167.838 153.639 168.706C154.365 169.575 153.905 173.499 153.905 173.499L151.922 176.78C151.922 176.78 152.04 178.895 152.047 181.752C152.047 186.211 151.785 192.479 150.334 195.337L150.535 218.783C150.535 218.783 143.59 221.317 137.777 220.545L136.915 182.922C136.915 182.922 138.173 161.587 138.636 157.495C138.907 155.37 139.018 153.228 138.967 151.087C138.967 151.087 138.769 144.682 138.104 141.71C138.104 141.71 137.386 128.833 137.314 125.268C137.282 123.563 137.371 118.587 137.472 113.855C137.583 108.682 137.709 103.804 137.709 103.804L136.398 93.4357C136.398 93.4357 137.709 93.3029 138.104 93.8306C138.281 93.9959 138.474 94.1437 138.679 94.2722V94.2722C140.942 95.8015 148.94 100.504 148.94 100.504C148.94 100.504 153.366 102.263 154.426 104.784C155.485 107.304 156.222 109.092 156.736 109.81C157.249 110.528 157.53 113.902 157.53 113.902C157.53 113.902 159.053 120.113 160.242 121.165C161.431 122.216 162.301 128.908 162.301 128.908L151.792 137.165C151.792 137.165 150.869 150.9 150.671 151.431C150.474 151.963 154.497 163.835 154.497 163.835Z" fill="white"/>
<path d="M154.896 163.835C154.896 163.835 155.554 164.826 154.896 165.289C154.239 165.752 154.957 166.872 154.957 166.872C154.957 166.872 153.319 167.848 154.038 168.717C154.756 169.586 154.303 173.51 154.303 173.51L152.32 176.791C152.32 176.791 152.439 178.905 152.45 181.763C152.45 186.222 152.187 192.49 150.736 195.347L150.934 218.793C150.934 218.793 143.978 221.328 138.173 220.556L137.314 182.933C137.314 182.933 138.571 161.598 139.035 157.506C139.306 155.381 139.416 153.239 139.362 151.098C139.362 151.098 139.164 144.693 138.503 141.721C138.503 141.721 137.785 128.843 137.709 125.279C137.677 123.573 137.77 118.598 137.867 113.866C137.979 108.693 138.104 103.814 138.104 103.814L136.373 93.3065C136.373 93.3065 138.104 93.3065 138.503 93.8414C138.678 94.0085 138.871 94.1566 139.078 94.2829C141.341 95.8122 149.342 100.515 149.342 100.515C149.342 100.515 153.765 102.274 154.824 104.794C155.884 107.314 156.621 109.102 157.138 109.82C157.655 110.538 157.928 113.913 157.928 113.913C157.928 113.913 159.452 120.123 160.641 121.175C161.83 122.227 162.689 128.904 162.689 128.904L152.18 137.161C152.18 137.161 151.257 150.896 151.056 151.428C150.855 151.959 154.896 163.835 154.896 163.835Z" fill="white"/>
<path opacity="0.1" d="M142.311 106.862L143.26 109.626L138.266 114.652C138.377 109.483 138.503 104.6 138.503 104.6L136.771 94.0927C136.771 94.0927 138.503 94.0926 138.902 94.6276C139.077 94.7943 139.269 94.9412 139.477 95.0655L143.723 107.307L142.311 106.862Z" fill="black"/>
<path d="M141.912 106.068L142.864 108.833L137.871 113.858C137.982 108.685 138.108 103.807 138.108 103.807L136.373 93.2988C136.373 93.2988 138.108 93.2988 138.503 93.8337C138.679 93.9999 138.872 94.1479 139.078 94.2753L143.328 106.513L141.912 106.068Z" fill="white"/>
<path opacity="0.1" d="M141.913 78.7165C141.916 80.0101 141.712 81.296 141.309 82.5254C141.241 82.536 141.172 82.5329 141.105 82.5162C141.039 82.4996 140.976 82.4698 140.921 82.4285C140.828 79.1975 139.236 76.164 137.278 73.5829C136.728 72.8035 136.062 72.1134 135.302 71.5366C134.534 70.9601 133.579 70.6901 132.622 70.7791C131.544 70.9263 130.592 71.6586 129.504 71.752C128.067 71.8705 126.78 70.876 125.354 70.8258C124.774 70.8313 124.202 70.9603 123.676 71.2042C123.15 71.4481 122.683 71.8013 122.304 72.2402C121.555 73.126 120.998 74.1578 120.669 75.2701C120.105 76.9568 119.797 78.7189 119.757 80.4971C119.739 81.5023 119.642 82.7624 118.708 83.1285C118.778 82.3893 118.694 81.6435 118.461 80.9384C118.228 80.2333 117.851 79.5843 117.353 79.0324L117.332 79.0109C117.332 78.9104 117.332 78.817 117.332 78.7165C117.304 77.0858 117.601 75.4659 118.207 73.9512C118.812 72.4365 119.713 71.0574 120.857 69.8944C122.001 68.7313 123.366 67.8076 124.871 67.177C126.376 66.5464 127.992 66.2217 129.624 66.2217C131.256 66.2217 132.872 66.5464 134.377 67.177C135.882 67.8076 137.247 68.7313 138.391 69.8944C139.535 71.0574 140.436 72.4365 141.042 73.9512C141.647 75.4659 141.944 77.0858 141.916 78.7165H141.913Z" fill="black"/>
<path d="M134.713 59.2127C132.846 58.3352 130.723 58.1692 128.742 58.746C127.747 59.0404 126.809 59.5178 125.8 59.7583C123.644 60.2789 121.129 59.7153 119.279 60.9753C118.251 61.6933 117.633 62.8278 117.059 63.9299L115.622 66.6654C114.838 68.1624 114.048 69.6846 113.721 71.3324C113.394 72.9801 113.592 74.8254 114.637 76.1501C115.399 77.1158 116.523 77.7225 117.35 78.6307C117.845 79.1832 118.22 79.8319 118.453 80.5361C118.685 81.2403 118.769 81.9849 118.701 82.7233C119.638 82.3643 119.728 81.1006 119.75 80.0954C119.79 78.3172 120.097 76.5552 120.662 74.8685C120.99 73.7558 121.547 72.7238 122.297 71.8385C122.676 71.4 123.143 71.047 123.669 70.8032C124.195 70.5593 124.767 70.4301 125.347 70.4241C126.784 70.4744 128.074 71.4652 129.496 71.3467C130.574 71.257 131.53 70.521 132.615 70.3774C133.571 70.287 134.527 70.5572 135.295 71.1349C136.054 71.7108 136.72 72.4011 137.267 73.1812C139.229 75.7624 140.82 78.7887 140.914 82.0268C141.32 82.3248 141.905 81.9371 142.106 81.4776C142.308 81.018 142.315 80.4796 142.57 80.0416C142.865 79.5354 143.429 79.2662 143.87 78.8856C144.991 77.9199 145.272 76.2937 145.228 74.8182C145.185 73.3427 144.898 71.8457 145.178 70.3954C145.347 69.5051 145.728 68.6722 145.936 67.7927C146.145 66.9131 146.17 65.9259 145.678 65.1684C144.959 64.0555 143.447 63.8365 142.128 63.7324C140.63 63.6032 139.29 63.7683 138.334 62.5083C137.886 61.8507 137.381 61.2333 136.825 60.663C136.635 60.4763 134.713 59.2917 134.713 59.2127Z" fill="#512E4E"/>
<path opacity="0.1" d="M95.6646 134.917L91.9104 127.981L90.7212 138.683C90.7212 138.683 91.3822 143.436 91.2493 144.165C91.1164 144.894 93.9581 151.427 93.9581 151.427C93.9581 151.427 103.346 168.135 107.179 168.997L120.13 159.749L116.696 155.391C116.696 155.391 115.507 154.928 115.209 155.391C115.209 155.391 108.832 144.427 108.171 143.634C107.51 142.84 107.639 141.257 107.639 141.257C107.639 141.257 106.647 140.202 106.978 139.211C107.308 138.22 105.063 134.784 105.063 134.784L107.111 132.871L95.6646 134.917Z" fill="black"/>
<path d="M92.108 127.192L91.1164 127.982L89.9272 138.684C89.9272 138.684 90.5883 143.437 90.4554 144.166C90.3224 144.894 93.1678 151.428 93.1678 151.428C93.1678 151.428 102.552 168.136 106.385 168.997L119.34 159.75L115.902 155.391C115.902 155.391 114.713 154.928 114.415 155.391C114.415 155.391 108.038 144.428 107.377 143.634C106.716 142.841 106.849 141.258 106.849 141.258C106.849 141.258 105.857 140.202 106.187 139.212C106.518 138.221 104.269 134.785 104.269 134.785L106.317 132.872L92.108 127.192Z" fill="white"/>
<path opacity="0.1" d="M153.639 169.116C154.357 169.988 153.905 173.905 153.905 173.905L151.922 177.186C151.922 177.186 152.04 179.304 152.047 182.158L148.713 183.199C148.412 183.293 148.093 183.314 147.782 183.259C147.471 183.205 147.177 183.077 146.926 182.886C146.675 182.695 146.472 182.447 146.337 182.163C146.201 181.878 146.135 181.565 146.145 181.25L146.719 162.722L154.497 165.694C153.836 166.154 154.562 167.281 154.562 167.281C154.562 167.281 152.913 168.243 153.639 169.116Z" fill="black"/>
<path d="M154.038 168.717C154.756 169.589 154.303 173.51 154.303 173.51L152.32 176.791C152.32 176.791 152.439 178.905 152.45 181.763L149.055 182.822C148.76 182.914 148.447 182.933 148.143 182.88C147.838 182.826 147.551 182.701 147.305 182.514C147.059 182.327 146.861 182.084 146.728 181.806C146.595 181.527 146.53 181.221 146.54 180.912L147.118 162.327L154.9 165.299C154.235 165.759 154.961 166.883 154.961 166.883C154.961 166.883 153.319 167.848 154.038 168.717Z" fill="white"/>
<path d="M156.613 159.886C156.613 159.886 156.085 163.257 154.763 163.454C153.441 163.652 152.848 168.907 151.529 168.721C150.211 168.534 151.084 163.835 151.131 162.923C151.177 162.011 149.694 158.234 150.804 157.376C151.914 156.518 155.427 157.376 155.427 157.376L156.613 159.886Z" fill="#CF6F80"/>
<path opacity="0.1" d="M159.427 133.926L161.92 128.9C161.92 128.9 162.912 132.731 162.912 134.777C162.912 136.823 164.299 137.024 164.299 137.024C164.299 137.024 165.818 138.819 165.017 140.126C164.216 141.433 163.893 144.685 163.893 144.685C163.893 144.685 164.155 150.892 162.966 151.75C161.777 152.608 161.529 154.658 161.529 154.658C161.529 154.658 159.344 158.553 159.413 159.48C159.481 160.406 156.373 166.677 156.373 166.677C156.373 166.677 157.893 158.884 149.037 155.516C149.037 155.516 148.969 152.871 149.63 152.145C150.291 151.42 151.322 151.09 150.675 147.425C150.029 143.759 150.489 139.379 150.489 138.5C150.489 137.62 152.472 132.135 152.472 132.135L159.427 133.926Z" fill="black"/>
<path d="M160.505 128.183L162.682 128.901C162.682 128.901 163.677 132.731 163.677 134.777C163.677 136.824 165.064 137.025 165.064 137.025C165.064 137.025 166.583 138.82 165.782 140.126C164.981 141.433 164.661 144.686 164.661 144.686C164.661 144.686 164.924 150.893 163.734 151.751C162.545 152.609 162.279 154.659 162.279 154.659C162.279 154.659 160.099 158.554 160.167 159.48C160.235 160.406 157.124 166.678 157.124 166.678C157.124 166.678 158.647 158.884 149.788 155.517C149.788 155.517 149.723 152.871 150.384 152.146C151.045 151.42 152.076 151.09 151.43 147.425C150.783 143.759 151.243 139.38 151.243 138.5C151.243 137.621 153.226 132.135 153.226 132.135L160.505 128.183Z" fill="white"/>
<path opacity="0.1" d="M112.417 258.452C112.417 258.452 115.887 256.273 118.165 257.856C120.443 259.439 112.417 258.452 112.417 258.452Z" fill="black"/>
<path opacity="0.1" d="M139.383 251.713C139.383 251.713 142.455 251.318 145.035 254.093C147.614 256.868 139.383 251.713 139.383 251.713Z" fill="black"/>
<g opacity="0.1">
<path d="M143.878 78.0994C143.436 78.48 142.868 78.7528 142.574 79.259C142.322 79.6934 142.315 80.2283 142.114 80.695C141.912 81.1617 141.327 81.5422 140.921 81.2478C140.828 78.0169 139.232 74.9834 137.274 72.3986C136.727 71.6185 136.062 70.9282 135.302 70.3523C134.533 69.7746 133.576 69.5045 132.618 69.5948C131.541 69.742 130.592 70.4744 129.504 70.5641C128.066 70.6862 126.777 69.6918 125.35 69.6415C124.771 69.6473 124.199 69.7768 123.674 70.0213C123.148 70.2659 122.681 70.6199 122.304 71.0595C121.554 71.9435 120.997 72.9743 120.669 74.0859C120.105 75.7727 119.797 77.5347 119.757 79.3128C119.735 80.3144 119.642 81.5637 118.715 81.9371C118.736 82.2023 118.736 82.4688 118.715 82.7341C119.649 82.3751 119.742 81.1114 119.764 80.1062C119.804 78.328 120.112 76.566 120.676 74.8792C121.004 73.7666 121.561 72.7346 122.311 71.8493C122.689 71.4109 123.157 71.0579 123.682 70.814C124.207 70.5701 124.778 70.4409 125.358 70.4349C126.795 70.4851 128.088 71.476 129.511 71.3575C130.589 71.2678 131.544 70.5318 132.626 70.3882C133.583 70.2979 134.54 70.568 135.309 71.1457C136.069 71.7216 136.734 72.4119 137.282 73.192C139.24 75.7731 140.835 78.7995 140.928 82.0376C141.334 82.3356 141.92 81.9479 142.121 81.4883C142.322 81.0288 142.329 80.4903 142.581 80.0524C142.875 79.5462 143.443 79.2769 143.885 78.8964C145.006 77.9307 145.286 76.3045 145.243 74.829C145.243 74.7823 145.243 74.7356 145.243 74.6926C145.175 75.9706 144.833 77.2737 143.878 78.0994Z" fill="black"/>
<path d="M117.357 77.8445C116.531 76.9363 115.402 76.3296 114.644 75.3675C114.006 74.5158 113.642 73.4905 113.599 72.4273C113.486 73.7559 113.857 75.0806 114.644 76.1573C115.402 77.123 116.531 77.7297 117.357 78.6379C118.15 79.5263 118.627 80.6525 118.711 81.8402C118.766 81.1174 118.675 80.3909 118.442 79.7043C118.209 79.0177 117.84 78.3852 117.357 77.8445V77.8445Z" fill="black"/>
<path d="M145.943 67.0065C145.731 67.886 145.354 68.7225 145.182 69.6092C145.08 70.2017 145.042 70.8036 145.07 71.4042C145.082 71.062 145.12 70.7213 145.182 70.3846C145.354 69.4943 145.731 68.6614 145.943 67.7819C146.067 67.2968 146.107 66.7942 146.062 66.2957C146.04 66.5351 146 66.7727 145.943 67.0065V67.0065Z" fill="black"/>
</g>
<path opacity="0.1" d="M47.685 273.048C67.0186 273.048 82.6916 270.533 82.6916 267.43C82.6916 264.327 67.0186 261.812 47.685 261.812C28.3514 261.812 12.6784 264.327 12.6784 267.43C12.6784 270.533 28.3514 273.048 47.685 273.048Z" fill="#5AD6F3"/>
<path d="M48.8131 159.803H46.5605V210.482H48.8131V159.803Z" fill="#535461"/>
<path d="M62.9682 210.328L62.8281 212.611L62.6269 215.842L62.5443 217.185L62.3467 220.416L62.2605 221.758L62.0593 224.989L59.7888 261.632C59.6901 263.208 58.9939 264.688 57.8419 265.77C56.6899 266.852 55.1687 267.454 53.5879 267.455H41.7825C40.202 267.454 38.6812 266.852 37.5298 265.77C36.3784 264.688 35.683 263.208 35.5852 261.632L33.3254 224.964L33.1243 221.733L33.0416 220.39L32.8404 217.16L32.7578 215.817L32.5566 212.586L32.4129 210.303C32.3879 209.863 32.4531 209.423 32.6044 209.01C32.7557 208.597 32.9899 208.218 33.2926 207.899C33.5954 207.579 33.9604 207.325 34.3651 207.151C34.7698 206.977 35.2058 206.888 35.6463 206.889H59.7923C60.2312 206.892 60.6645 206.986 61.0658 207.164C61.467 207.341 61.8275 207.599 62.1251 207.922C62.4227 208.244 62.651 208.624 62.796 209.037C62.9411 209.451 62.9997 209.89 62.9682 210.328V210.328Z" fill="#3F3D56"/>
<path d="M62.8279 212.611L62.6267 215.832H32.7432L32.542 212.611H62.8279Z" fill="#9D9CB5"/>
<path d="M62.5439 217.174L62.3463 220.398H33.0269L32.8257 217.174H62.5439Z" fill="#9D9CB5"/>
<path d="M62.2603 221.744L62.0627 224.964H33.3109L33.1097 221.744H62.2603Z" fill="#9D9CB5"/>
<path d="M29.1039 178.798C42.2206 188.282 47.6958 203.116 47.6958 203.116C47.6958 203.116 31.8882 202.574 18.7679 193.089C5.64762 183.605 0.183228 168.774 0.183228 168.774C0.183228 168.774 15.9836 169.313 29.1039 178.798Z" fill="#5AD6F3"/>
<path d="M0.172447 168.774C0.172447 168.774 16.5836 177.875 21.8468 185.41C27.11 192.946 47.6958 203.116 47.6958 203.116" stroke="#535461" stroke-width="2" stroke-miterlimit="10"/>
<path d="M37.5717 159.692C44.7103 164.851 47.6958 172.924 47.6958 172.924C47.6958 172.924 39.0914 172.63 31.9493 167.471C24.8071 162.313 21.8288 154.235 21.8288 154.235C21.8288 154.235 30.4296 154.53 37.5717 159.692Z" fill="#5AD6F3"/>
<path d="M21.8288 154.235C21.8288 154.235 30.7601 159.189 33.6234 163.289C36.4868 167.389 47.6958 172.924 47.6958 172.924" stroke="#535461" stroke-width="2" stroke-miterlimit="10"/>
<path d="M58.0603 172.515C49.8583 181.522 48.123 193.293 48.123 193.293C48.123 193.293 59.6877 190.457 67.8825 181.447C76.0773 172.436 77.8197 160.668 77.8197 160.668C77.8197 160.668 66.2622 163.508 58.0603 172.515Z" fill="#5AD6F3"/>
<path d="M77.8271 160.672C77.8271 160.672 67.1427 169.905 64.4266 176.267C61.7106 182.628 48.1233 193.294 48.1233 193.294" stroke="#535461" stroke-width="2" stroke-miterlimit="10"/>
<path d="M359.145 169.345C359.145 169.345 353.213 139.857 355.484 136.188C355.484 136.188 355.566 132.778 355.43 128.431C355.43 128.265 355.43 128.1 355.43 127.932C355.829 128.198 356.246 128.438 356.677 128.65C358.769 129.724 361.17 130.033 363.467 129.525L361.67 127.526C361.239 127.048 360.79 126.531 360.697 125.9C360.603 125.268 360.862 124.704 361.085 124.141C362.791 119.833 362.881 114.415 359.594 111.127C356.817 108.363 356.141 104.794 353.127 102.271C350.925 100.422 349.714 97.7113 348.572 95.0907C347.605 92.8757 346.632 90.6427 346.078 88.2949C345.647 86.4604 345.475 84.5613 344.882 82.7699C344.289 80.9786 343.179 79.2374 341.444 78.4369C340.826 78.1533 340.14 77.9917 339.576 77.6148C338.836 77.1158 338.39 76.3044 337.855 75.5936C335.135 72.0037 326.028 74.1181 321.717 75.5757C320.545 75.9427 319.459 76.5436 318.526 77.3419L318.566 77.2773C318.598 77.2235 318.638 77.1696 318.674 77.1158C318.202 77.4971 317.794 77.9516 317.467 78.462C316.838 79.4564 316.576 80.616 316.051 81.693C315.419 82.9674 311.902 86.525 313.414 87.9574C313.52 88.0536 313.642 88.1313 313.773 88.1872C314.341 88.4233 314.966 88.4858 315.57 88.3667L315.505 88.521C314.988 89.7848 314.724 91.1372 314.725 92.5023C314.725 98.4006 319.593 103.182 325.604 103.182C326.734 103.183 327.857 103.01 328.934 102.669C328.959 102.805 328.981 102.942 329.006 103.078C329.006 103.132 329.024 103.186 329.031 103.24L328.841 103.506C328.831 103.489 328.821 103.474 328.809 103.459L323.168 111.335C322.306 111.942 317.341 115.532 317.061 118.224C316.766 121.172 316.471 124.622 316.471 124.622L316.432 125.361C316.185 125.567 315.897 125.717 315.587 125.801C315.277 125.884 314.952 125.9 314.636 125.846C312.875 125.559 312.875 132.308 312.875 132.308C312.875 132.308 311.704 133.385 310.899 132.451C310.095 131.518 307.968 134.681 307.968 134.681L294.639 135.255L294.334 135.273L293.615 133.051C293.538 132.816 293.371 132.622 293.151 132.51C292.931 132.397 292.676 132.376 292.44 132.451C292.385 132.47 292.331 132.492 292.279 132.52L292.228 132.548L292.135 132.613L292.088 132.656C292.063 132.679 292.039 132.704 292.016 132.731L291.973 132.782L291.952 132.803C291.869 132.918 291.814 133.05 291.791 133.19C291.769 133.329 291.78 133.472 291.822 133.607L292.44 135.514C289.868 136.03 287.238 137.488 289.383 141.502L278.512 139.495L282.029 142.446L300.186 146.19C299.945 146.621 300.103 147.245 300.854 148.125C304.088 151.92 309.98 152.95 312.351 153.216C312.977 154.615 313.759 155.94 314.682 157.165L314.478 160.945C314.478 160.945 308.474 189.758 307.375 191.219C307.93 190.59 308.438 189.922 308.895 189.219C307.152 195.139 304.716 203.242 304.077 204.455C303.049 206.394 302.097 214.238 303.269 214.74C303.628 214.895 304.655 214.819 306.121 214.708V215.358L306.056 239.981C306.056 239.981 306.351 255.084 305.543 256.524C304.734 257.963 304.519 260.982 304.519 260.982C304.519 260.982 301.285 266.938 298.724 269.333C298.706 269.351 298.687 269.368 298.666 269.383L298.587 268.823C298.587 268.823 295.508 272.707 288.697 272.488C288.697 272.488 284.598 275.152 290.676 275.296C296.755 275.439 304.519 275.08 304.519 275.08C304.519 275.08 309.94 266.823 314.481 267.9V274.158H315.871V267.8C316.516 267.376 317.068 266.825 317.494 266.181C317.919 265.538 318.209 264.814 318.347 264.055C318.466 263.273 318.379 262.473 318.094 261.735C317.809 260.996 317.337 260.345 316.723 259.844C316.447 259.595 316.226 259.292 316.073 258.953C315.921 258.615 315.84 258.248 315.836 257.877L315.785 257.92C315.785 257.795 315.753 257.665 315.739 257.532C315.34 254.302 314.84 247.635 316.604 242.702C319.022 235.939 319.755 226.519 317.995 220.911C317.427 219.119 316.96 217.296 316.597 215.451C316.554 215.218 316.515 214.995 316.479 214.787C317.682 214.95 318.874 215.189 320.046 215.505C324.124 216.629 333.044 216.837 340.661 216.776C340.679 216.984 340.7 217.203 340.725 217.422C340.861 218.944 341.145 220.449 341.573 221.917C342.529 224.788 342.967 237.45 342.967 237.45C342.967 237.45 344.199 247.861 343.528 252.097C343.168 254.452 342.809 256.818 342.604 259.195V259.241C342.604 259.241 340.585 264.985 339.109 268.105C339.073 268.184 339.033 268.263 338.997 268.338C338.604 268.374 338.216 268.46 337.844 268.593C337.844 268.593 335.864 272.542 333.892 273.195C331.92 273.849 332.574 275.999 337.039 275.209C341.505 274.42 348.248 273.773 348.248 273.773L348.539 269.745L349.912 268.029L349.552 272.047L351.015 271.759L350.821 266.874L353.066 264.066C353.066 264.066 355.778 261.654 351.747 256.908V257.012C351.704 256.944 351.665 256.872 351.618 256.804V256.782C350.95 255.748 350.418 253.82 351.392 250.399C353.152 244.217 354.176 238.606 354.176 238.606C354.176 238.606 358.106 223.575 353.382 216.463H353.59C353.106 215.463 352.764 214.399 352.574 213.304C352.55 213.175 352.528 213.042 352.509 212.906C356.005 212.705 359.436 212.073 362.234 210.709C362.224 210.694 360.539 175.025 359.145 169.345ZM314.765 144.467V144.539L314.046 144.575L314.765 144.467ZM312.3 144.808C312.182 144.834 312.072 144.887 311.977 144.962C311.668 145.399 311.474 145.906 311.413 146.438L310.292 146.186C310.292 146.186 309.505 146.018 308.374 145.827L307.838 145.289C309.311 145.167 310.842 144.987 312.3 144.808V144.808Z" fill="url(#paint1_linear_1337_119070)"/>
<path d="M349.387 266.924L348.959 272.011L350.392 271.724L350.177 266.206L349.387 266.924Z" fill="#1D2366"/>
<path d="M316.683 242.771C314.955 247.689 315.444 254.327 315.832 257.551C315.975 258.743 316.108 259.468 316.108 259.468C316.108 259.468 313.525 265.348 313.31 265.571C313.094 265.793 305.708 270.299 305.708 270.299L300.545 273.311C300.545 273.311 295.307 271.017 297.818 270.227C298.331 270.021 298.793 269.706 299.173 269.304C301.687 266.917 304.845 260.983 304.845 260.983C304.845 260.983 305.061 257.971 305.851 256.538C306.642 255.106 306.354 240.053 306.354 240.053L306.415 215.516V212.317L316.241 212.389C316.303 213.475 316.445 214.555 316.665 215.62C317.018 217.459 317.475 219.276 318.034 221.063C319.766 226.659 319.047 236.033 316.683 242.771Z" fill="#FFB0B1"/>
<path opacity="0.1" d="M316.108 259.467C316.108 259.467 313.525 265.348 313.31 265.57C313.094 265.793 305.708 270.298 305.708 270.298L300.545 273.31C300.545 273.31 295.307 271.016 297.818 270.227C298.331 270.021 298.793 269.706 299.173 269.304L299.395 270.873L301.116 270.801L315.846 257.558C315.975 258.742 316.108 259.467 316.108 259.467Z" fill="black"/>
<path d="M315.928 257.892L301.116 271.225L299.395 271.296L299.036 268.784C299.036 268.784 296.025 272.653 289.336 272.438C289.336 272.438 285.319 275.091 291.272 275.235C297.225 275.378 304.827 275.019 304.827 275.019C304.827 275.019 310.137 266.762 314.581 267.839V274.075H315.946V267.782C316.581 267.355 317.123 266.804 317.539 266.162C317.955 265.521 318.237 264.802 318.368 264.048C318.486 263.272 318.402 262.479 318.125 261.745C317.847 261.01 317.385 260.36 316.783 259.855C316.515 259.603 316.3 259.299 316.153 258.962C316.006 258.624 315.93 258.26 315.928 257.892V257.892Z" fill="#1D2366"/>
<path d="M350.752 250.439C349.796 253.849 350.317 255.77 350.971 256.8V256.822C351.81 258.094 352.393 259.517 352.688 261.011L352.746 261.334L346.006 271.153L342.349 272.589C342.349 272.589 336.468 270.582 337.542 270.008C337.811 269.868 338.232 269.121 338.713 268.091C340.15 264.985 342.133 259.256 342.133 259.256V259.209C342.342 256.843 342.672 254.485 343.039 252.137C343.696 247.911 342.489 237.54 342.489 237.54C342.489 237.54 342.058 224.929 341.124 222.06C340.702 220.602 340.422 219.106 340.287 217.594C340.093 215.799 340.05 214.32 340.05 214.32C340.05 214.32 343.923 208.935 351.022 214.751C351.589 215.215 352.089 215.756 352.505 216.359C357.409 223.331 353.461 238.689 353.461 238.689C353.461 238.689 352.473 244.275 350.752 250.439Z" fill="#FFB0B1"/>
<path opacity="0.1" d="M352.757 261.334L346.017 271.153L342.36 272.589C342.36 272.589 336.479 270.582 337.553 270.008C337.822 269.868 338.243 269.121 338.724 268.091C341.214 268.069 342.503 270.438 342.503 270.438L345.658 269.936C345.658 269.936 349.818 261.765 350.752 261.266C351.686 260.767 350.896 257.536 350.896 257.536V256.714C350.921 256.743 350.942 256.775 350.971 256.804V256.825C351.81 258.097 352.393 259.52 352.688 261.015L352.757 261.334Z" fill="black"/>
<path d="M342.719 270.65C342.719 270.65 340.923 267.354 337.481 268.571C337.481 268.571 335.545 272.52 333.608 273.159C331.672 273.798 332.318 275.952 336.694 275.166C341.07 274.38 347.666 273.73 347.666 273.73L347.953 269.713L352.401 264.052C352.401 264.052 355.053 261.65 351.108 256.922V257.744C351.108 257.744 351.898 260.975 350.964 261.474C350.03 261.973 345.884 270.147 345.884 270.147L342.719 270.65Z" fill="#1D2366"/>
<path opacity="0.1" d="M316.252 212.381C316.314 213.467 316.455 214.547 316.676 215.612C312.63 215.02 308.876 215.314 306.415 215.508V212.31L316.252 212.381Z" fill="black"/>
<path opacity="0.1" d="M352.905 217.253C352.905 217.253 347.156 217.533 340.302 217.591C340.108 215.796 340.064 214.316 340.064 214.316C340.064 214.316 343.937 208.932 351.036 214.747C351.604 215.211 352.104 215.753 352.52 216.356C352.631 216.662 352.76 216.961 352.905 217.253V217.253Z" fill="black"/>
<path d="M352.904 216.607C352.904 216.607 327.727 217.824 320.053 215.673C312.379 213.523 304.774 215.386 303.628 214.887C302.482 214.388 303.412 206.573 304.418 204.638C305.424 202.703 310.942 183.134 310.942 183.134L316.252 155.47L321.846 153.93L322.241 153.818L331.988 151.133L339.13 149.162C339.13 149.162 353.332 204.566 352.114 208.651C351.672 210.216 351.6 211.861 351.905 213.458C352.092 214.549 352.428 215.608 352.904 216.607V216.607Z" fill="#1D2366"/>
<path d="M297.743 136.551C297.743 136.551 292.714 141.936 296.522 144.937C300.33 147.938 302.834 145.224 302.834 145.224L297.743 136.551Z" fill="#C7DAF5"/>
<path opacity="0.1" d="M297.743 136.551C297.743 136.551 292.714 141.936 296.522 144.937C300.33 147.938 302.834 145.224 302.834 145.224L297.743 136.551Z" fill="black"/>
<path d="M338.379 101.147C338.379 101.147 337.79 101.707 336.903 102.532C335.638 103.713 333.766 105.44 332.106 106.887C329.807 108.887 327.91 110.355 328.589 109.102C329.268 107.849 329.139 105.666 328.801 103.624C328.776 103.487 328.754 103.351 328.729 103.218C328.45 101.718 328.079 100.236 327.619 98.7809C327.619 98.7809 331.334 93.9847 333.389 92.0928C334.154 91.3748 334.689 91.0804 334.722 91.5794C334.758 92.2508 335.261 93.7334 335.886 95.3058C335.904 95.3561 335.922 95.4027 335.943 95.453C336.36 96.53 336.831 97.6357 337.244 98.5906C337.876 100.055 338.379 101.147 338.379 101.147Z" fill="#FFB0B1"/>
<path opacity="0.1" d="M335.943 95.4536C335.594 97.3299 334.747 99.078 333.491 100.515C332.234 101.953 330.615 103.026 328.801 103.624C328.515 101.986 328.121 100.368 327.619 98.7815C327.619 98.7815 334.614 89.7528 334.722 91.5801C334.747 92.273 335.293 93.8094 335.943 95.4536Z" fill="black"/>
<path opacity="0.1" d="M328.104 106.036L329.009 104.762C329.009 104.762 329.609 108.416 331.815 106.804C334.021 105.193 334.129 118.935 334.129 118.935L331.761 154.307L314.653 153.284L315.138 136.192L317.075 127.576L321.864 115.051L324.713 110.911L328.104 106.036Z" fill="black"/>
<path d="M334.129 119.154L331.973 151.137L331.747 154.526L322.209 153.955L321.849 153.934L314.664 153.503L315.149 136.407L317.086 127.792L321.875 115.266L324.723 111.127L328.115 106.234L329.02 104.963C329.02 104.963 329.62 108.618 331.826 107.006L331.873 106.973C334.028 105.609 334.129 119.154 334.129 119.154Z" fill="#1D2366"/>
<path d="M317.326 124.798C317.326 124.798 316.468 126.593 314.743 126.302C313.019 126.011 313.022 132.764 313.022 132.764C313.022 132.764 311.876 133.841 311.086 132.908C310.296 131.974 308.212 135.13 308.212 135.13L295.156 135.704C295.156 135.704 300.966 138.357 299.827 146.384C299.827 146.384 319.55 145.164 320.197 143.3C320.844 141.437 317.326 124.798 317.326 124.798Z" fill="white"/>
<path opacity="0.03" d="M317.326 124.798C317.326 124.798 316.468 126.593 314.743 126.302C313.019 126.011 313.022 132.764 313.022 132.764C313.022 132.764 311.876 133.841 311.086 132.908C310.296 131.974 308.212 135.13 308.212 135.13L295.156 135.704C295.156 135.704 300.966 138.357 299.827 146.384C299.827 146.384 319.55 145.164 320.197 143.3C320.844 141.437 317.326 124.798 317.326 124.798Z" fill="black"/>
<path d="M279.385 139.922L282.827 142.858L311.158 148.807L307.644 145.224L279.385 139.922Z" fill="white"/>
<path d="M328.158 107.167C327.687 107.885 326.34 111.561 325.215 114.771C324.278 117.445 323.495 119.797 323.495 119.797C323.495 119.797 321.666 131.694 320.732 133.844C319.798 135.994 320.304 144.381 320.304 144.381L316.823 165.091C316.823 165.091 315.246 175.771 312.81 182.151C310.407 188.429 307.73 191.373 307.647 191.466C308.725 190.009 314.599 161.311 314.599 161.311L316.539 125.117C316.539 125.117 316.823 121.678 317.11 118.738C317.398 115.797 323.218 111.784 323.218 111.784L328.83 103.811C329.394 104.564 329.016 105.878 328.158 107.167Z" fill="white"/>
<path d="M313.525 153.682C313.525 153.682 305.262 153.323 301.26 148.52C297.258 143.717 310.511 146.603 310.511 146.603L313.956 147.393L313.525 153.682Z" fill="#FFB0B1"/>
<path opacity="0.1" d="M352.114 208.655C351.671 210.22 351.6 211.865 351.905 213.462C342.891 214.101 333.249 211.667 333.249 211.667C331.452 213.319 326.721 215.753 326.721 215.753L324.141 183.802C322.492 179.494 321.846 156.924 321.846 156.924C321.846 156.924 321.993 155.743 322.205 153.973C322.205 153.93 322.205 153.883 322.223 153.84C322.866 148.897 324.141 139.617 324.767 138.364C325.629 136.641 322.115 132.056 322.115 132.056L323.714 118.433L323.908 116.788C327.278 115.284 329.861 110.481 329.861 110.481L331.844 107.009C334 105.627 334.111 119.172 334.111 119.172L331.955 151.155L339.098 149.184C339.098 149.184 353.332 204.57 352.114 208.655Z" fill="black"/>
<path d="M361.365 210.863C351.539 215.738 333.68 211.222 333.68 211.222C331.884 212.873 327.153 215.307 327.153 215.307L324.569 183.356C322.924 179.048 322.277 156.478 322.277 156.478C322.277 156.478 324.354 139.638 325.216 137.918C325.468 137.416 325.345 136.669 325.047 135.865C323.581 132.037 323.042 127.918 323.474 123.842L324.163 117.987L324.354 116.346C327.727 114.839 330.31 110.035 330.31 110.035L332.107 106.89L335.412 101.096L336.978 98.3535L337.244 98.594L339.274 100.432C339.274 100.432 340.136 101.15 341.43 102.227C344.243 104.596 349.103 108.768 351.611 111.32C353.817 113.568 354.514 122.309 354.715 128.89C354.848 133.223 354.769 136.619 354.769 136.619C352.545 140.277 358.362 169.646 358.362 169.646C359.716 175.322 361.365 210.863 361.365 210.863Z" fill="white"/>
<path opacity="0.03" d="M342.503 109.963C342.503 109.963 335.76 122.79 336.543 127.665C337.326 132.541 339.554 138.058 338.479 139.347C338.11 139.835 337.633 140.232 337.085 140.505C336.538 140.779 335.934 140.922 335.321 140.923C334.244 140.995 331.37 143.002 331.37 143.217C331.37 143.433 328.715 143.433 326.34 144.438C323.965 145.443 320.459 146.014 320.459 146.014C320.459 146.014 313.633 145.798 312.997 146.444C312.361 147.091 311.707 150.957 313.069 154.041C314.43 157.125 315.943 159.426 317.085 159.846C318.228 160.266 325.478 157.839 331.359 157.265C337.24 156.69 343.624 152.034 343.624 152.034C343.624 152.034 350.655 149.521 351.887 145.296C353.119 141.07 350.382 117.847 350.382 117.847C350.382 117.847 348.312 107.023 342.503 109.963Z" fill="black"/>
<path opacity="0.03" d="M341.641 108.887C341.641 108.887 334.898 121.718 335.688 126.589C336.479 131.461 338.699 136.982 337.621 138.275C337.253 138.763 336.777 139.16 336.23 139.434C335.682 139.707 335.079 139.85 334.467 139.851C333.389 139.922 330.515 141.929 330.515 142.145C330.515 142.36 327.86 142.36 325.485 143.362C323.11 144.363 319.604 144.938 319.604 144.938C319.604 144.938 312.778 144.722 312.146 145.368C311.513 146.014 310.852 149.884 312.218 152.965C313.583 156.045 315.092 158.35 316.234 158.77C317.377 159.19 324.626 156.763 330.508 156.192C336.389 155.621 342.773 150.958 342.773 150.958C342.773 150.958 349.8 148.445 351.018 144.223C352.236 140.001 349.513 116.771 349.513 116.771C349.513 116.771 347.45 105.951 341.641 108.887Z" fill="black"/>
<path d="M342.292 109.318C342.292 109.318 335.548 122.148 336.339 127.02C337.129 131.891 339.349 137.413 338.275 138.702C337.908 139.191 337.431 139.589 336.883 139.863C336.335 140.138 335.73 140.281 335.117 140.281C334.04 140.353 331.165 142.36 331.165 142.572C331.165 142.783 328.514 142.787 326.136 143.792C323.757 144.797 320.255 145.368 320.255 145.368C320.255 145.368 313.429 145.153 312.793 145.799C312.157 146.445 311.503 150.315 312.865 153.395C314.226 156.475 315.739 158.78 316.881 159.2C318.024 159.62 325.274 157.193 331.155 156.619C337.036 156.045 343.42 151.388 343.42 151.388C343.42 151.388 350.451 148.875 351.683 144.65C352.915 140.425 350.196 117.201 350.196 117.201C350.196 117.201 348.098 106.396 342.292 109.318Z" fill="white"/>
<path opacity="0.1" d="M342.144 143.731C342.144 143.731 336.755 142.654 338.631 144.449C340.506 146.244 340.495 147.816 342.791 147.744C345.087 147.672 342.144 143.731 342.144 143.731Z" fill="black"/>
<path opacity="0.1" d="M351.251 182.352C351.251 182.352 348.816 183.999 353.475 187.798C358.135 191.596 351.251 182.352 351.251 182.352Z" fill="black"/>
<path opacity="0.1" d="M346.603 195.897C346.603 196.112 345.74 203.794 348.967 205.715C352.193 207.636 346.603 195.897 346.603 195.897Z" fill="black"/>
<path d="M295.379 135.686C292.778 135.775 287.159 136.569 290.073 142C292.649 146.807 296.978 143.594 299.414 141.157C298.819 138.884 297.375 136.926 295.379 135.686V135.686Z" fill="#FFB0B1"/>
<path d="M299.445 141.114L299.553 141.003L299.445 141.114Z" fill="#FFB0B1"/>
<path opacity="0.1" d="M341.429 102.446C338.67 104.331 336.356 105.921 335.904 106.252C334.668 107.167 332.311 112.541 330.791 115.284C329.581 117.492 325.647 118.059 324.163 118.199L324.354 116.558C327.727 115.05 330.31 110.247 330.31 110.247L336.978 98.5654L339.274 100.651C339.274 100.651 340.136 101.369 341.429 102.446Z" fill="black"/>
<path d="M341.429 102.231C338.67 104.116 336.356 105.706 335.904 106.04C334.668 106.952 332.311 112.326 330.791 115.069C329.581 117.277 325.647 117.844 324.163 117.984L324.353 116.343C327.727 114.835 330.31 110.032 330.31 110.032L336.978 98.3503L339.274 100.429C339.274 100.429 340.136 101.14 341.429 102.231Z" fill="#DCE7FF"/>
<path d="M336.119 93.0835C336.121 95.2385 335.467 97.3431 334.244 99.1182C332.8 101.217 330.65 102.729 328.186 103.38C325.721 104.031 323.105 103.777 320.812 102.665C318.519 101.553 316.7 99.6568 315.686 97.3198C314.673 94.9828 314.531 92.3601 315.287 89.9276C316.043 87.4951 317.646 85.414 319.807 84.0618C321.967 82.7096 324.54 82.176 327.061 82.5578C329.581 82.9396 331.88 84.2115 333.542 86.1427C335.205 88.0738 336.119 90.5364 336.119 93.0835V93.0835Z" fill="#FFB0B1"/>
<path opacity="0.1" d="M354.715 128.893C353.256 127.996 352.067 126.721 351.276 125.203C350.676 124.018 350.278 122.65 349.254 121.81C348.33 121.056 347.098 120.873 345.949 120.536C342.169 119.419 339 115.973 338.882 112.038C338.824 110.186 339.403 108.337 339.141 106.503C338.991 105.465 338.578 104.482 337.941 103.649C337.624 103.25 337.277 102.877 336.902 102.532C336.399 102.058 335.871 101.599 335.411 101.096C335.122 100.785 334.869 100.442 334.657 100.073C334.486 99.7715 334.348 99.4526 334.244 99.1218C333.525 96.9248 334.179 94.3185 333.389 92.0963L333.346 91.9742C333.047 91.1844 332.44 90.3946 331.596 90.3336C330.752 90.2726 330.03 90.9726 329.225 91.2849C327.54 91.9383 325.722 90.8254 324.317 89.691C322.913 88.5566 321.328 87.2606 319.543 87.5119C318.361 87.6806 317.427 88.4848 316.338 88.9012C316.092 88.9963 315.839 89.0696 315.58 89.1202C316.501 86.8245 318.194 84.921 320.367 83.7368C322.54 82.5526 325.058 82.1616 327.488 82.6309C329.919 83.1003 332.11 84.4008 333.685 86.3089C335.26 88.217 336.12 90.6137 336.119 93.0871C336.12 93.834 336.042 94.5789 335.886 95.3093C335.904 95.3595 335.922 95.4062 335.943 95.4565C336.36 96.5335 336.83 97.6392 337.244 98.5941L339.273 100.432C339.273 100.432 340.136 101.15 341.429 102.227C344.242 104.596 349.103 108.768 351.611 111.32C353.816 113.575 354.506 122.313 354.715 128.893Z" fill="black"/>
<path d="M316.213 82.3428C316.726 81.2981 316.981 80.1278 317.596 79.1369C318.497 77.701 320.071 76.7819 321.688 76.2255C325.909 74.7716 334.83 72.6607 337.495 76.2255C338.02 76.9435 338.454 77.7405 339.18 78.2359C339.733 78.6128 340.402 78.7744 341.009 79.058C342.708 79.8549 343.793 81.5925 344.372 83.3659C344.95 85.1394 345.122 87.042 345.546 88.8693C346.089 91.2135 347.041 93.4357 347.989 95.6435C349.107 98.2499 350.292 100.953 352.448 102.795C355.39 105.308 356.04 108.865 358.771 111.622C362.004 114.896 361.9 120.299 360.233 124.589C360.014 125.153 359.766 125.742 359.852 126.341C359.938 126.941 360.384 127.486 360.804 127.964L362.572 129.956C358.39 130.965 353.658 128.782 351.711 124.952C351.111 123.767 350.713 122.403 349.685 121.559C348.765 120.806 347.529 120.626 346.383 120.289C342.604 119.169 339.435 115.719 339.317 111.784C339.259 109.935 339.838 108.086 339.575 106.255C339.429 105.21 339.015 104.221 338.372 103.383C337.384 102.095 335.893 101.23 335.088 99.7935C333.727 97.3919 334.761 94.2722 333.78 91.6946C333.479 90.9048 332.875 90.115 332.031 90.054C331.187 89.993 330.464 90.693 329.656 91.0053C327.975 91.6587 326.157 90.5494 324.752 89.4114C323.347 88.2734 321.763 86.981 319.974 87.2359C318.792 87.401 317.862 88.2052 316.773 88.6252C315.968 88.9339 314.337 89.2104 313.633 88.5318C312.146 87.1641 315.591 83.6208 316.213 82.3428Z" fill="#591D4B"/>
<path opacity="0.1" d="M352.71 123.768C352.107 122.583 351.712 121.219 350.684 120.379C349.764 119.625 348.528 119.442 347.379 119.104C343.603 117.988 340.434 114.538 340.312 110.603C340.255 108.754 340.833 106.902 340.574 105.071C340.424 104.033 340.01 103.05 339.371 102.217C338.379 100.928 336.888 100.063 336.087 98.6272C334.726 96.2291 335.76 93.1094 334.776 90.5282C334.478 89.742 333.87 88.9523 333.03 88.8876C332.189 88.823 331.46 89.5302 330.655 89.8426C328.974 90.4959 327.152 89.3831 325.751 88.2486C324.35 87.1142 322.758 85.8182 320.973 86.0695C319.791 86.2383 318.857 87.0424 317.772 87.4588C316.967 87.7676 315.333 88.0476 314.628 87.3691C313.148 85.9331 316.594 82.397 317.211 81.1262C317.725 80.0779 317.98 78.9112 318.598 77.9203C318.631 77.8665 318.667 77.8126 318.702 77.7588C318.24 78.1414 317.841 78.5945 317.52 79.1014C316.906 80.0923 316.651 81.2554 316.137 82.3073C315.516 83.5781 312.07 87.125 313.554 88.5502C314.273 89.2323 315.889 88.9523 316.694 88.6435C317.772 88.2235 318.713 87.4193 319.895 87.2542C321.691 86.9993 323.272 88.2953 324.673 89.4297C326.075 90.5641 327.907 91.677 329.581 91.0237C330.386 90.7113 331.09 90.0077 331.952 90.0723C332.814 90.1369 333.389 90.9231 333.702 91.7129C334.682 94.2905 333.648 97.4102 335.009 99.8119C335.814 101.223 337.305 102.106 338.293 103.402C338.936 104.239 339.351 105.229 339.497 106.274C339.759 108.105 339.18 109.953 339.238 111.802C339.356 115.751 342.525 119.187 346.305 120.307C347.443 120.644 348.687 120.824 349.606 121.578C350.637 122.421 351.043 123.786 351.632 124.97C353.58 128.801 358.311 130.983 362.493 129.975L361.66 129.034C358.035 129.088 354.366 127.027 352.71 123.768Z" fill="black"/>
<path opacity="0.1" d="M327.943 107.383C327.472 108.101 326.125 111.777 325 114.986C323.948 114.577 322.992 111.967 322.992 111.967L328.604 103.99C329.179 104.78 328.801 106.09 327.943 107.383Z" fill="black"/>
<path d="M328.158 107.167C327.687 107.885 326.34 111.561 325.215 114.771C324.163 114.365 323.207 111.752 323.207 111.752L328.819 103.778C329.394 104.565 329.016 105.878 328.158 107.167Z" fill="#DCE7FF"/>
<path d="M295.53 143.842L292.419 134.038C292.382 133.923 292.368 133.802 292.378 133.682C292.388 133.562 292.422 133.445 292.477 133.338C292.533 133.231 292.609 133.136 292.701 133.058C292.793 132.981 292.9 132.922 293.015 132.886V132.886C293.246 132.813 293.497 132.836 293.712 132.947C293.928 133.059 294.09 133.251 294.165 133.482L297.276 143.275L296.967 145.325L295.53 143.842Z" fill="#BE8B87"/>
<path opacity="0.1" d="M292.713 133.177C292.945 133.103 293.197 133.125 293.413 133.236C293.629 133.348 293.792 133.541 293.866 133.773L296.977 143.566L296.744 145.102L296.97 145.339L297.279 143.289L294.15 133.496C294.076 133.265 293.913 133.073 293.698 132.962C293.483 132.85 293.232 132.828 293 132.9V132.9C292.805 132.963 292.637 133.09 292.522 133.259C292.584 133.226 292.647 133.199 292.713 133.177V133.177Z" fill="white"/>
<path d="M295.529 143.842L297.275 143.289L297.02 144.969L296.966 145.339L296.456 144.808L295.529 143.842Z" fill="#EFC8C4"/>
<path d="M296.457 144.808C296.487 144.77 296.525 144.738 296.568 144.715C296.594 144.699 296.623 144.69 296.653 144.69C296.683 144.69 296.712 144.699 296.737 144.715C296.762 144.744 296.782 144.777 296.798 144.812C296.822 144.851 296.854 144.885 296.893 144.911C296.932 144.936 296.975 144.953 297.021 144.959L296.967 145.318L296.457 144.808Z" fill="#727A9C"/>
<path d="M292.401 137.52C292.401 137.52 298.641 137.484 297.172 140.137C295.702 142.79 293.407 143.11 293.407 143.11L292.401 137.52Z" fill="#FFB0B1"/>
<path d="M253.589 18.46H253.32C242.599 18.46 233.119 24.1285 227.665 32.4931C222.211 24.1285 212.73 18.46 202.01 18.46H201.74C193.695 18.5366 186.005 21.7828 180.341 27.4933C174.678 33.2037 171.499 40.9169 171.494 48.9566C171.494 58.9403 175.87 73.1062 184.402 84.7628C200.659 106.974 227.665 126.406 227.665 126.406C227.665 126.406 254.671 106.977 270.924 84.7628C279.46 73.1062 283.832 58.9403 283.832 48.9566C283.828 40.9175 280.649 33.2049 274.986 27.4945C269.323 21.7842 261.634 18.5375 253.589 18.46V18.46ZM249.734 86.4716C248.513 86.467 247.323 86.0935 246.318 85.4003C245.313 84.7071 244.542 83.7265 244.105 82.5873H237.696C237.273 82.5847 236.863 82.4504 236.521 82.2033C236.179 81.9561 235.923 81.6084 235.788 81.2088L233.819 75.2817L227.589 97.0333C227.468 97.452 227.214 97.8201 226.866 98.0823C226.517 98.3444 226.093 98.4865 225.657 98.4872H225.531C225.076 98.4652 224.642 98.2878 224.302 97.9846C223.962 97.6814 223.736 97.2709 223.663 96.8215L217.243 58.2366L212.551 81.0687C212.443 81.5025 212.193 81.8877 211.841 82.1629C211.489 82.4382 211.054 82.5876 210.607 82.5873H201.579C201.308 82.5987 201.038 82.5554 200.785 82.4598C200.531 82.3642 200.3 82.2183 200.104 82.031C199.909 81.8437 199.753 81.6188 199.647 81.3698C199.54 81.1209 199.486 80.853 199.486 80.5823C199.486 80.3116 199.54 80.0437 199.647 79.7948C199.753 79.5458 199.909 79.3209 200.104 79.1336C200.3 78.9463 200.531 78.8005 200.785 78.7049C201.038 78.6093 201.308 78.5659 201.579 78.5773H209.026L215.673 47.8796C215.782 47.4258 216.045 47.0239 216.418 46.7426C216.791 46.4614 217.25 46.3183 217.717 46.3378C218.183 46.3573 218.629 46.5382 218.977 46.8496C219.325 47.1609 219.554 47.5834 219.625 48.0448L226.181 87.405L231.764 67.9439C231.88 67.534 232.126 67.1727 232.465 66.9139C232.803 66.6551 233.217 66.5127 233.643 66.5079H233.683C234.105 66.508 234.516 66.6414 234.858 66.8889C235.2 67.1365 235.455 67.4856 235.587 67.8864L239.147 78.5881H244.026C244.373 77.535 245.004 76.5982 245.85 75.881C246.696 75.1638 247.724 74.6942 248.82 74.5239C249.917 74.3536 251.039 74.4893 252.063 74.916C253.087 75.3427 253.973 76.0438 254.623 76.9419C255.274 77.8401 255.663 78.9003 255.748 80.0057C255.834 81.111 255.612 82.2185 255.108 83.2058C254.603 84.1932 253.835 85.022 252.889 85.6008C251.943 86.1796 250.855 86.486 249.745 86.486L249.734 86.4716Z" fill="#5AD6F3"/>
</g>
<defs>
<linearGradient id="paint0_linear_1337_119070" x1="128.016" y1="278.175" x2="128.016" y2="57.2709" gradientUnits="userSpaceOnUse">
<stop stop-color="#808080" stop-opacity="0.25"/>
<stop offset="0.54" stop-color="#808080" stop-opacity="0.12"/>
<stop offset="1" stop-color="#808080" stop-opacity="0.1"/>
</linearGradient>
<linearGradient id="paint1_linear_1337_119070" x1="320.977" y1="275.382" x2="320.977" y2="73.6263" gradientUnits="userSpaceOnUse">
<stop stop-color="#808080" stop-opacity="0.25"/>
<stop offset="0.54" stop-color="#808080" stop-opacity="0.12"/>
<stop offset="1" stop-color="#808080" stop-opacity="0.1"/>
</linearGradient>
<clipPath id="clip0_1337_119070">
<rect width="397" height="281" fill="white"/>
</clipPath>
</defs>
</svg>
