<?xml version="1.0" encoding="utf-8"?>
<!-- Generator: Adobe Illustrator 27.3.1, SVG Export Plug-In . SVG Version: 6.00 Build 0)  -->
<svg version="1.1" id="圖層_1" xmlns="http://www.w3.org/2000/svg" xmlns:xlink="http://www.w3.org/1999/xlink" x="0px" y="0px"
	 viewBox="0 0 49 50" style="enable-background:new 0 0 49 50;" xml:space="preserve">
<style type="text/css">
	.st0{fill:url(#SVGID_1_);}
	.st1{fill:#FFFFFF;}
</style>
<linearGradient id="SVGID_1_" gradientUnits="userSpaceOnUse" x1="24.5" y1="0.8504" x2="24.5" y2="48.9296" gradientTransform="matrix(1 0 0 -1 0 49.89)">
	<stop  offset="0" style="stop-color:#17C3EB"/>
	<stop  offset="0.2" style="stop-color:#2BC8ED"/>
	<stop  offset="0.5" style="stop-color:#44CFEF"/>
	<stop  offset="0.78" style="stop-color:#54D3F1"/>
	<stop  offset="1" style="stop-color:#5AD5F2"/>
</linearGradient>
<path class="st0" d="M39.7,1H9.3c-4.9,0-8.8,4-8.8,8.8v30.4c0,4.9,4,8.8,8.8,8.8h30.4c4.9,0,8.8-4,8.8-8.8V9.8
	C48.5,4.9,44.6,1,39.7,1z"/>
<path class="st1" d="M33.2,14.2h-0.9c-0.1,0-0.2,0-0.3,0h-0.8c-1,0-1.9,0.5-2.4,1.4l-1.7,2c0,0-0.9,1.1-2.6,1.1
	c-1.6,0-2.6-1.1-2.6-1.1l-1.7-2c-0.5-0.8-1.4-1.4-2.4-1.4H17c-0.1,0-0.2,0-0.3,0h-0.9c-2.2,0-4,1.8-4,4v16.2h5.2
	c-0.3-1.1-0.4-2.2-0.4-3.9c0-0.4,0-1,0.1-1.5c0-0.3,0.1-0.7,0.5-0.9c0.2-0.2,0.5-0.3,0.7-0.3c0,0,0.1,0,0.1,0h0c0,0,0,0,0,0
	c0.9,0.2,0.8,1.3,0.7,1.8c0,0.3-0.1,0.6-0.1,0.9c0,1.9,0.4,3.1,1.1,3.9c0.1,0.1,0.2,0.2,0.3,0.2c0.9,0.7,2.2,1,4,1
	c0.1,0,0.2,0,0.4,0c1.9,0,3.3-0.4,4.2-1c1.1-0.8,1.5-2,1.5-4.1c0-0.3,0-0.6-0.1-0.8c-0.1-0.5-0.2-1.6,0.7-1.8c0,0,0.1,0,0.1,0h0.1
	c0.2,0,0.5,0.1,0.7,0.3c0.3,0.2,0.4,0.6,0.5,0.9c0.1,0.4,0.1,1.1,0.1,1.5c0,1.7-0.1,2.8-0.4,3.9h5.3v-3.7c0,0,0,0,0-0.1V18.3
	C37.2,16.1,35.4,14.3,33.2,14.2L33.2,14.2z M19.7,25.7c-0.2,0.3-0.5,0.5-0.9,0.5h0c-0.6,0-1.2-0.5-1.3-1.2c0-0.1,0-0.2,0-0.3l0-0.1
	c0-0.1,0-0.2,0-0.3c0.1-0.4,0.3-0.7,0.7-0.9c0.2-0.1,0.4-0.2,0.7-0.2c0,0,0,0,0.1,0c0.4,0,0.7,0.2,0.9,0.5c0.2,0.3,0.3,0.6,0.3,1
	C20,25,19.9,25.4,19.7,25.7z M31.5,25c-0.1,0.7-0.7,1.2-1.3,1.2h0c-0.7,0-1.2-0.6-1.2-1.5c0-0.4,0.1-0.8,0.3-1.1
	c0.2-0.3,0.5-0.5,0.8-0.5c0,0,0,0,0,0c0.2,0,0.5,0.1,0.7,0.2c0.3,0.2,0.6,0.5,0.7,0.9c0,0.1,0,0.2,0,0.3l0,0.1
	C31.5,24.7,31.5,24.8,31.5,25L31.5,25z"/>
</svg>
