<svg width="238" height="232" viewBox="0 0 238 232" fill="none" xmlns="http://www.w3.org/2000/svg">
<g clip-path="url(#clip0_2587_173142)">
<path d="M73.4958 170.19H43.6835C42.9319 170.19 42.3203 169.58 42.3203 168.829C42.3203 168.079 42.9319 167.469 43.6835 167.469H73.4958C74.2474 167.469 74.8587 168.079 74.8587 168.829C74.8587 169.58 74.2474 170.19 73.4958 170.19Z" fill="#5AD6F3"/>
<path d="M20.252 177.474C20.252 177.718 20.4486 177.915 20.6935 177.915H96.4847C96.7295 177.915 96.9262 177.718 96.9262 177.474C96.9262 177.23 96.7295 177.033 96.4847 177.033H20.6935C20.4486 177.033 20.252 177.23 20.252 177.474Z" fill="#3F3D56"/>
<path d="M180.16 88.6683C193.478 88.6683 204.275 77.8899 204.275 64.5939C204.275 51.298 193.478 40.5195 180.16 40.5195C166.842 40.5195 156.045 51.298 156.045 64.5939C156.045 77.8899 166.842 88.6683 180.16 88.6683Z" fill="#FF6884"/>
<path d="M0 207.894C0 208.138 0.19664 208.335 0.44151 208.335H194.21C194.455 208.335 194.652 208.138 194.652 207.894C194.652 207.649 194.455 207.453 194.21 207.453H0.44151C0.19664 207.453 0 207.649 0 207.894Z" fill="#3F3D56"/>
<path d="M2.80344 178.131L2.18359 177.453L62.6799 122.342L84.4756 132.097L108.012 91.8021L127.349 82.4969L145.266 112.307C154.938 87.3076 179.197 61.152 208.265 34.6152L208.98 35.1932C181.717 61.2508 158.391 87.4266 145.153 113.906L128.581 86.2507C127.798 84.9443 126.153 84.4396 124.77 85.0819C114.201 89.9918 105.384 98.0063 99.5 108.054L84.7568 133.228L81.3913 131.722C70.1359 126.685 56.9596 128.796 47.8482 137.097L2.80344 178.131Z" fill="#3F3D56"/>
<path d="M209.629 39.6327L208.71 39.6964L207.228 36.4898L203.91 35.817L203.781 34.9068L209.251 34.1309L209.629 39.6327Z" fill="#3F3D56"/>
<path d="M115.264 59.253L118.516 46.7724L131.184 46.1641L134.974 63.3682L115.264 59.253Z" fill="#FFB6B6"/>
<path opacity="0.1" d="M115.264 59.253L118.516 46.7724L131.184 46.1641L134.974 63.3682L115.264 59.253Z" fill="black"/>
<path d="M123.6 53.7576C132.045 53.7576 138.891 46.923 138.891 38.4921C138.891 30.0612 132.045 23.2266 123.6 23.2266C115.155 23.2266 108.309 30.0612 108.309 38.4921C108.309 46.923 115.155 53.7576 123.6 53.7576Z" fill="#FFB6B6"/>
<path d="M132.036 41.7223C132.036 41.7223 126.227 30.2323 119.421 30.8957C112.615 31.559 109.029 32.3658 109.029 32.3658C109.029 32.3658 107.009 23.4169 116.521 19.9747C116.521 19.9747 104.427 8.07308 118.826 2.23482C133.224 -3.60344 141.281 3.84252 141.281 3.84252C141.281 3.84252 151.94 14.4647 138.516 22.4038C138.516 22.4038 148.484 35.7887 136.416 46.8209C136.416 46.8209 139.115 37.8934 136.298 39.5398C133.482 41.1861 132.036 41.7223 132.036 41.7223Z" fill="#2F2E41"/>
<path d="M106.727 122.377L104.693 124.323L89.9991 155.777L88.3906 207.805H113.079L124.66 182.04L132.463 207.556H154.661L159.807 161.237L145.974 128.479L106.727 122.377Z" fill="#2F2E41"/>
<path d="M132.304 57.9844H115.817L97.8828 67.6191L102.065 86.2462C102.065 86.2462 101.1 97.4866 103.352 105.837C105.604 114.187 104.638 125.106 104.638 125.106L145.976 128.478L147.263 90.5818L146.62 65.2104L132.304 57.9844Z" fill="white"/>
<path d="M100.615 67.7793C100.615 67.7793 90.6424 68.1005 89.0339 74.5236C87.4254 80.9467 86.1387 114.026 86.1387 114.026C86.1387 114.026 87.1038 133.654 97.8806 124.322C108.657 114.989 107.692 86.7275 107.692 86.7275L100.615 67.7793Z" fill="white"/>
<path d="M197.344 231.629H138.575C136.584 231.629 134.965 230.012 134.965 228.025V167.373C134.965 165.386 136.584 163.77 138.575 163.77H197.344C199.334 163.77 200.954 165.386 200.954 167.373V228.025C200.954 230.012 199.334 231.629 197.344 231.629Z" fill="white"/>
<path d="M197.344 232H138.574C136.38 232 134.594 230.218 134.594 228.026V167.374C134.594 165.183 136.38 163.4 138.574 163.4H197.344C199.539 163.4 201.324 165.183 201.324 167.374V228.026C201.324 230.218 199.539 232 197.344 232ZM138.574 164.141C136.789 164.141 135.336 165.592 135.336 167.374V228.026C135.336 229.809 136.789 231.26 138.574 231.26H197.344C199.13 231.26 200.582 229.809 200.582 228.026V167.374C200.582 165.592 199.13 164.141 197.344 164.141H138.574Z" fill="#3F3D56"/>
<path d="M170.279 215.696H165.435C164.845 215.696 164.365 215.326 164.365 214.872V194.053C164.365 193.598 164.845 193.229 165.435 193.229H170.279C170.868 193.229 171.348 193.598 171.348 194.053V214.872C171.348 215.326 170.868 215.696 170.279 215.696Z" fill="#5AD6F3"/>
<path d="M154.265 203.426C153.788 203.426 153.4 203.725 153.4 204.092V214.847C153.4 215.215 153.788 215.513 154.265 215.513H159.108C159.585 215.513 159.972 215.215 159.972 214.847V204.092C159.972 203.725 159.585 203.426 159.108 203.426H154.265Z" fill="#5AD6F3"/>
<path d="M181.448 215.695H176.605C176.015 215.695 175.535 215.326 175.535 214.871V180.752C175.535 180.297 176.015 179.928 176.605 179.928H181.448C182.038 179.928 182.518 180.297 182.518 180.752V214.871C182.518 215.326 182.038 215.695 181.448 215.695Z" fill="#5AD6F3"/>
<path d="M77.2137 66.1372H71.6807C71.007 66.1372 70.459 65.7149 70.459 65.1958V41.4141C70.459 40.895 71.007 40.4727 71.6807 40.4727H77.2137C77.8873 40.4727 78.4354 40.895 78.4354 41.4141V65.1958C78.4354 65.7149 77.8873 66.1372 77.2137 66.1372Z" fill="#5AD6F3"/>
<path d="M58.9207 52.123C58.3764 52.123 57.9336 52.4643 57.9336 52.8837V65.1698C57.9336 65.5892 58.3764 65.9304 58.9207 65.9304H64.4537C64.9979 65.9304 65.4408 65.5892 65.4408 65.1698V52.8837C65.4408 52.4643 64.9979 52.123 64.4537 52.123H58.9207Z" fill="#5AD6F3"/>
<path d="M89.9734 66.138H84.4404C83.7668 66.138 83.2188 65.7157 83.2188 65.1966V26.2227C83.2188 25.7035 83.7668 25.2812 84.4404 25.2812H89.9734C90.6471 25.2812 91.1951 25.7035 91.1951 26.2227V65.1966C91.1951 65.7157 90.6471 66.138 89.9734 66.138Z" fill="#5AD6F3"/>
<path d="M158.951 172.595C161.817 172.321 163.79 168.455 163.359 163.958C163.211 162.159 162.634 160.422 161.676 158.891L161.124 153.801L161.209 153.776L162.597 129.643C162.92 124.032 160.695 118.518 156.408 114.875C153.858 112.707 151.138 111.61 149.389 114.348C146.486 118.893 150.246 137.625 152.715 148.275L153.672 159.656C153.022 161.341 152.785 163.156 152.982 164.951C153.413 169.447 156.085 172.869 158.951 172.595Z" fill="#FFB6B6"/>
<path d="M143.08 65.8537C143.08 65.8537 151.444 62.6421 155.305 72.2768C159.165 81.9115 163.347 129.443 163.347 129.443L143.723 125.91L143.08 65.8537Z" fill="white"/>
<path d="M28.231 61.1394H16.9686C16.217 61.1394 15.6055 60.5289 15.6055 59.7786C15.6055 59.0282 16.217 58.418 16.9686 58.418H28.231C28.9826 58.418 29.5939 59.0282 29.5939 59.7786C29.5939 60.5289 28.9826 61.1394 28.231 61.1394Z" fill="white"/>
<path d="M28.231 41.8504H16.9686C16.217 41.8504 15.6055 41.2398 15.6055 40.4895C15.6055 39.7392 16.217 39.1289 16.9686 39.1289H28.231C28.9826 39.1289 29.5939 39.7392 29.5939 40.4895C29.5939 41.2398 28.9826 41.8504 28.231 41.8504Z" fill="white"/>
<path d="M28.231 27.9402H16.9686C16.217 27.9402 15.6055 27.3297 15.6055 26.5793C15.6055 25.829 16.217 25.2188 16.9686 25.2188H28.231C28.9826 25.2188 29.5939 25.829 29.5939 26.5793C29.5939 27.3297 28.9826 27.9402 28.231 27.9402Z" fill="white"/>
<path d="M15.1523 66.2044C15.1523 66.4489 15.349 66.6452 15.5939 66.6452H91.385C91.6299 66.6452 91.8265 66.4489 91.8265 66.2044C91.8265 65.96 91.6299 65.7637 91.385 65.7637H15.5939C15.349 65.7637 15.1523 65.96 15.1523 66.2044Z" fill="#3F3D56"/>
<path d="M161.326 180.281C161.326 180.525 161.523 180.721 161.768 180.721H237.559C237.804 180.721 238 180.525 238 180.281C238 180.036 237.804 179.84 237.559 179.84H161.768C161.523 179.84 161.326 180.036 161.326 180.281Z" fill="#3F3D56"/>
<path d="M139.066 216.208C139.066 216.453 139.263 216.649 139.508 216.649H215.299C215.544 216.649 215.741 216.453 215.741 216.208C215.741 215.964 215.544 215.768 215.299 215.768H139.508C139.263 215.768 139.066 215.964 139.066 216.208Z" fill="#3F3D56"/>
<path d="M88.1 63.9783C85.2342 64.2522 83.2608 68.1183 83.6919 72.6154C83.8395 74.4143 84.4164 76.1516 85.3744 77.6821L85.9268 82.7719L85.8422 82.7972L84.4538 106.93C84.131 112.541 86.3559 118.055 90.6425 121.699C93.1925 123.866 95.9128 124.964 97.6621 122.225C100.565 117.681 96.805 98.9481 94.336 88.298L93.3787 76.9172C94.029 75.2326 94.2656 73.4169 94.0687 71.6223C93.6383 67.1267 90.9658 63.7044 88.1 63.9783Z" fill="#FFB6B6"/>
</g>
<defs>
<clipPath id="clip0_2587_173142">
<rect width="238" height="232" fill="white"/>
</clipPath>
</defs>
</svg>
