<svg width="245" height="150" viewBox="0 0 245 150" fill="none" xmlns="http://www.w3.org/2000/svg">
<rect width="245" height="150" fill="#B4E0ED"/>
<rect x="8" y="8" width="229" height="33" rx="8" fill="white"/>
<path d="M109.252 21.816V22.944H104.944V21.816H106.864C106.696 21.36 106.396 20.76 106.132 20.304L107.176 19.788C107.488 20.28 107.836 20.94 108.028 21.384L107.26 21.816H109.252ZM108.868 23.484V24.564H105.448V23.484H108.868ZM105.448 26.172V25.092H108.868V26.172H105.448ZM107.8 27.888H106.516V29.232H107.8V27.888ZM108.94 26.748V30.384H106.516V30.888H105.412V26.748H108.94ZM114.448 26.472L115.612 26.964C114.52 29.052 112.624 30.3 110.2 31.044C110.056 30.696 109.744 30.192 109.468 29.88C111.7 29.34 113.536 28.248 114.448 26.472ZM112.408 23.052L113.512 23.52C112.804 24.636 111.724 25.62 110.656 26.268C110.464 25.992 110.116 25.608 109.816 25.344C110.776 24.852 111.856 23.964 112.408 23.052ZM113.512 24.672L114.616 25.14C113.74 26.604 112.336 27.744 110.824 28.512C110.656 28.188 110.32 27.768 110.044 27.48C111.4 26.916 112.792 25.896 113.512 24.672ZM112.264 19.776L113.452 20.172C113.392 20.352 113.32 20.52 113.236 20.688C114.004 21.696 115.228 22.704 116.344 23.292C116.032 23.544 115.624 24.072 115.408 24.444C114.46 23.82 113.428 22.824 112.612 21.78C111.88 22.884 110.92 23.808 109.816 24.492C109.648 24.18 109.216 23.664 108.952 23.448C110.428 22.632 111.652 21.24 112.264 19.776ZM120.736 21.324H118.888V21.96H120.736V21.324ZM118.888 23.604H120.736V22.92H118.888V23.604ZM122.068 24.624H118.888V31.044H117.472V20.292H122.068V24.624ZM124.252 23.628H126.16V22.92H124.252V23.628ZM126.16 21.324H124.252V21.96H126.16V21.324ZM121.48 28.884H123.46V28.14H121.48V28.884ZM123.46 27.12V26.4H121.48V27.12H123.46ZM127.6 20.292V29.352C127.6 30.12 127.444 30.54 126.964 30.768C126.496 31.008 125.8 31.044 124.768 31.044C124.732 30.744 124.6 30.3 124.456 29.928H121.48V30.54H120.184V25.356H120.772V25.344L124.804 25.356V29.604C125.272 29.616 125.716 29.616 125.872 29.604C126.088 29.604 126.16 29.532 126.16 29.34V24.648H122.896V20.292H127.6ZM128.992 24.552H140.032V26.1H128.992V24.552Z" fill="#4B4B4B"/>
<rect x="8" y="45" width="229" height="33" rx="8" fill="white"/>
<path d="M109.252 58.816V59.944H104.944V58.816H106.864C106.696 58.36 106.396 57.76 106.132 57.304L107.176 56.788C107.488 57.28 107.836 57.94 108.028 58.384L107.26 58.816H109.252ZM108.868 60.484V61.564H105.448V60.484H108.868ZM105.448 63.172V62.092H108.868V63.172H105.448ZM107.8 64.888H106.516V66.232H107.8V64.888ZM108.94 63.748V67.384H106.516V67.888H105.412V63.748H108.94ZM114.448 63.472L115.612 63.964C114.52 66.052 112.624 67.3 110.2 68.044C110.056 67.696 109.744 67.192 109.468 66.88C111.7 66.34 113.536 65.248 114.448 63.472ZM112.408 60.052L113.512 60.52C112.804 61.636 111.724 62.62 110.656 63.268C110.464 62.992 110.116 62.608 109.816 62.344C110.776 61.852 111.856 60.964 112.408 60.052ZM113.512 61.672L114.616 62.14C113.74 63.604 112.336 64.744 110.824 65.512C110.656 65.188 110.32 64.768 110.044 64.48C111.4 63.916 112.792 62.896 113.512 61.672ZM112.264 56.776L113.452 57.172C113.392 57.352 113.32 57.52 113.236 57.688C114.004 58.696 115.228 59.704 116.344 60.292C116.032 60.544 115.624 61.072 115.408 61.444C114.46 60.82 113.428 59.824 112.612 58.78C111.88 59.884 110.92 60.808 109.816 61.492C109.648 61.18 109.216 60.664 108.952 60.448C110.428 59.632 111.652 58.24 112.264 56.776ZM120.736 58.324H118.888V58.96H120.736V58.324ZM118.888 60.604H120.736V59.92H118.888V60.604ZM122.068 61.624H118.888V68.044H117.472V57.292H122.068V61.624ZM124.252 60.628H126.16V59.92H124.252V60.628ZM126.16 58.324H124.252V58.96H126.16V58.324ZM121.48 65.884H123.46V65.14H121.48V65.884ZM123.46 64.12V63.4H121.48V64.12H123.46ZM127.6 57.292V66.352C127.6 67.12 127.444 67.54 126.964 67.768C126.496 68.008 125.8 68.044 124.768 68.044C124.732 67.744 124.6 67.3 124.456 66.928H121.48V67.54H120.184V62.356H120.772V62.344L124.804 62.356V66.604C125.272 66.616 125.716 66.616 125.872 66.604C126.088 66.604 126.16 66.532 126.16 66.34V61.648H122.896V57.292H127.6ZM130.168 58.48H138.832V60.052H130.168V58.48ZM129.172 65.404H139.828V67.048H129.172V65.404Z" fill="#4B4B4B"/>
<rect x="8" y="82" width="229" height="33" rx="8" fill="white"/>
<path d="M109.252 95.816V96.944H104.944V95.816H106.864C106.696 95.36 106.396 94.76 106.132 94.304L107.176 93.788C107.488 94.28 107.836 94.94 108.028 95.384L107.26 95.816H109.252ZM108.868 97.484V98.564H105.448V97.484H108.868ZM105.448 100.172V99.092H108.868V100.172H105.448ZM107.8 101.888H106.516V103.232H107.8V101.888ZM108.94 100.748V104.384H106.516V104.888H105.412V100.748H108.94ZM114.448 100.472L115.612 100.964C114.52 103.052 112.624 104.3 110.2 105.044C110.056 104.696 109.744 104.192 109.468 103.88C111.7 103.34 113.536 102.248 114.448 100.472ZM112.408 97.052L113.512 97.52C112.804 98.636 111.724 99.62 110.656 100.268C110.464 99.992 110.116 99.608 109.816 99.344C110.776 98.852 111.856 97.964 112.408 97.052ZM113.512 98.672L114.616 99.14C113.74 100.604 112.336 101.744 110.824 102.512C110.656 102.188 110.32 101.768 110.044 101.48C111.4 100.916 112.792 99.896 113.512 98.672ZM112.264 93.776L113.452 94.172C113.392 94.352 113.32 94.52 113.236 94.688C114.004 95.696 115.228 96.704 116.344 97.292C116.032 97.544 115.624 98.072 115.408 98.444C114.46 97.82 113.428 96.824 112.612 95.78C111.88 96.884 110.92 97.808 109.816 98.492C109.648 98.18 109.216 97.664 108.952 97.448C110.428 96.632 111.652 95.24 112.264 93.776ZM120.736 95.324H118.888V95.96H120.736V95.324ZM118.888 97.604H120.736V96.92H118.888V97.604ZM122.068 98.624H118.888V105.044H117.472V94.292H122.068V98.624ZM124.252 97.628H126.16V96.92H124.252V97.628ZM126.16 95.324H124.252V95.96H126.16V95.324ZM121.48 102.884H123.46V102.14H121.48V102.884ZM123.46 101.12V100.4H121.48V101.12H123.46ZM127.6 94.292V103.352C127.6 104.12 127.444 104.54 126.964 104.768C126.496 105.008 125.8 105.044 124.768 105.044C124.732 104.744 124.6 104.3 124.456 103.928H121.48V104.54H120.184V99.356H120.772V99.344L124.804 99.356V103.604C125.272 103.616 125.716 103.616 125.872 103.604C126.088 103.604 126.16 103.532 126.16 103.34V98.648H122.896V94.292H127.6ZM129.952 94.988H139.048V96.428H129.952V94.988ZM130.78 98.816H138.1V100.268H130.78V98.816ZM129.28 102.86H139.696V104.324H129.28V102.86Z" fill="#4B4B4B"/>
<path d="M122.832 124.09C122.832 123.466 123.336 122.998 123.984 122.998C124.644 122.998 125.136 123.466 125.136 124.09C125.136 124.726 124.644 125.194 123.984 125.194C123.336 125.194 122.832 124.726 122.832 124.09ZM122.832 127.993C122.832 127.369 123.336 126.901 123.984 126.901C124.644 126.901 125.136 127.369 125.136 127.993C125.136 128.629 124.644 129.097 123.984 129.097C123.336 129.097 122.832 128.629 122.832 127.993ZM122.832 131.895C122.832 131.271 123.336 130.803 123.984 130.803C124.644 130.803 125.136 131.271 125.136 131.895C125.136 132.531 124.644 132.999 123.984 132.999C123.336 132.999 122.832 132.531 122.832 131.895Z" fill="black"/>
</svg>
