<svg width="245" height="150" viewBox="0 0 245 150" fill="none" xmlns="http://www.w3.org/2000/svg">
<rect width="245" height="149.611" fill="#B4E0ED"/>
<rect x="8" y="8" width="229" height="33" rx="8" fill="white"/>
<path d="M113.476 25.02V24.336H111.076V25.02H113.476ZM109.672 26.904V26.196H107.716C107.68 26.436 107.656 26.676 107.62 26.904H109.672ZM116.008 20.568V21.648H113.932C114.244 21.9 114.568 22.188 114.76 22.404L113.896 23.16H114.88V26.196H111.076V26.904H115.468C115.468 26.904 115.456 27.252 115.432 27.42C115.312 29.004 115.168 29.796 114.856 30.108C114.604 30.396 114.316 30.492 113.944 30.528C113.608 30.564 113.044 30.576 112.432 30.552C112.408 30.132 112.252 29.604 112.024 29.256C112.528 29.304 113.032 29.316 113.26 29.304C113.44 29.304 113.548 29.292 113.656 29.196C113.776 29.076 113.872 28.752 113.944 28.092H111.076V31.056H109.672V28.716C108.664 29.7 107.332 30.516 106.024 31.008C105.82 30.66 105.424 30.144 105.124 29.88C106.372 29.508 107.668 28.848 108.604 28.092H106.024C106.204 27.276 106.384 26.028 106.468 25.02H109.672V24.336H106.036V23.16H108.484C108.208 22.824 107.752 22.38 107.38 22.056L107.836 21.66H107.116C106.732 22.26 106.312 22.8 105.892 23.208C105.688 22.968 105.208 22.464 104.932 22.248C105.64 21.624 106.3 20.676 106.672 19.728L107.932 20.088C107.872 20.244 107.8 20.412 107.716 20.568H110.356V21.66H108.64C108.964 21.936 109.276 22.236 109.456 22.452L108.688 23.16H113.752C113.488 22.836 112.972 22.404 112.588 22.092L113.104 21.648H112.12C111.832 22.104 111.508 22.5 111.184 22.812C110.944 22.572 110.428 22.164 110.116 21.984C110.776 21.42 111.316 20.58 111.616 19.728L112.912 20.052C112.852 20.22 112.78 20.4 112.708 20.568H116.008ZM116.992 24.552H128.032V26.1H116.992V24.552ZM133.252 21.816V22.944H128.944V21.816H130.864C130.696 21.36 130.396 20.76 130.132 20.304L131.176 19.788C131.488 20.28 131.836 20.94 132.028 21.384L131.26 21.816H133.252ZM132.868 23.484V24.564H129.448V23.484H132.868ZM129.448 26.172V25.092H132.868V26.172H129.448ZM131.8 27.888H130.516V29.232H131.8V27.888ZM132.94 26.748V30.384H130.516V30.888H129.412V26.748H132.94ZM138.448 26.472L139.612 26.964C138.52 29.052 136.624 30.3 134.2 31.044C134.056 30.696 133.744 30.192 133.468 29.88C135.7 29.34 137.536 28.248 138.448 26.472ZM136.408 23.052L137.512 23.52C136.804 24.636 135.724 25.62 134.656 26.268C134.464 25.992 134.116 25.608 133.816 25.344C134.776 24.852 135.856 23.964 136.408 23.052ZM137.512 24.672L138.616 25.14C137.74 26.604 136.336 27.744 134.824 28.512C134.656 28.188 134.32 27.768 134.044 27.48C135.4 26.916 136.792 25.896 137.512 24.672ZM136.264 19.776L137.452 20.172C137.392 20.352 137.32 20.52 137.236 20.688C138.004 21.696 139.228 22.704 140.344 23.292C140.032 23.544 139.624 24.072 139.408 24.444C138.46 23.82 137.428 22.824 136.612 21.78C135.88 22.884 134.92 23.808 133.816 24.492C133.648 24.18 133.216 23.664 132.952 23.448C134.428 22.632 135.652 21.24 136.264 19.776Z" fill="#4B4B4B"/>
<rect x="8" y="45" width="229" height="33" rx="8" fill="white"/>
<path d="M113.476 62.02V61.336H111.076V62.02H113.476ZM109.672 63.904V63.196H107.716C107.68 63.436 107.656 63.676 107.62 63.904H109.672ZM116.008 57.568V58.648H113.932C114.244 58.9 114.568 59.188 114.76 59.404L113.896 60.16H114.88V63.196H111.076V63.904H115.468C115.468 63.904 115.456 64.252 115.432 64.42C115.312 66.004 115.168 66.796 114.856 67.108C114.604 67.396 114.316 67.492 113.944 67.528C113.608 67.564 113.044 67.576 112.432 67.552C112.408 67.132 112.252 66.604 112.024 66.256C112.528 66.304 113.032 66.316 113.26 66.304C113.44 66.304 113.548 66.292 113.656 66.196C113.776 66.076 113.872 65.752 113.944 65.092H111.076V68.056H109.672V65.716C108.664 66.7 107.332 67.516 106.024 68.008C105.82 67.66 105.424 67.144 105.124 66.88C106.372 66.508 107.668 65.848 108.604 65.092H106.024C106.204 64.276 106.384 63.028 106.468 62.02H109.672V61.336H106.036V60.16H108.484C108.208 59.824 107.752 59.38 107.38 59.056L107.836 58.66H107.116C106.732 59.26 106.312 59.8 105.892 60.208C105.688 59.968 105.208 59.464 104.932 59.248C105.64 58.624 106.3 57.676 106.672 56.728L107.932 57.088C107.872 57.244 107.8 57.412 107.716 57.568H110.356V58.66H108.64C108.964 58.936 109.276 59.236 109.456 59.452L108.688 60.16H113.752C113.488 59.836 112.972 59.404 112.588 59.092L113.104 58.648H112.12C111.832 59.104 111.508 59.5 111.184 59.812C110.944 59.572 110.428 59.164 110.116 58.984C110.776 58.42 111.316 57.58 111.616 56.728L112.912 57.052C112.852 57.22 112.78 57.4 112.708 57.568H116.008ZM118.168 58.48H126.832V60.052H118.168V58.48ZM117.172 65.404H127.828V67.048H117.172V65.404ZM133.252 58.816V59.944H128.944V58.816H130.864C130.696 58.36 130.396 57.76 130.132 57.304L131.176 56.788C131.488 57.28 131.836 57.94 132.028 58.384L131.26 58.816H133.252ZM132.868 60.484V61.564H129.448V60.484H132.868ZM129.448 63.172V62.092H132.868V63.172H129.448ZM131.8 64.888H130.516V66.232H131.8V64.888ZM132.94 63.748V67.384H130.516V67.888H129.412V63.748H132.94ZM138.448 63.472L139.612 63.964C138.52 66.052 136.624 67.3 134.2 68.044C134.056 67.696 133.744 67.192 133.468 66.88C135.7 66.34 137.536 65.248 138.448 63.472ZM136.408 60.052L137.512 60.52C136.804 61.636 135.724 62.62 134.656 63.268C134.464 62.992 134.116 62.608 133.816 62.344C134.776 61.852 135.856 60.964 136.408 60.052ZM137.512 61.672L138.616 62.14C137.74 63.604 136.336 64.744 134.824 65.512C134.656 65.188 134.32 64.768 134.044 64.48C135.4 63.916 136.792 62.896 137.512 61.672ZM136.264 56.776L137.452 57.172C137.392 57.352 137.32 57.52 137.236 57.688C138.004 58.696 139.228 59.704 140.344 60.292C140.032 60.544 139.624 61.072 139.408 61.444C138.46 60.82 137.428 59.824 136.612 58.78C135.88 59.884 134.92 60.808 133.816 61.492C133.648 61.18 133.216 60.664 132.952 60.448C134.428 59.632 135.652 58.24 136.264 56.776Z" fill="#4B4B4B"/>
<rect x="8" y="82" width="229" height="33" rx="8" fill="white"/>
<path d="M113.476 99.02V98.336H111.076V99.02H113.476ZM109.672 100.904V100.196H107.716C107.68 100.436 107.656 100.676 107.62 100.904H109.672ZM116.008 94.568V95.648H113.932C114.244 95.9 114.568 96.188 114.76 96.404L113.896 97.16H114.88V100.196H111.076V100.904H115.468C115.468 100.904 115.456 101.252 115.432 101.42C115.312 103.004 115.168 103.796 114.856 104.108C114.604 104.396 114.316 104.492 113.944 104.528C113.608 104.564 113.044 104.576 112.432 104.552C112.408 104.132 112.252 103.604 112.024 103.256C112.528 103.304 113.032 103.316 113.26 103.304C113.44 103.304 113.548 103.292 113.656 103.196C113.776 103.076 113.872 102.752 113.944 102.092H111.076V105.056H109.672V102.716C108.664 103.7 107.332 104.516 106.024 105.008C105.82 104.66 105.424 104.144 105.124 103.88C106.372 103.508 107.668 102.848 108.604 102.092H106.024C106.204 101.276 106.384 100.028 106.468 99.02H109.672V98.336H106.036V97.16H108.484C108.208 96.824 107.752 96.38 107.38 96.056L107.836 95.66H107.116C106.732 96.26 106.312 96.8 105.892 97.208C105.688 96.968 105.208 96.464 104.932 96.248C105.64 95.624 106.3 94.676 106.672 93.728L107.932 94.088C107.872 94.244 107.8 94.412 107.716 94.568H110.356V95.66H108.64C108.964 95.936 109.276 96.236 109.456 96.452L108.688 97.16H113.752C113.488 96.836 112.972 96.404 112.588 96.092L113.104 95.648H112.12C111.832 96.104 111.508 96.5 111.184 96.812C110.944 96.572 110.428 96.164 110.116 95.984C110.776 95.42 111.316 94.58 111.616 93.728L112.912 94.052C112.852 94.22 112.78 94.4 112.708 94.568H116.008ZM117.952 94.988H127.048V96.428H117.952V94.988ZM118.78 98.816H126.1V100.268H118.78V98.816ZM117.28 102.86H127.696V104.324H117.28V102.86ZM133.252 95.816V96.944H128.944V95.816H130.864C130.696 95.36 130.396 94.76 130.132 94.304L131.176 93.788C131.488 94.28 131.836 94.94 132.028 95.384L131.26 95.816H133.252ZM132.868 97.484V98.564H129.448V97.484H132.868ZM129.448 100.172V99.092H132.868V100.172H129.448ZM131.8 101.888H130.516V103.232H131.8V101.888ZM132.94 100.748V104.384H130.516V104.888H129.412V100.748H132.94ZM138.448 100.472L139.612 100.964C138.52 103.052 136.624 104.3 134.2 105.044C134.056 104.696 133.744 104.192 133.468 103.88C135.7 103.34 137.536 102.248 138.448 100.472ZM136.408 97.052L137.512 97.52C136.804 98.636 135.724 99.62 134.656 100.268C134.464 99.992 134.116 99.608 133.816 99.344C134.776 98.852 135.856 97.964 136.408 97.052ZM137.512 98.672L138.616 99.14C137.74 100.604 136.336 101.744 134.824 102.512C134.656 102.188 134.32 101.768 134.044 101.48C135.4 100.916 136.792 99.896 137.512 98.672ZM136.264 93.776L137.452 94.172C137.392 94.352 137.32 94.52 137.236 94.688C138.004 95.696 139.228 96.704 140.344 97.292C140.032 97.544 139.624 98.072 139.408 98.444C138.46 97.82 137.428 96.824 136.612 95.78C135.88 96.884 134.92 97.808 133.816 98.492C133.648 98.18 133.216 97.664 132.952 97.448C134.428 96.632 135.652 95.24 136.264 93.776Z" fill="#4B4B4B"/>
<path d="M122.832 124.09C122.832 123.466 123.336 122.998 123.984 122.998C124.644 122.998 125.136 123.466 125.136 124.09C125.136 124.726 124.644 125.194 123.984 125.194C123.336 125.194 122.832 124.726 122.832 124.09ZM122.832 127.993C122.832 127.369 123.336 126.901 123.984 126.901C124.644 126.901 125.136 127.369 125.136 127.993C125.136 128.629 124.644 129.097 123.984 129.097C123.336 129.097 122.832 128.629 122.832 127.993ZM122.832 131.895C122.832 131.271 123.336 130.803 123.984 130.803C124.644 130.803 125.136 131.271 125.136 131.895C125.136 132.531 124.644 132.999 123.984 132.999C123.336 132.999 122.832 132.531 122.832 131.895Z" fill="black"/>
</svg>
