<svg width="1200" height="324" viewBox="0 0 1200 324" fill="none" xmlns="http://www.w3.org/2000/svg">
<path opacity="0.2" fill-rule="evenodd" clip-rule="evenodd" d="M0 252L50 216C100 180 200 108 300 84C400 60 500 84 600 132C700 180 800 252 900 246C1000 240 1100 156 1150 114L1200 72V324H1150C1100 324 1000 324 900 324C800 324 700 324 600 324C500 324 400 324 300 324C200 324 100 324 50 324H0V252Z" fill="#5AD6F3"/>
<path opacity="0.2" fill-rule="evenodd" clip-rule="evenodd" d="M0 0L50 12C100 24 200 48 300 48C400 48 500 24 600 66C700 108 800 216 900 252C1000 288 1100 252 1150 234L1200 216V324H1150C1100 324 1000 324 900 324C800 324 700 324 600 324C500 324 400 324 300 324C200 324 100 324 50 324H0V0Z" fill="#5AD6F3"/>
</svg>
