<?xml version="1.0" encoding="utf-8"?>
<!-- Generator: Adobe Illustrator 27.2.0, SVG Export Plug-In . SVG Version: 6.00 Build 0)  -->
<svg version="1.1" id="圖層_1" xmlns="http://www.w3.org/2000/svg" xmlns:xlink="http://www.w3.org/1999/xlink" x="0px" y="0px"
	 viewBox="0 0 36 36" style="enable-background:new 0 0 36 36;" xml:space="preserve">
<style type="text/css">
	.st0{fill:#5AD6F3;}
	.st1{fill:#FFFFFF;}
</style>
<circle class="st0" cx="18" cy="18" r="18"/>
<path class="st1" d="M18,8C12.5,8,8,12.5,8,18s4.5,10,10,10c5.5,0,10-4.5,10-10S23.5,8,18,8z M14.5,14c0.8,0,1.5,0.7,1.5,1.5
	S15.3,17,14.5,17S13,16.3,13,15.5S13.7,14,14.5,14z M18,24c-2.3,0-4.2-1.7-5-4h10C22.2,22.3,20.3,24,18,24z M21.5,17
	c-0.8,0-1.5-0.7-1.5-1.5s0.7-1.5,1.5-1.5s1.5,0.7,1.5,1.5S22.3,17,21.5,17z"/>
</svg>
