<svg width="166" height="137" viewBox="0 0 166 137" fill="none" xmlns="http://www.w3.org/2000/svg">
<g clip-path="url(#clip0_1072_111813)">
<path d="M105.632 0H60.3715C53.1415 0 47.2615 5.88001 47.2615 13.11V58.3709C47.2615 65.601 53.1415 71.481 60.3715 71.481H105.632C112.862 71.481 118.742 65.601 118.742 58.3709V13.11C118.742 5.88001 112.862 0 105.632 0Z" fill="url(#paint0_linear_1072_111813)"/>
<path d="M95.9325 19.9343H94.5552C94.403 19.9343 94.2626 19.9382 94.1221 19.946H92.9242C91.4455 19.946 90.0681 20.7108 89.2917 21.9711L86.8023 24.913C86.8023 24.913 85.4094 26.5245 82.9903 26.4972C80.5711 26.4698 79.1938 24.913 79.1938 24.913L76.7045 21.9711C75.928 20.7108 74.5546 19.946 73.0719 19.946H71.874C71.7375 19.946 71.597 19.9382 71.4526 19.9382H70.0636C66.8173 19.9733 64.1758 22.6422 64.1758 25.8885V50.0133H71.9794C71.5502 48.3511 71.3434 46.7007 71.3434 44.2425C71.3434 43.6261 71.3863 42.7013 71.476 42.038C71.5346 41.6205 71.6672 41.0236 72.1511 40.6607C72.4944 40.4071 72.83 40.2861 73.1811 40.2861C73.2358 40.2861 73.2943 40.2861 73.3606 40.2978H73.3918C73.3918 40.2978 73.4309 40.2978 73.4504 40.3017C74.8589 40.5553 74.6326 42.1863 74.5273 42.9667C74.4687 43.392 74.4414 43.8211 74.4414 44.2425C74.4414 47.087 74.9643 48.8818 76.1309 50.0523C76.2558 50.1772 76.3962 50.2864 76.5328 50.3957C77.8087 51.4062 79.7401 51.9018 82.4362 51.9018C82.6118 51.9018 82.7913 51.9018 82.9708 51.894C85.8542 51.8315 87.9065 51.3399 89.2448 50.3918C90.8485 49.2525 91.5352 47.4147 91.5352 44.2425C91.5352 43.8172 91.5079 43.392 91.4494 42.9823C91.3401 42.198 91.1177 40.5709 92.5263 40.3173C92.5809 40.3095 92.6277 40.3056 92.6784 40.3056H92.7877C93.1466 40.3056 93.4939 40.4344 93.8256 40.6841C94.3094 41.047 94.442 41.6439 94.4967 42.0614C94.5864 42.7169 94.6254 43.63 94.6254 44.2464C94.6254 46.7007 94.4186 48.3511 93.9894 50.0172H101.816V44.5001C101.816 44.4727 101.82 44.4454 101.82 44.4181V25.8885C101.82 22.6422 99.1788 19.9733 95.9325 19.9382V19.9343ZM75.8812 36.915C75.5495 37.3598 75.0735 37.6173 74.5702 37.6173H74.5195C73.5557 37.5822 72.7558 36.8564 72.5803 35.8537C72.5529 35.6976 72.5412 35.5337 72.5451 35.3738L72.5529 35.1865C72.5608 35.0187 72.5842 34.8509 72.6232 34.6909C72.7675 34.1369 73.1226 33.6531 73.5947 33.3682C73.903 33.1809 74.2502 33.0834 74.5936 33.0834C74.6209 33.0834 74.6482 33.0834 74.6755 33.0834C75.1984 33.1029 75.6783 33.3916 75.9865 33.8794C76.2519 34.293 76.3845 34.8392 76.365 35.4128C76.3455 35.9863 76.1738 36.517 75.8812 36.915ZM93.4159 35.8537C93.2403 36.8564 92.4404 37.5822 91.4767 37.6134H91.4221C90.4427 37.6134 89.6701 36.6652 89.6272 35.4089C89.6077 34.7924 89.7638 34.2149 90.0681 33.7857C90.3803 33.3487 90.8251 33.099 91.3167 33.0795C91.3401 33.0795 91.3674 33.0795 91.3908 33.0795C91.742 33.0795 92.0932 33.177 92.4014 33.3643C92.8735 33.6492 93.2286 34.1291 93.373 34.6831C93.4159 34.847 93.4393 35.0109 93.4471 35.1787L93.4549 35.3698C93.4588 35.5337 93.4471 35.6937 93.4198 35.8498L93.4159 35.8537Z" fill="white"/>
<path d="M21.8724 87.3575C19.0553 85.1374 14.8804 84.0098 9.46471 84.0098H1.22021C1.01341 84.0098 0.892456 84.1307 0.892456 84.3375V112.185C0.892456 112.391 1.01341 112.512 1.22021 112.512H9.76905C15.1145 112.512 19.2192 111.311 21.9739 108.934C24.7325 106.558 26.1293 102.91 26.1293 98.0875C26.1293 93.2648 24.6973 89.5776 21.8724 87.3536V87.3575ZM20.6473 98.0914C20.6473 101.166 19.863 103.546 18.3179 105.165C16.7728 106.785 14.1898 107.604 10.6392 107.604H6.25743V88.9221H10.6431C13.9986 88.9221 16.5309 89.6245 18.1774 91.0057C19.8162 92.383 20.6512 94.767 20.6512 98.0914H20.6473Z" fill="#17214C"/>
<path d="M42.15 94.4354C40.6634 93.6707 38.9428 93.2805 37.0348 93.2805C35.1268 93.2805 33.3671 93.6707 31.8844 94.4354C30.3939 95.2041 29.2234 96.3317 28.404 97.7871C27.5885 99.2386 27.1749 100.979 27.1749 102.961C27.1749 104.943 27.5885 106.679 28.404 108.119C29.2234 109.563 30.3939 110.683 31.8844 111.455C33.3671 112.22 35.0995 112.61 37.0348 112.61C38.9701 112.61 40.6673 112.224 42.15 111.455C43.6405 110.686 44.8228 109.559 45.6656 108.103C46.5044 106.652 46.9297 104.923 46.9297 102.961C46.9297 100.998 46.5044 99.2347 45.6656 97.7832C44.8228 96.3278 43.6405 95.2041 42.15 94.4315V94.4354ZM37.0348 108.275C35.5248 108.275 34.3269 107.768 33.4763 106.773C32.6179 105.766 32.1809 104.463 32.1809 102.891C32.1809 101.318 32.6257 100.066 33.5075 99.0825C34.3815 98.107 35.5677 97.6115 37.0348 97.6115C38.5019 97.6115 39.7231 98.0953 40.5971 99.0474C41.475 100.007 41.9237 101.299 41.9237 102.887C41.9237 104.475 41.5296 105.797 40.7454 106.792C39.9767 107.772 38.7282 108.271 37.0348 108.271V108.275Z" fill="#17214C"/>
<path d="M65.077 95.0675C64.3747 94.5603 63.3173 94.1116 61.9322 93.7409C60.7733 93.4327 59.5014 93.2727 58.1435 93.2727C57.8821 93.2727 57.6129 93.2805 57.3437 93.2922C55.4981 93.3624 53.7306 93.9633 52.0918 95.0792C50.4492 96.1951 49.3099 97.592 48.709 99.2269C48.2798 100.401 48.0613 101.638 48.0613 102.906C48.0613 104.775 48.5334 106.523 49.4698 108.103C50.4063 109.688 51.7446 110.893 53.4497 111.685C54.8387 112.31 56.4736 112.622 58.3113 112.622C59.4779 112.622 60.6056 112.489 61.6669 112.228C62.732 111.962 63.6763 111.576 64.4683 111.069C64.6283 110.948 64.7064 110.796 64.7064 110.612L64.8468 106.8C64.8468 106.402 64.5776 106.383 64.5269 106.383C64.4449 106.383 64.3552 106.414 64.2537 106.476L64.242 106.484L64.2303 106.492C63.5475 107.062 62.7242 107.503 61.7878 107.799C60.8475 108.1 59.8798 108.248 58.9122 108.248C57.7885 108.248 56.7584 108.053 55.8454 107.663C55.065 107.327 54.4056 106.734 53.8867 105.903C53.3677 105.068 53.1024 104.092 53.1024 103.004C53.1024 102.594 53.1609 102.095 53.2741 101.525C53.5667 100.245 54.2261 99.2581 55.2367 98.5948C56.259 97.9237 57.4256 97.5842 58.6976 97.5842C60.5002 97.5842 62.1702 98.2436 63.6568 99.5507C63.7543 99.6326 63.8441 99.6678 63.9338 99.6678C64.0313 99.6678 64.1991 99.6248 64.2733 99.34L65.2643 95.5592C65.3072 95.3524 65.2409 95.1807 65.0848 95.0597L65.077 95.0675Z" fill="#17214C"/>
<path d="M80.2004 93.4171H74.9564V90.0654C74.9564 89.8118 74.7925 89.6479 74.5389 89.6479H71.9208C71.7218 89.6479 71.5619 89.7611 71.4838 89.9523L70.0167 93.4171H67.3206C67.106 93.4171 66.9499 93.5458 66.907 93.7565L65.9199 97.3501V97.3735C65.8925 97.5218 65.9198 97.6427 65.9979 97.7325C66.0447 97.7871 66.1383 97.8534 66.2944 97.8534H69.8763V107.073C69.8763 108.849 70.4186 110.23 71.4838 111.186C72.5451 112.134 73.9537 112.618 75.6704 112.618C77.6174 112.618 79.1587 112.2 80.2512 111.373L80.2629 111.365L80.2746 111.354C80.3643 111.264 80.4072 111.139 80.4072 110.963V107.994C80.4072 107.686 80.2004 107.577 80.0249 107.577H79.9156L79.8805 107.588C78.589 108.072 77.5433 108.318 76.7708 108.318C75.5339 108.318 74.9603 107.674 74.9603 106.293V97.8534H78.8933C79.1235 97.8534 79.2913 97.7325 79.3381 97.5257L80.5711 93.9282C80.6179 93.7683 80.6023 93.6473 80.5321 93.5497C80.4853 93.4873 80.3877 93.4093 80.2043 93.4093L80.2004 93.4171Z" fill="#17214C"/>
<path d="M95.7335 94.4276C94.2469 93.6629 92.5263 93.2727 90.6183 93.2727C88.7103 93.2727 86.9506 93.6629 85.4679 94.4276C83.9774 95.1963 82.8069 96.3239 81.9875 97.7793C81.172 99.2308 80.7584 100.971 80.7584 102.953C80.7584 104.935 81.172 106.671 81.9875 108.111C82.8069 109.555 83.9774 110.675 85.4679 111.447C86.9506 112.212 88.683 112.602 90.6183 112.602C92.5536 112.602 94.2508 112.216 95.7335 111.447C97.224 110.679 98.4063 109.551 99.2491 108.096C100.088 106.644 100.513 104.916 100.513 102.953C100.513 100.99 100.088 99.2268 99.2491 97.7754C98.4063 96.32 97.224 95.1924 95.7335 94.4237V94.4276ZM95.5072 102.887C95.5072 104.483 95.1131 105.797 94.3289 106.792C93.5602 107.772 92.3117 108.271 90.6183 108.271C89.1083 108.271 87.9104 107.764 87.0598 106.769C86.2014 105.762 85.7644 104.459 85.7644 102.887C85.7644 101.314 86.2092 100.062 87.091 99.0786C87.965 98.1031 89.1512 97.6076 90.6183 97.6076C92.0854 97.6076 93.3066 98.0914 94.1806 99.0435C95.0585 100.003 95.5072 101.295 95.5072 102.883V102.887Z" fill="#17214C"/>
<path d="M114.47 93.6861C113.662 93.4169 112.878 93.2843 112.129 93.2843C110.99 93.2843 109.905 93.5652 108.898 94.1231C108.087 94.5758 107.373 95.1961 106.772 95.9804L106.885 93.3545C106.885 93.0384 106.678 92.9292 106.502 92.9292H106.389L102.289 93.8929C102.051 93.9749 102.023 94.0295 102.023 94.3729V112.192C102.023 112.446 102.187 112.61 102.441 112.61H106.686C106.939 112.61 107.103 112.446 107.103 112.192V100.206C107.685 99.5037 108.313 98.9692 108.976 98.6141C109.651 98.2552 110.428 98.0718 111.286 98.0718C111.938 98.0718 112.472 98.1576 112.87 98.3215C113.256 98.4815 113.6 98.739 113.873 99.0979C113.99 99.2501 114.076 99.3203 114.169 99.3164C114.209 99.3164 114.263 99.3125 114.298 99.2969C114.361 99.2735 114.497 99.2462 114.497 98.9263L114.778 94.1271C114.778 93.9125 114.669 93.7564 114.474 93.6783L114.47 93.6861Z" fill="#17214C"/>
<path d="M143.577 84.2478H138.287C138.162 84.2478 138.064 84.3102 137.986 84.4351L130.971 95.6137C130.947 95.6879 130.9 95.7191 130.838 95.7074C130.776 95.6957 130.721 95.6645 130.67 95.6137L123.019 84.4C122.945 84.3024 122.843 84.2517 122.718 84.2517H117.767C117.619 84.2517 117.541 84.3258 117.541 84.478V111.935H117.931L117.939 111.978L117.946 112.017V112.095L117.564 112.087C117.591 112.177 117.646 112.235 117.763 112.235H122.414C122.566 112.235 122.64 112.161 122.64 112.009V91.9031L130.479 103.195C130.58 103.296 130.666 103.343 130.74 103.343C130.791 103.343 130.865 103.292 130.967 103.195L138.692 92.2816V112.009C138.692 112.157 138.766 112.235 138.919 112.235H143.57C143.718 112.235 143.796 112.161 143.796 112.009V84.478C143.796 84.3297 143.722 84.2517 143.57 84.2517L143.577 84.2478ZM130.756 96.1054C130.994 96.1561 131.22 96.039 131.33 95.8127C131.228 96.039 131.002 96.16 130.756 96.1054Z" fill="#17214C"/>
<path d="M131.337 95.801C131.337 95.801 131.333 95.8088 131.33 95.8127C131.33 95.8088 131.337 95.8049 131.337 95.801Z" fill="#00215A"/>
<path d="M130.76 96.1054C131.006 96.16 131.232 96.039 131.334 95.8127C131.224 96.039 130.998 96.1561 130.76 96.1054Z" fill="#00215A"/>
<path d="M117.95 111.97L117.939 111.927H117.806H117.623H117.548V112.079H117.576L117.958 112.083V112.009L117.95 111.97Z" fill="#00215A"/>
<path d="M163.999 97.0847C163.262 95.6099 162.216 94.4588 160.866 93.6356C159.516 92.8123 157.928 92.3987 156.102 92.3987C154.276 92.3987 152.622 92.8435 151.131 93.7292C149.645 94.6188 148.474 95.8362 147.624 97.3852C146.773 98.9381 146.348 100.663 146.348 102.563C146.348 104.838 146.949 106.796 148.146 108.431C149.348 110.07 151.01 111.213 153.137 111.865C154.136 112.189 155.388 112.352 156.886 112.352C158.26 112.352 159.563 112.204 160.788 111.904C162.013 111.603 163.001 111.166 163.754 110.589C163.878 110.491 163.941 110.351 163.941 110.175L164.241 106.16C164.241 105.934 164.152 105.887 163.98 106.012C163.055 106.835 162.052 107.417 160.979 107.756C159.903 108.092 158.728 108.263 157.452 108.263C153.902 108.263 151.9 106.851 151.451 104.026H164.729C164.877 104.026 164.967 103.952 164.99 103.8C165.065 103.226 165.104 102.66 165.104 102.114C165.104 100.237 164.733 98.5635 163.995 97.0886L163.999 97.0847ZM152.146 99.976C152.438 99.0825 152.887 98.3762 153.484 97.8651C154.179 97.272 155.127 96.9716 156.293 96.9716C157.46 96.9716 158.35 97.2993 159.029 97.947C159.618 98.505 159.926 99.1722 159.969 99.9799H152.142L152.146 99.976ZM152.446 99.0903C152.606 98.782 152.786 98.4972 152.992 98.2514C152.782 98.4972 152.606 98.7859 152.446 99.0903Z" fill="#17214C"/>
<path d="M31.0144 121.365H34.6157C35.1698 121.365 35.4507 121.65 35.4507 122.216C35.4507 122.782 35.1737 123.051 34.6157 123.051H33.1252V123.866C33.1252 124.019 33.1174 124.139 33.1057 124.221H35.041C35.5951 124.221 35.876 124.498 35.876 125.056C35.876 125.614 35.599 125.907 35.041 125.907H32.9106C33.3828 126.168 34.1124 126.582 35.0917 127.148C35.4117 127.362 35.5678 127.557 35.5639 127.741C35.5561 127.924 35.4 128.151 35.0917 128.424C34.842 128.65 34.6235 128.771 34.4362 128.787C34.2451 128.802 34.0266 128.712 33.7807 128.509C33.414 128.213 32.8521 127.799 32.0952 127.269C31.5372 128.061 30.7529 128.767 29.7346 129.38C29.0947 129.723 28.5991 129.7 28.2441 129.309C27.7134 128.728 27.9475 128.19 28.9542 127.694C29.7463 127.175 30.3081 126.574 30.6398 125.903H28.4938C27.9358 125.903 27.6588 125.618 27.6588 125.053C27.6588 124.487 27.9358 124.218 28.4938 124.218H28.8645C28.7474 124.147 28.4938 123.999 28.1036 123.773C27.9397 123.691 27.8422 123.566 27.8188 123.398C27.7954 123.234 27.85 123.078 27.9788 122.938C28.4626 122.356 28.8645 121.65 29.1844 120.807C29.3639 120.203 29.7658 119.968 30.3901 120.097C31.0417 120.226 31.2485 120.647 31.0105 121.357L31.0144 121.365ZM29.7892 123.656C29.7541 123.691 29.7112 123.749 29.6643 123.831C29.6175 123.913 29.5746 123.972 29.5395 124.011C29.4341 124.151 29.4732 124.225 29.6643 124.225H31.0846C31.0963 124.132 31.1002 123.999 31.1002 123.835V123.055H30.195C30.113 123.195 29.9765 123.398 29.7853 123.66L29.7892 123.656ZM31.2251 129.317H40.5972C40.9522 129.317 41.2371 129.426 41.4595 129.645C41.678 129.863 41.7872 130.152 41.7872 130.507V135.209C41.7872 135.564 41.678 135.849 41.4595 136.059C41.241 136.274 40.9522 136.379 40.5972 136.379H31.2251C30.87 136.379 30.5813 136.274 30.3628 136.059C30.1443 135.845 30.035 135.564 30.035 135.209V130.507C30.035 130.152 30.1443 129.867 30.3628 129.645C30.5813 129.426 30.87 129.317 31.2251 129.317ZM32.1498 132.033H39.5866V131.448C39.5866 131.151 39.4383 131.003 39.1418 131.003H32.5946C32.2981 131.003 32.1498 131.151 32.1498 131.448V132.033ZM39.5866 133.594H32.1498V134.214C32.1498 134.51 32.2981 134.659 32.5946 134.659H39.1418C39.4383 134.659 39.5866 134.51 39.5866 134.214V133.594ZM42.1423 128.236H37.6708C37.3158 128.236 37.0309 128.127 36.8202 127.909C36.6056 127.69 36.5003 127.401 36.5003 127.046V122.52C36.5003 122.165 36.6056 121.88 36.8202 121.658C37.0309 121.439 37.3158 121.33 37.6708 121.33H42.1423C42.4974 121.33 42.7822 121.439 43.0046 121.658C43.2231 121.876 43.3323 122.165 43.3323 122.52V127.046C43.3323 127.401 43.2231 127.686 43.0046 127.909C42.7861 128.127 42.4974 128.236 42.1423 128.236ZM38.4668 123.695V125.876C38.4668 126.172 38.6151 126.321 38.9116 126.321H40.7767C41.0615 126.321 41.202 126.172 41.202 125.876V123.695C41.202 123.398 41.0615 123.25 40.7767 123.25H38.9116C38.6151 123.25 38.4668 123.398 38.4668 123.695Z" fill="#17214C"/>
<path d="M50.0707 134.035C49.6571 134.948 49.185 135.654 48.6505 136.165C48.2369 136.508 47.8116 136.524 47.3746 136.22C46.6879 135.724 46.6566 135.197 47.2848 134.639C47.6633 134.202 47.952 133.789 48.1549 133.399C48.4164 132.794 48.8651 132.607 49.505 132.829C50.1097 133.044 50.297 133.445 50.0746 134.035H50.0707ZM48.9002 126.672H59.9735C60.3286 126.672 60.6134 126.781 60.8241 127C61.0348 127.218 61.144 127.507 61.144 127.862V128.662H62.1C62.5136 128.662 62.7204 128.869 62.7204 129.282C62.7204 129.696 62.5136 129.922 62.1 129.922H61.144V130.968C61.144 131.264 61.0621 131.494 60.8943 131.658C60.7304 131.822 60.4963 131.908 60.2037 131.908H55.6776C55.7361 131.943 55.8298 132.013 55.9624 132.111C56.0912 132.212 56.1887 132.287 56.2473 132.333C56.6843 132.759 56.6687 133.18 56.1926 133.594C55.6971 134.031 55.2406 134.038 54.827 133.613C54.1754 133.071 53.7033 132.708 53.4068 132.532C53.1453 132.392 53.1531 132.185 53.4224 131.912H48.7909C48.3539 131.912 48.1354 131.697 48.1354 131.272C48.1354 130.847 48.3539 130.617 48.7909 130.617H58.6391C58.9356 130.617 59.0839 130.468 59.0839 130.172V129.922H47.476C47.0741 129.922 46.8712 129.707 46.8712 129.282C46.8712 128.857 47.0741 128.662 47.476 128.662H59.0839V128.272C59.0839 128.084 58.9902 127.987 58.799 127.987H48.8963C48.4593 127.987 48.2408 127.768 48.2408 127.331C48.2408 126.894 48.4593 126.676 48.8963 126.676L48.9002 126.672ZM48.35 125.962L47.6399 125.997C47.1912 126.009 46.9493 125.782 46.9142 125.322C46.8908 125.072 46.9181 124.893 47.0039 124.779C47.0858 124.666 47.2458 124.604 47.4838 124.592C48.5373 124.569 49.2865 124.545 49.7391 124.522V123.847H48.1432C47.7296 123.847 47.5228 123.632 47.5228 123.207C47.5228 122.782 47.7296 122.587 48.1432 122.587H49.7391V122.251C49.7391 122.099 49.6688 122.021 49.5284 122.021H47.6984C47.2848 122.021 47.078 121.806 47.078 121.381C47.078 120.979 47.2848 120.776 47.6984 120.776H49.7391V120.741C49.7391 120.515 49.8405 120.343 50.0395 120.218C50.2424 120.093 50.4687 120.031 50.7301 120.031C50.9915 120.031 51.2178 120.093 51.4129 120.218C51.608 120.343 51.7056 120.519 51.7056 120.741V120.776H53.516C53.9296 120.776 54.1364 120.979 54.1364 121.381C54.1364 121.806 53.9296 122.021 53.516 122.021H52.1504C51.8538 122.021 51.7056 122.169 51.7056 122.466V122.591H53.3209C53.7345 122.591 53.9413 122.797 53.9413 123.211C53.9413 123.625 53.7345 123.851 53.3209 123.851H51.7056V124.186C51.7056 124.342 51.7836 124.413 51.9358 124.401L53.4965 124.346C53.7306 124.335 53.9062 124.385 54.0193 124.499C54.1325 124.612 54.1832 124.779 54.1676 125.006C54.1559 125.431 53.9413 125.65 53.5277 125.661C53.1141 125.685 52.5054 125.72 51.6978 125.767V125.802C51.6978 126.005 51.5807 126.161 51.3505 126.274C51.1203 126.387 50.8823 126.442 50.6326 126.442C50.4297 126.442 50.2307 126.391 50.0278 126.289C49.8249 126.188 49.7274 126.063 49.7274 125.907V125.872L48.3422 125.962H48.35ZM56.7623 136.785H53.8516C52.7161 136.785 51.9553 136.621 51.5729 136.298C51.1866 135.974 50.9954 135.349 50.9954 134.425V133.539C50.9954 132.829 51.3505 132.474 52.0606 132.474C52.7708 132.474 53.1258 132.829 53.1258 133.539V134.425C53.1258 134.651 53.1805 134.792 53.2936 134.85C53.4068 134.909 53.6682 134.94 54.0818 134.94H56.5321C56.6843 134.94 56.7935 134.936 56.852 134.92C57.2188 134.023 57.769 133.715 58.5025 133.999C58.998 134.202 59.158 134.725 58.9824 135.58C58.8303 136.028 58.5805 136.341 58.2372 136.52C57.8938 136.699 57.4022 136.785 56.7662 136.785H56.7623ZM61.9439 125.712H59.3726V125.747C59.3726 125.962 59.2751 126.13 59.08 126.254C58.8849 126.379 58.6547 126.442 58.3972 126.442C58.1396 126.442 57.9094 126.379 57.7143 126.254C57.5193 126.13 57.4217 125.962 57.4217 125.747V125.712H55.3616C54.9363 125.712 54.7217 125.497 54.7217 125.072C54.7217 124.647 54.9363 124.452 55.3616 124.452H56.9769C57.2734 124.452 57.4217 124.303 57.4217 124.007V123.847H55.8415C55.4396 123.847 55.2367 123.632 55.2367 123.207C55.2367 122.782 55.4396 122.587 55.8415 122.587H57.4217V122.251C57.4217 122.099 57.3437 122.021 57.1915 122.021H55.4864C55.0728 122.021 54.866 121.806 54.866 121.381C54.866 120.979 55.0728 120.776 55.4864 120.776H57.4217V120.741C57.4217 120.515 57.5193 120.343 57.7143 120.218C57.9094 120.093 58.1357 120.031 58.3972 120.031C58.6586 120.031 58.8849 120.093 59.08 120.218C59.2751 120.343 59.3726 120.519 59.3726 120.741V120.776H61.5888C62.0024 120.776 62.2092 120.979 62.2092 121.381C62.2092 121.806 62.0024 122.021 61.5888 122.021H59.8135C59.517 122.021 59.3687 122.169 59.3687 122.466V122.591H61.2845C61.6864 122.591 61.8893 122.797 61.8893 123.211C61.8893 123.625 61.6864 123.851 61.2845 123.851H59.3687V124.206C59.3687 124.374 59.4467 124.456 59.5989 124.456H61.94C62.3536 124.456 62.5604 124.662 62.5604 125.076C62.5604 125.49 62.3536 125.716 61.94 125.716L61.9439 125.712ZM60.7734 135.685C60.43 135.236 59.9618 134.698 59.3726 134.07C58.8029 133.539 58.8615 133.071 59.5482 132.669C59.9735 132.431 60.3832 132.466 60.7734 132.774C61.5654 133.449 62.2092 134.113 62.7086 134.764C62.8725 135.061 62.9233 135.303 62.8608 135.49C62.7945 135.677 62.6111 135.865 62.3029 136.04C61.6396 136.419 61.1323 136.302 60.7773 135.685H60.7734Z" fill="#17214C"/>
<path d="M80.1341 122.306C80.2511 122.306 80.3331 122.294 80.3721 122.271C80.415 122.247 80.4462 122.181 80.4696 122.076V122.056C80.4931 121.853 80.575 121.732 80.7194 121.681C80.8598 121.635 81.0159 121.658 81.1798 121.752C81.4178 121.88 81.5739 122.083 81.6519 122.356C81.7299 122.63 81.6948 122.887 81.5543 123.137C81.3163 123.504 80.8754 123.687 80.2238 123.687H79.4591C78.9636 123.687 78.589 123.562 78.3393 123.312C78.1832 123.149 78.0857 122.879 78.0388 122.513C78.0271 122.087 77.871 121.873 77.5784 121.873H76.4235C76.365 122.513 76.1035 123.063 75.6431 123.523C75.37 123.749 75.3817 123.859 75.6782 123.859H79.3888C79.8024 123.859 80.0834 123.983 80.2316 124.233C80.3799 124.483 80.3604 124.83 80.1692 125.279C79.8961 125.798 79.4903 126.278 78.944 126.715C79.3576 126.844 79.8298 126.957 80.3643 127.05C80.813 127.109 81.0978 127.265 81.2149 127.511C81.3319 127.76 81.2617 128.061 81.0003 128.416C80.9886 128.451 80.9652 128.498 80.9301 128.556C80.8949 128.615 80.8637 128.662 80.8403 128.697H80.8949C81.3437 128.697 81.57 128.927 81.57 129.387C81.57 129.848 81.3437 130.078 80.8949 130.078H75.9241V130.663H79.4903C79.8454 130.663 80.1302 130.769 80.3409 130.983C80.5555 131.198 80.6608 131.479 80.6608 131.834V135.42C80.6608 135.775 80.5555 136.06 80.3409 136.278C80.1302 136.497 79.8454 136.606 79.4903 136.606H67.9215C67.5664 136.606 67.2816 136.497 67.0709 136.278C66.8563 136.06 66.7509 135.771 66.7509 135.42V131.834C66.7509 131.479 66.8563 131.194 67.0709 130.983C67.2816 130.769 67.5664 130.663 67.9215 130.663H71.1678V130.078H66.5363C66.0759 130.078 65.8457 129.848 65.8457 129.387C65.8457 128.927 66.0759 128.697 66.5363 128.697H80.2355C79.1118 128.498 78.1286 128.178 77.2897 127.737C76.7317 127.975 76.2089 128.162 75.7095 128.307C74.9876 128.471 74.457 128.24 74.1136 127.616C74.0902 127.581 74.0083 127.476 73.8639 127.296V127.792C73.8639 128.041 73.739 128.162 73.4893 128.162H67.4728C67.1177 128.162 66.8329 128.057 66.6144 127.842C66.3959 127.628 66.2866 127.347 66.2866 126.992V121.775C66.2866 121.42 66.3959 121.135 66.6144 120.913C66.8329 120.694 67.1216 120.585 67.4728 120.585H73.1148C73.5166 120.585 73.7195 120.788 73.7195 121.19C73.7195 121.592 73.5166 121.81 73.1148 121.81H69.8685L70.1533 121.88C70.2586 121.892 70.3055 121.951 70.2938 122.048C70.282 122.15 70.2586 122.235 70.2235 122.306C70.1884 122.376 70.2313 122.419 70.3484 122.431H72.6543C72.9743 122.431 73.1343 122.598 73.1343 122.926C73.1343 123.254 72.9743 123.406 72.6543 123.406H71.5345V123.956H72.9548C73.2981 123.956 73.4698 124.128 73.4698 124.471C73.4698 124.815 73.2981 124.986 72.9548 124.986H71.835C72.1081 125.154 72.4163 125.353 72.7597 125.591C72.9392 125.72 73.0328 125.895 73.0445 126.114C73.0562 126.332 72.9743 126.547 72.7948 126.762L72.6348 126.941H73.5947C73.7703 126.941 73.86 127.031 73.86 127.206V127.261C74.5233 127.156 75.1983 126.988 75.885 126.765C75.6704 126.59 75.4402 126.352 75.1944 126.055C75.0383 125.829 74.9915 125.634 75.0422 125.47C75.0969 125.306 75.2529 125.193 75.5144 125.135L75.7641 125.08H75.0032C74.5662 125.08 74.3477 124.865 74.3477 124.44V124.19C74.219 124.015 74.0239 123.781 73.7625 123.5C73.4191 123.203 73.5752 122.891 74.2229 122.559C74.6248 122.251 74.8276 121.849 74.8276 121.354V120.839C74.8276 120.566 74.9564 120.429 75.2178 120.429H78.4836C78.8387 120.429 79.1274 120.538 79.3459 120.757C79.5644 120.975 79.6737 121.264 79.6737 121.619V122.099C79.6737 122.134 79.6737 122.157 79.6815 122.169C79.6893 122.181 79.6932 122.2 79.701 122.224C79.7049 122.247 79.7166 122.263 79.7361 122.267C79.7517 122.275 79.7751 122.278 79.7985 122.282C79.8219 122.29 79.8454 122.29 79.8688 122.29H80.1341V122.306ZM67.8902 122.271V126.512C67.8902 126.808 68.0385 126.957 68.3351 126.957H68.9398C68.8228 126.777 68.6784 126.609 68.5145 126.442C68.2414 126.192 68.3468 125.993 68.8345 125.837C69.3534 125.634 69.7397 125.357 69.9894 125.002H68.6589C68.3272 125.002 68.1634 124.83 68.1634 124.487C68.1634 124.143 68.3272 123.972 68.6589 123.972H69.0647C68.9008 123.855 68.7057 123.734 68.4794 123.617C68.1712 123.453 68.1439 123.23 68.3897 122.961C68.7096 122.583 68.9437 122.204 69.0998 121.826H68.339C68.0424 121.826 67.8941 121.974 67.8941 122.271H67.8902ZM69.4002 132.829C70.2977 132.556 70.8439 132.212 71.0312 131.799H69.1154C68.8189 131.799 68.6706 131.947 68.6706 132.244V133.949H69.5563C69.4627 133.797 69.3144 133.605 69.1115 133.379C68.8267 133.094 68.9242 132.911 69.3963 132.829H69.4002ZM78.6631 134.994H68.6706V135.314C68.6706 135.431 68.7369 135.494 68.8657 135.494H78.2183C78.5148 135.494 78.6631 135.353 78.6631 135.069V134.998V134.994ZM69.5602 123.426C69.5134 123.484 69.4354 123.578 69.33 123.699C69.2247 123.824 69.1466 123.913 69.0998 123.976H70.2196V123.426H69.5641H69.5602ZM69.2247 126.957H72.1354C72.4202 126.957 72.471 126.879 72.2954 126.726C71.7842 126.313 71.3472 125.993 70.9805 125.767C70.6254 126.239 70.0401 126.637 69.2247 126.957ZM70.3055 133.949H78.6631V133.434H76.2674C75.4636 133.434 74.9291 133.34 74.6677 133.157C74.4063 132.973 74.2775 132.591 74.2775 132.013V131.799H72.7324C72.5061 132.77 71.6984 133.484 70.3016 133.945L70.3055 133.949ZM72.7909 130.683H74.2814V130.098H72.7909V130.683ZM75.9319 132.013C75.9319 132.216 75.967 132.337 76.0372 132.388C76.1074 132.435 76.2557 132.458 76.482 132.458H78.1871C78.4719 132.458 78.6241 132.423 78.6475 132.353H78.6631V132.033C78.6631 131.881 78.5851 131.803 78.4329 131.803H75.9319V132.017V132.013ZM77.4223 126.032C77.7657 125.81 78.113 125.493 78.468 125.092H76.3728C76.6693 125.47 77.0166 125.782 77.4184 126.032H77.4223Z" fill="#17214C"/>
<path d="M99.9201 123.281H94.0635L94.7385 123.371C95.2107 123.441 95.2887 123.796 94.9688 124.436H99.8655C100.396 124.436 100.665 124.701 100.665 125.236C100.665 125.771 100.4 126.051 99.8655 126.051H99.4402L100.08 126.512C100.447 126.785 100.462 127.07 100.135 127.362L99.3895 127.948C99.448 127.983 99.5378 128.038 99.6626 128.116C99.7875 128.194 99.8772 128.248 99.9357 128.283C100.338 128.463 100.576 128.658 100.646 128.869C100.716 129.083 100.622 129.36 100.361 129.704C99.9709 130.176 99.4753 130.211 98.8706 129.809V131.6C98.8706 131.955 98.7652 132.244 98.5506 132.462C98.336 132.681 98.0551 132.79 97.7 132.79H95.7296V135.115C95.7296 135.576 95.675 135.927 95.5618 136.161C95.4487 136.399 95.238 136.586 94.9336 136.731C94.5318 136.883 94.0011 136.973 93.3378 136.996C92.7096 136.996 92.3077 136.766 92.1321 136.305C92.0034 135.939 92.0268 135.677 92.2024 135.517C92.378 135.357 92.6862 135.283 93.1232 135.295H93.408C93.5719 135.295 93.6577 135.213 93.6577 135.045V132.79H91.7927C91.4376 132.79 91.1489 132.681 90.9304 132.462C90.7119 132.244 90.6026 131.955 90.6026 131.6V129.809C89.9276 130.281 89.4789 130.347 89.2565 130.004C89.0887 129.778 88.8546 129.524 88.5464 129.239C88.3435 132.15 87.7114 134.421 86.6501 136.056C86.4004 136.364 86.1663 136.536 85.9478 136.571C85.7293 136.606 85.4718 136.493 85.1752 136.235C84.7031 135.775 84.6836 135.24 85.1206 134.639C85.7839 133.586 86.217 132.322 86.416 130.843C86.3224 130.901 86.1741 130.995 85.9712 131.116C85.7683 131.241 85.6239 131.331 85.5264 131.393C84.8631 131.783 84.4183 131.619 84.1959 130.898C84.1022 130.601 84.0866 130.355 84.153 130.16C84.2154 129.965 84.3871 129.801 84.6602 129.672C84.8865 129.567 85.2377 129.395 85.7176 129.157C86.1975 128.919 86.494 128.775 86.615 128.713C86.6267 128.381 86.6306 127.909 86.6306 127.292V126.672L85.7956 127.062C85.5615 127.156 85.3625 127.167 85.2104 127.097C85.0543 127.027 84.9684 126.902 84.945 126.723C84.828 126.071 84.6329 125.345 84.3598 124.541C84.1686 123.999 84.3363 123.625 84.8553 123.422C85.3625 123.219 85.7176 123.375 85.9205 123.882C86.2638 124.76 86.5018 125.564 86.6306 126.297V122.641C86.6306 122.286 86.7399 122.001 86.9584 121.791C87.1769 121.576 87.4656 121.471 87.8207 121.471H92.2765V121.151C92.2765 120.406 92.655 120.031 93.4119 120.031C94.1689 120.031 94.5474 120.406 94.5474 121.151V121.471H99.924C100.529 121.471 100.829 121.771 100.829 122.376C100.829 122.981 100.529 123.281 99.924 123.281H99.9201ZM93.3534 123.281H89.0224C88.7376 123.281 88.5971 123.429 88.5971 123.726V127.292C88.5971 127.6 88.5854 128.119 88.562 128.853C89.1043 128.592 89.6272 128.279 90.1227 127.913C90.0174 127.819 89.873 127.706 89.6974 127.577C89.2487 127.245 89.237 126.898 89.6623 126.531C89.9705 126.258 90.2788 126.231 90.587 126.442C90.8016 126.582 91.024 126.742 91.262 126.922C91.5118 126.648 91.7537 126.36 91.9878 126.051H90.0369C89.5062 126.051 89.237 125.778 89.237 125.236C89.237 124.694 89.5023 124.436 90.0369 124.436H92.9476C93.1349 123.976 93.2715 123.589 93.3534 123.281ZM91.8278 134.514C91.4727 135.057 90.9889 135.615 90.3724 136.181C89.9471 136.547 89.5101 136.567 89.0575 136.235C88.7142 135.95 88.5542 135.693 88.5776 135.455C88.601 135.217 88.7961 134.959 89.1629 134.674C89.5296 134.331 89.8262 134.007 90.0486 133.699C90.3451 133.239 90.7626 133.083 91.3089 133.239C92.0541 133.441 92.2258 133.867 91.8239 134.518L91.8278 134.514ZM92.3975 129.598H97.0289V128.943H92.3975V129.598ZM92.6823 131.514H96.588C96.8845 131.514 97.0328 131.366 97.0328 131.069V130.819H92.4014V131.21C92.4014 131.413 92.495 131.51 92.6862 131.51L92.6823 131.514ZM93.0725 127.663H96.4983C96.0847 127.156 95.7218 126.617 95.4175 126.048H94.1923C93.884 126.59 93.5134 127.132 93.0725 127.663ZM97.9185 135.33C97.86 135.26 97.7585 135.147 97.6181 134.994C97.4776 134.842 97.3684 134.721 97.2981 134.639C96.7792 134.12 96.8533 133.699 97.5283 133.379C97.9419 133.164 98.3165 133.219 98.6481 133.539C99.2529 134.132 99.7524 134.663 100.158 135.135C100.345 135.42 100.412 135.646 100.353 135.818C100.295 135.989 100.111 136.153 99.8031 136.305C99.2256 136.59 98.7847 136.501 98.4882 136.04C98.4296 135.958 98.3321 135.833 98.1955 135.666C98.059 135.502 97.9653 135.388 97.9185 135.33ZM98.8588 126.528C98.9057 126.481 98.9876 126.403 99.1086 126.297C99.2256 126.192 99.3115 126.106 99.3583 126.048H97.3371C97.5478 126.332 97.8678 126.676 98.2931 127.078C98.4218 126.961 98.613 126.777 98.8627 126.528H98.8588Z" fill="#17214C"/>
<path d="M118.641 136.235H104.321C103.646 136.235 103.311 135.9 103.311 135.225C103.311 134.55 103.646 134.214 104.321 134.214H113.069C113.272 133.044 113.401 132.252 113.459 131.838H108.118V131.873C107.977 132.404 107.591 132.653 106.963 132.618C106.491 132.595 106.159 132.49 105.968 132.306C105.777 132.123 105.738 131.83 105.843 131.428C106.541 128.826 107.146 126.016 107.653 122.996H104.848C104.185 122.996 103.853 122.653 103.853 121.966C103.853 121.28 104.185 120.971 104.848 120.971H118.157C118.82 120.971 119.152 121.303 119.152 121.966C119.152 122.63 118.82 122.996 118.157 122.996H109.995C109.936 123.328 109.799 124.007 109.585 125.037H115.282C115.66 125.037 115.953 125.154 116.159 125.384C116.366 125.615 116.452 125.919 116.417 126.297C116.12 129.138 115.785 131.776 115.406 134.214H118.637C119.3 134.214 119.632 134.55 119.632 135.225C119.632 135.9 119.3 136.235 118.637 136.235H118.641ZM108.563 129.899H113.729C113.787 129.415 113.9 128.439 114.064 126.972H109.183C109.101 127.363 108.98 127.94 108.82 128.701C108.66 129.466 108.574 129.864 108.563 129.899Z" fill="#17214C"/>
<path d="M134.72 124.097H137.506C137.803 124.097 138.017 124.218 138.154 124.46C138.29 124.702 138.353 125.154 138.341 125.817C138.259 129.391 138.158 131.881 138.041 133.289C137.924 134.698 137.729 135.591 137.455 135.97C137.171 136.372 136.866 136.629 136.542 136.742C136.219 136.856 135.7 136.93 134.989 136.965C134.611 136.953 134.299 136.856 134.057 136.672C133.815 136.489 133.663 136.239 133.604 135.919C133.604 135.907 133.604 135.896 133.597 135.884C133.589 135.872 133.589 135.861 133.589 135.849C133.46 135.541 133.46 135.307 133.589 135.147C133.717 134.987 133.979 134.92 134.369 134.944C134.533 134.955 134.744 134.963 134.989 134.963C135.263 134.963 135.469 134.862 135.61 134.663C135.953 134.202 136.172 131.635 136.265 126.961C136.277 126.617 136.25 126.387 136.176 126.27C136.105 126.153 135.992 126.094 135.836 126.094H134.666C134.549 128.459 134.252 130.468 133.78 132.119C133.308 133.769 132.531 135.162 131.454 136.298C131.193 136.547 130.912 136.661 130.604 136.633C130.296 136.61 130.022 136.45 129.788 136.153C129.66 136.001 129.504 135.841 129.328 135.673C125.567 136.052 123.436 136.266 122.941 136.313C122.656 136.337 122.449 136.286 122.32 136.161C122.192 136.036 122.106 135.822 122.071 135.513C122.024 135.193 122.055 134.952 122.16 134.784C122.266 134.62 122.473 134.53 122.781 134.518C122.804 134.518 123.744 134.452 125.602 134.323V133.223H123.187C122.679 133.223 122.426 132.969 122.426 132.462C122.426 131.955 122.679 131.697 123.187 131.697H125.602V130.987H123.666C123.311 130.987 123.027 130.882 122.816 130.667C122.605 130.453 122.496 130.172 122.496 129.817V126.551C122.496 126.196 122.601 125.911 122.816 125.7C123.03 125.486 123.311 125.38 123.666 125.38H125.602V124.67H122.835C122.316 124.67 122.055 124.409 122.055 123.89C122.055 123.371 122.316 123.11 122.835 123.11H125.602V122.384C124.525 122.454 123.744 122.497 123.261 122.509C122.773 122.52 122.469 122.306 122.336 121.869C122.172 121.287 122.418 120.983 123.081 120.944C125.399 120.792 127.451 120.554 129.238 120.234C129.476 120.187 129.664 120.203 129.808 120.289C129.952 120.374 130.085 120.527 130.218 120.749C130.596 121.389 130.436 121.779 129.738 121.92C128.922 122.048 128.185 122.15 127.537 122.22V123.106H130.058C130.354 123.106 130.584 123.188 130.748 123.355C130.912 123.519 130.998 123.753 130.998 124.046V124.101H132.684C132.695 123.519 132.699 122.602 132.699 121.35C132.699 120.651 133.042 120.304 133.729 120.304C134.416 120.304 134.759 120.651 134.759 121.35C134.759 122.048 134.748 122.942 134.724 124.101L134.72 124.097ZM125.598 126.742H124.462C124.271 126.742 124.178 126.836 124.178 127.027V127.542H125.598V126.742ZM125.598 128.818H124.178V129.298C124.178 129.524 124.291 129.633 124.517 129.633H125.598V128.818ZM130.994 124.666H127.533V125.377H129.539C129.894 125.377 130.182 125.482 130.401 125.696C130.619 125.911 130.729 126.192 130.729 126.547V129.813C130.729 130.168 130.619 130.453 130.401 130.663C130.182 130.878 129.894 130.983 129.539 130.983H127.533V131.694H130.034C130.541 131.694 130.795 131.947 130.795 132.458C130.795 132.969 130.541 133.219 130.034 133.219H127.533V134.144C128.278 134.097 129.32 134.015 130.658 133.894C131.322 132.962 131.798 131.865 132.087 130.613C132.375 129.36 132.559 127.85 132.629 126.087H131.759C131.252 126.087 130.998 125.833 130.998 125.322V124.666H130.994ZM128.598 126.742H127.533V127.542H128.934V127.082C128.934 126.855 128.821 126.746 128.598 126.746V126.742ZM127.533 129.633H128.653C128.844 129.633 128.938 129.54 128.938 129.349V128.818H127.537V129.633H127.533Z" fill="#17214C"/>
</g>
<defs>
<linearGradient id="paint0_linear_1072_111813" x1="83.002" y1="71.4849" x2="83.002" y2="0" gradientUnits="userSpaceOnUse">
<stop stop-color="#17C3EB"/>
<stop offset="0.2" stop-color="#2BC8ED"/>
<stop offset="0.5" stop-color="#44CFEF"/>
<stop offset="0.78" stop-color="#54D3F1"/>
<stop offset="1" stop-color="#5AD5F2"/>
</linearGradient>
<clipPath id="clip0_1072_111813">
<rect width="164.215" height="137" fill="white" transform="translate(0.892456)"/>
</clipPath>
</defs>
</svg>
