<svg width="302" height="230" viewBox="0 0 302 230" fill="none" xmlns="http://www.w3.org/2000/svg">
<path d="M120.11 48.3688L119.039 48.6293L111.895 19.275C111.352 17.0439 110.375 14.9415 109.02 13.0879C107.666 11.2342 105.96 9.6656 104 8.47157C102.04 7.27754 99.8639 6.4815 97.5969 6.12888C95.3299 5.77627 93.0159 5.87399 90.787 6.41647L28.6581 21.538C24.1567 22.6336 20.2753 25.4743 17.8678 29.4351C15.4603 33.3959 14.7239 38.1525 15.8206 42.6584L55.0161 203.698C55.5591 205.929 56.5358 208.032 57.8904 209.886C59.2451 211.739 60.9511 213.308 62.9111 214.502C64.8711 215.696 67.0467 216.492 69.3138 216.845C71.5808 217.197 73.8947 217.099 76.1236 216.557L138.253 201.435C142.754 200.34 146.635 197.499 149.043 193.538C151.45 189.577 152.187 184.821 151.09 180.315L124.125 69.5242L125.195 69.2637L120.11 48.3688Z" fill="#3F3D56"/>
<path d="M92.5484 10.6709L84.4385 12.6448C85.0342 13.4693 85.4182 14.4277 85.5568 15.4355C85.6954 16.4433 85.5842 17.4697 85.2331 18.4242C84.8819 19.3787 84.3016 20.232 83.5433 20.9089C82.7849 21.5859 81.8718 22.0657 80.8843 22.3061L45.2914 30.9691C44.3039 31.2093 43.2724 31.2028 42.2878 30.9501C41.3031 30.6974 40.3956 30.2062 39.6451 29.5199C38.8946 28.8335 38.3242 27.973 37.9841 27.0142C37.644 26.0554 37.5447 25.0277 37.6948 24.0217L30.1202 25.8653C28.4557 26.2704 26.8874 26.9997 25.5048 28.0116C24.1222 29.0235 22.9524 30.2981 22.0622 31.7627C21.1719 33.2273 20.5787 34.8532 20.3164 36.5476C20.0541 38.242 20.1278 39.9716 20.5333 41.6377L59.6713 202.441C60.0768 204.108 60.8062 205.678 61.8178 207.062C62.8295 208.446 64.1035 209.618 65.5672 210.509C67.0309 211.401 68.6557 211.996 70.3486 212.259C72.0416 212.522 73.7697 212.449 75.4342 212.044L137.862 196.85C139.527 196.445 141.095 195.715 142.478 194.703C143.86 193.692 145.03 192.417 145.92 190.952C146.811 189.488 147.404 187.862 147.666 186.167C147.928 184.473 147.855 182.743 147.449 181.077L108.311 20.2735C107.906 18.6074 107.176 17.0373 106.165 15.653C105.153 14.2687 103.879 13.0973 102.415 12.2056C100.952 11.3139 99.3269 10.7195 97.6339 10.4561C95.9409 10.1928 94.2128 10.2658 92.5484 10.6709Z" fill="white"/>
<path d="M83.9912 139.029C101.247 139.029 115.236 125.026 115.236 107.753C115.236 90.4795 101.247 76.4766 83.9912 76.4766C66.735 76.4766 52.7461 90.4795 52.7461 107.753C52.7461 125.026 66.735 139.029 83.9912 139.029Z" fill="#67C23A"/>
<path d="M83.7838 121.144C83.1051 121.327 82.3852 121.284 81.7328 121.022L81.6923 121.006L73.1442 117.475C72.7482 117.311 72.3882 117.07 72.085 116.767C71.7818 116.464 71.5411 116.104 71.3769 115.708C71.2126 115.311 71.1279 114.887 71.1276 114.458C71.1273 114.029 71.2114 113.604 71.3752 113.208C71.5389 112.812 71.779 112.451 72.0819 112.148C72.3847 111.845 72.7443 111.604 73.1401 111.44C73.5359 111.276 73.9602 111.191 74.3888 111.191C74.8173 111.191 75.2418 111.275 75.6378 111.439L81.1769 113.735L88.2343 96.6487C88.398 96.2526 88.638 95.8926 88.9407 95.5894C89.2434 95.2862 89.6029 95.0456 89.9985 94.8815C90.3942 94.7173 90.8183 94.6328 91.2467 94.6327C91.6751 94.6327 92.0993 94.717 92.4952 94.881L92.4963 94.8815L92.454 94.9932L92.4981 94.881C93.2971 95.2131 93.932 95.8489 94.2635 96.6488C94.5949 97.4487 94.5958 98.3473 94.266 99.1475L85.9629 119.237C85.7704 119.7 85.4738 120.113 85.0962 120.443C84.7186 120.773 84.2701 121.011 83.7855 121.139L83.7838 121.144Z" fill="white"/>
<path d="M256.871 203.815C257.251 203.2 257.698 202.629 258.205 202.113C258.414 201.896 258.634 201.692 258.861 201.493C260.243 200.262 261.927 199.422 263.74 199.059C265.554 198.695 267.431 198.822 269.18 199.426C270.928 200.03 272.484 201.089 273.688 202.494C274.892 203.899 275.701 205.6 276.03 207.422C277.556 201.773 273.584 196.209 269.59 191.935C265.594 187.662 261.027 182.975 261.05 177.12C261.061 173.863 262.653 170.957 265.057 168.802C265.131 168.737 265.205 168.671 265.281 168.608C268.186 166.116 271.924 164.812 275.747 164.957C282.851 165.338 289.053 170.117 293.361 175.786C300.294 184.907 303.333 197.711 298.479 208.094C294.209 217.226 285.104 222.649 275.81 227.008C274.513 227.617 273.218 228.208 271.925 228.78C271.917 228.782 271.907 228.788 271.899 228.79C271.837 228.818 271.774 228.845 271.716 228.873C271.449 228.991 271.182 229.109 270.918 229.225L271.04 229.306L271.423 229.553C271.29 229.473 271.159 229.395 271.027 229.315C270.987 229.29 270.945 229.267 270.906 229.243C266.342 226.502 261.714 223.602 258.561 219.322C255.291 214.878 253.976 208.513 256.871 203.815Z" fill="#5AD6F3"/>
<path d="M287.323 193.495C288.334 195.797 289.004 198.233 289.312 200.728C289.554 202.953 289.463 205.202 289.041 207.4C288.135 211.916 286.158 216.149 283.278 219.741C281.104 222.469 278.596 224.91 275.811 227.008C274.513 227.617 273.218 228.207 271.925 228.78C271.917 228.782 271.907 228.788 271.899 228.79C271.837 228.817 271.774 228.845 271.716 228.873C271.449 228.991 271.183 229.109 270.918 229.225L271.041 229.305L271.423 229.553C271.29 229.473 271.159 229.395 271.027 229.314C270.987 229.29 270.946 229.267 270.906 229.243C271.911 225.726 272.058 222.019 271.337 218.433C270.615 214.847 269.046 211.487 266.76 208.633C264.461 205.815 261.53 203.581 258.205 202.113C258.414 201.896 258.634 201.692 258.861 201.493C260.142 202.082 261.368 202.783 262.526 203.587C266.665 206.451 269.773 210.573 271.39 215.343C272.834 219.67 273.014 224.32 271.91 228.746C272.139 228.596 272.369 228.442 272.593 228.289C276.845 225.419 280.764 221.972 283.715 217.744C286.261 214.172 287.89 210.027 288.459 205.676C289.025 200.923 287.837 196.249 285.717 192.007C283.376 187.47 280.426 183.274 276.949 179.537C273.457 175.697 269.509 172.298 265.192 169.418C265.095 169.352 265.027 169.251 265.001 169.137C264.976 169.022 264.996 168.902 265.057 168.802C265.103 168.71 265.183 168.641 265.281 168.608C265.33 168.596 265.382 168.594 265.432 168.604C265.482 168.614 265.529 168.636 265.569 168.667C266.102 169.023 266.63 169.382 267.152 169.752C271.499 172.833 275.447 176.443 278.905 180.498C282.247 184.407 285.288 188.751 287.323 193.495Z" fill="white"/>
<path d="M194.266 14.5228C197.93 14.5228 200.901 11.5489 200.901 7.88053C200.901 4.21212 197.93 1.23828 194.266 1.23828C190.601 1.23828 187.63 4.21212 187.63 7.88053C187.63 11.5489 190.601 14.5228 194.266 14.5228Z" fill="white"/>
<path d="M276.776 103.411C279.01 103.411 280.821 101.598 280.821 99.3612C280.821 97.1246 279.01 95.3115 276.776 95.3115C274.541 95.3115 272.73 97.1246 272.73 99.3612C272.73 101.598 274.541 103.411 276.776 103.411Z" fill="white"/>
<path d="M158.376 114.522C160.61 114.522 162.421 112.709 162.421 110.473C162.421 108.236 160.61 106.423 158.376 106.423C156.141 106.423 154.33 108.236 154.33 110.473C154.33 112.709 156.141 114.522 158.376 114.522Z" fill="white"/>
<path d="M286.073 35.791C286.258 34.4755 285.955 33.1377 285.22 32.0311C284.486 30.9246 283.371 30.1261 282.088 29.7871C280.805 29.4481 279.442 29.592 278.258 30.1916C277.074 30.7913 276.15 31.8049 275.663 33.0405L264.223 46.1681L267.58 55.5521L279.084 40.2131C279.835 40.4538 280.629 40.5268 281.411 40.427C282.193 40.3272 282.944 40.0569 283.61 39.6353C284.276 39.2137 284.842 38.651 285.268 37.9868C285.693 37.3226 285.968 36.5731 286.073 35.791Z" fill="#FFB7B7"/>
<path d="M238.655 86.8697L276.628 46.3035L271.506 38.1523L223.878 78.4723L238.655 86.8697Z" fill="#3F3D56"/>
<path d="M230.18 62.2223C237.536 62.2223 243.5 56.2528 243.5 48.889C243.5 41.5252 237.536 35.5557 230.18 35.5557C222.823 35.5557 216.86 41.5252 216.86 48.889C216.86 56.2528 222.823 62.2223 230.18 62.2223Z" fill="#2F2E41"/>
<path d="M231.251 41.3572C234.117 38.4477 237.586 36.2025 241.412 34.7797C243.869 33.8688 246.542 33.306 249.11 33.8233C251.678 34.3406 254.107 36.1189 254.823 38.641C255.409 40.7034 254.804 42.9239 253.895 44.8653C252.986 46.8067 251.772 48.6069 251.037 50.6208C250.287 52.6756 250.061 54.8854 250.38 57.0497C250.7 59.2139 251.554 61.264 252.866 63.0139C254.178 64.7638 255.905 66.158 257.892 67.07C259.878 67.9821 262.061 68.383 264.242 68.2365C261.719 68.5751 259.393 69.762 256.927 70.3938C254.46 71.0256 251.549 70.9827 249.717 69.2141C247.777 67.3428 247.739 64.3003 247.832 61.6058C247.972 57.6002 248.111 53.5947 248.251 49.5891C248.322 47.5463 248.382 45.4381 247.646 43.5315C246.91 41.6249 245.161 39.9553 243.12 39.9727C241.572 39.9858 240.202 40.9243 238.961 41.8497C237.72 42.7752 236.407 43.7626 234.865 43.9002C233.324 44.0379 231.564 42.896 231.679 41.3512L231.251 41.3572Z" fill="#2F2E41"/>
<path d="M179.59 138.416C178.311 138.772 176.946 138.645 175.754 138.061C174.562 137.477 173.626 136.475 173.123 135.246C172.619 134.017 172.584 132.645 173.023 131.392C173.462 130.138 174.345 129.089 175.505 128.444L187.012 115.376L196.745 117.481L183.056 130.902C183.393 131.616 183.569 132.395 183.572 133.184C183.575 133.973 183.406 134.753 183.075 135.469C182.745 136.186 182.261 136.821 181.659 137.33C181.057 137.839 180.351 138.21 179.59 138.416Z" fill="#FFB7B7"/>
<path d="M217.448 91.6312L188.768 127.668L180.025 123.65L213.736 71.1152L217.448 91.6312Z" fill="#3F3D56"/>
<path d="M194.564 200.448L187.729 200.341L188.551 223.662H194.563L194.564 200.448Z" fill="#FFB7B7"/>
<path d="M196.097 221.697L184.256 221.696H184.256C182.254 221.696 180.335 222.492 178.92 223.909C177.505 225.325 176.71 227.246 176.71 229.249V229.495L196.096 229.496L196.097 221.697Z" fill="#2F2E41"/>
<path d="M239.821 194.264L232.354 199.062L247.291 217.049L252.35 213.798L239.821 194.264Z" fill="#FFB7B7"/>
<path d="M252.58 211.314L242.616 217.718L242.616 217.718C240.932 218.8 239.746 220.508 239.32 222.465C238.894 224.422 239.262 226.469 240.343 228.155L240.475 228.361L256.789 217.877L252.58 211.314Z" fill="#2F2E41"/>
<path d="M242.481 123.052C242.481 123.052 225.891 67.8935 220.559 67.1482C215.227 66.4028 206.636 81.3011 206.636 81.3011C195.498 95.5264 184.013 141.605 184.013 141.605C184.013 141.605 203.159 142.804 217.155 150.258C231.151 157.712 247.668 149.881 247.668 149.881L242.481 123.052Z" fill="#3F3D56"/>
<path opacity="0.1" d="M242.481 123.052C242.481 123.052 225.891 67.8933 220.559 67.1479C215.227 66.4025 208.818 81.4521 208.818 81.4521C203.268 104.415 184.013 141.605 184.013 141.605C184.013 141.605 203.159 142.804 217.155 150.258C231.151 157.712 247.668 149.881 247.668 149.881L242.481 123.052Z" fill="black"/>
<path d="M228.87 106.549V134.266L232.129 174.416L248.409 204.786L240.639 210.342L218.439 181.453L209.658 152.768L195.869 216.267L185.509 215.527L192.704 127.486L206.357 102.704L228.87 106.549Z" fill="#2F2E41"/>
<path d="M212.143 79.741C206.963 84.9262 211.773 90.4818 211.773 90.4818L205.853 103.815L229.163 110.111L237.309 73.675L231.759 67.7491C220.659 67.3787 220.653 67.1484 220.653 67.1484C218.708 69.0536 212.143 79.741 212.143 79.741Z" fill="#5AD6F3"/>
<path d="M238.247 69.9002C237.189 69.1179 235.985 68.5537 234.707 68.2402C233.429 67.9267 232.102 67.8702 230.802 68.0739C229.502 68.2776 228.255 68.7374 227.134 69.4269C226.012 70.1163 225.039 71.0215 224.27 72.0902C218.41 80.2577 212.991 93.4462 220.457 109.895C232.445 136.306 242.877 149.826 247.117 149.824C247.303 149.826 247.487 149.797 247.662 149.739C250.273 148.852 254.047 144.431 254.73 140.534C254.975 139.139 254.917 137.197 253.251 135.863C248.464 132.031 239.872 120.099 237.192 104.395C235.711 95.7171 238.583 87.8125 241.254 82.7096C242.382 80.5982 242.712 78.1505 242.183 75.8153C241.655 73.4801 240.303 71.4138 238.376 69.9951L238.247 69.9002Z" fill="#3F3D56"/>
<path d="M230.865 60.9119C235.617 58.3118 237.363 52.3483 234.766 47.592C232.168 42.8357 226.211 41.0877 221.459 43.6877C216.707 46.2878 214.961 52.2513 217.559 57.0076C220.156 61.7639 226.114 63.5119 230.865 60.9119Z" fill="#FFB7B7"/>
<path d="M212.373 51.558H226.531L226.676 49.5233L227.402 51.558H229.582L229.87 47.5253L231.309 51.558H235.527V51.3582C235.524 48.5507 234.408 45.859 232.425 43.8737C230.442 41.8884 227.753 40.7717 224.948 40.7686H222.952C220.147 40.7717 217.458 41.8884 215.475 43.8737C213.491 45.859 212.376 48.5507 212.373 51.3582V51.558Z" fill="#2F2E41"/>
<path d="M233.388 58.8724L239.43 56.9099V42.2227H228.018L228.3 42.505C232.231 46.435 236.603 60.378 233.388 58.8724Z" fill="#2F2E41"/>
</svg>
