<?xml version="1.0" encoding="utf-8"?>
<!-- Generator: Adobe Illustrator 27.3.1, SVG Export Plug-In . SVG Version: 6.00 Build 0)  -->
<svg version="1.1" xmlns="http://www.w3.org/2000/svg" xmlns:xlink="http://www.w3.org/1999/xlink" x="0px" y="0px"
	 viewBox="0 0 345.7 34.1" style="enable-background:new 0 0 345.7 34.1;" xml:space="preserve">
<style type="text/css">
	.st0{display:none;}
	.st1{display:inline;fill:#ED7DAE;}
	.st2{clip-path:url(#SVGID_00000074421982897288185140000006128616260623761583_);fill:none;}
	.st3{clip-path:url(#SVGID_00000033330112862474969950000002152793104052053903_);}
	.st4{fill:#FFFFFF;}
	.st5{fill:#B4E0ED;}
	.st6{opacity:0.12;}
	.st7{fill-rule:evenodd;clip-rule:evenodd;fill:#FFFFFF;}
	.st8{fill-rule:evenodd;clip-rule:evenodd;fill:#FFFFFF;fill-opacity:0.7;}
	.st9{clip-path:url(#SVGID_00000127746045975308299640000007128135637151512511_);fill:none;}
	.st10{clip-path:url(#SVGID_00000145740530188042521740000006504144166299567757_);}
</style>
<g id="圖層_2" class="st0">
	<rect class="st1" width="375" height="34.1"/>
</g>
<g id="圖層_1">
	<g>
		<g>
			<defs>
				<rect id="SVGID_1_" x="-501.1" y="153.9" width="375" height="110"/>
			</defs>
			<clipPath id="SVGID_00000007388219894619179950000011921042820154909096_">
				<use xlink:href="#SVGID_1_"  style="overflow:visible;"/>
			</clipPath>
			
				<rect x="-501.1" y="153.9" style="clip-path:url(#SVGID_00000007388219894619179950000011921042820154909096_);fill:none;" width="375" height="44"/>
		</g>
		<g>
			<defs>
				<rect id="SVGID_00000030448862102405281670000008639831558052188049_" x="-501.1" y="153.9" width="375" height="110"/>
			</defs>
			<clipPath id="SVGID_00000116937119740582233990000006836828314677487533_">
				<use xlink:href="#SVGID_00000030448862102405281670000008639831558052188049_"  style="overflow:visible;"/>
			</clipPath>
			<g style="clip-path:url(#SVGID_00000116937119740582233990000006836828314677487533_);">
				<rect x="-501.1" y="153.9" class="st4" width="375" height="44"/>
				<rect x="-501.1" y="73.9" class="st5" width="375" height="712"/>
				<g class="st6">
					<circle class="st4" cx="-497.1" cy="157.9" r="4"/>
					<circle class="st4" cx="-481.1" cy="157.9" r="4"/>
					<circle class="st4" cx="-465.1" cy="157.9" r="4"/>
					<circle class="st4" cx="-449.1" cy="157.9" r="4"/>
					<circle class="st4" cx="-433.1" cy="157.9" r="4"/>
					<circle class="st4" cx="-417.1" cy="157.9" r="4"/>
					<circle class="st4" cx="-401.1" cy="157.9" r="4"/>
					<circle class="st4" cx="-385.1" cy="157.9" r="4"/>
					<circle class="st4" cx="-369.1" cy="157.9" r="4"/>
					<circle class="st4" cx="-353.1" cy="157.9" r="4"/>
					<circle class="st4" cx="-337.1" cy="157.9" r="4"/>
					<circle class="st4" cx="-321.1" cy="157.9" r="4"/>
					<circle class="st4" cx="-305.1" cy="157.9" r="4"/>
					<circle class="st4" cx="-289.1" cy="157.9" r="4"/>
					<circle class="st4" cx="-273.1" cy="157.9" r="4"/>
					<circle class="st4" cx="-257.1" cy="157.9" r="4"/>
					<circle class="st4" cx="-241.1" cy="157.9" r="4"/>
					<circle class="st4" cx="-225.1" cy="157.9" r="4"/>
					<circle class="st4" cx="-209.1" cy="157.9" r="4"/>
					<circle class="st4" cx="-193.1" cy="157.9" r="4"/>
					<circle class="st4" cx="-177.1" cy="157.9" r="4"/>
					<circle class="st4" cx="-161.1" cy="157.9" r="4"/>
					<circle class="st4" cx="-145.1" cy="157.9" r="4"/>
					<circle class="st4" cx="-129.1" cy="157.9" r="4"/>
					<circle class="st4" cx="-497.1" cy="173.9" r="4"/>
					<circle class="st4" cx="-481.1" cy="173.9" r="4"/>
					<circle class="st4" cx="-465.1" cy="173.9" r="4"/>
					<circle class="st4" cx="-449.1" cy="173.9" r="4"/>
					<circle class="st4" cx="-433.1" cy="173.9" r="4"/>
					<circle class="st4" cx="-417.1" cy="173.9" r="4"/>
					<circle class="st4" cx="-401.1" cy="173.9" r="4"/>
					<circle class="st4" cx="-385.1" cy="173.9" r="4"/>
					<circle class="st4" cx="-369.1" cy="173.9" r="4"/>
					<circle class="st4" cx="-353.1" cy="173.9" r="4"/>
					<circle class="st4" cx="-337.1" cy="173.9" r="4"/>
					<circle class="st4" cx="-321.1" cy="173.9" r="4"/>
					<circle class="st4" cx="-305.1" cy="173.9" r="4"/>
					<circle class="st4" cx="-289.1" cy="173.9" r="4"/>
					<circle class="st4" cx="-273.1" cy="173.9" r="4"/>
					<circle class="st4" cx="-257.1" cy="173.9" r="4"/>
					<circle class="st4" cx="-241.1" cy="173.9" r="4"/>
					<circle class="st4" cx="-225.1" cy="173.9" r="4"/>
					<circle class="st4" cx="-209.1" cy="173.9" r="4"/>
					<circle class="st4" cx="-193.1" cy="173.9" r="4"/>
					<circle class="st4" cx="-177.1" cy="173.9" r="4"/>
					<circle class="st4" cx="-161.1" cy="173.9" r="4"/>
					<circle class="st4" cx="-145.1" cy="173.9" r="4"/>
					<circle class="st4" cx="-129.1" cy="173.9" r="4"/>
					<circle class="st4" cx="-497.1" cy="189.9" r="4"/>
					<circle class="st4" cx="-481.1" cy="189.9" r="4"/>
					<circle class="st4" cx="-465.1" cy="189.9" r="4"/>
					<circle class="st4" cx="-449.1" cy="189.9" r="4"/>
					<circle class="st4" cx="-433.1" cy="189.9" r="4"/>
					<circle class="st4" cx="-417.1" cy="189.9" r="4"/>
					<circle class="st4" cx="-401.1" cy="189.9" r="4"/>
					<circle class="st4" cx="-385.1" cy="189.9" r="4"/>
					<circle class="st4" cx="-369.1" cy="189.9" r="4"/>
					<circle class="st4" cx="-353.1" cy="189.9" r="4"/>
					<circle class="st4" cx="-337.1" cy="189.9" r="4"/>
					<circle class="st4" cx="-321.1" cy="189.9" r="4"/>
					<circle class="st4" cx="-305.1" cy="189.9" r="4"/>
					<circle class="st4" cx="-289.1" cy="189.9" r="4"/>
					<circle class="st4" cx="-273.1" cy="189.9" r="4"/>
					<circle class="st4" cx="-257.1" cy="189.9" r="4"/>
					<circle class="st4" cx="-241.1" cy="189.9" r="4"/>
					<circle class="st4" cx="-225.1" cy="189.9" r="4"/>
					<circle class="st4" cx="-209.1" cy="189.9" r="4"/>
					<circle class="st4" cx="-193.1" cy="189.9" r="4"/>
					<circle class="st4" cx="-177.1" cy="189.9" r="4"/>
					<circle class="st4" cx="-161.1" cy="189.9" r="4"/>
					<circle class="st4" cx="-145.1" cy="189.9" r="4"/>
					<circle class="st4" cx="-129.1" cy="189.9" r="4"/>
				</g>
				<path class="st7" d="M-502.1,210.5l20,4c20,4,60.1,12.1,100.2,8.1s80.2-20.1,120.2-25.5c40.1-5.4,80.2,0,120.2,6.7
					c40,6.7,80.2,14.8,100.2,18.8l20,4v40.3h-20c-20,0-60.1,0-100.2,0s-80.2,0-120.2,0s-80.2,0-120.2,0c-40.1,0-80.2,0-100.2,0h-20
					L-502.1,210.5L-502.1,210.5z"/>
				<path class="st8" d="M-126.1,207.5l-19.2,4c-19.2,4-57.8,12.1-96.2,8.1s-77-20.1-115.5-25.5c-38.5-5.4-77,0-115.5,6.7
					c-38.5,6.7-77,14.8-96.2,18.8l-19.2,4v40.3h19.2c19.2,0,57.8,0,96.2,0s77,0,115.5,0s77,0,115.5,0s77,0,96.2,0h19.2
					C-126.1,263.9-126.1,207.5-126.1,207.5z"/>
			</g>
		</g>
	</g>
	<g>
		<g>
			<defs>
				<rect id="SVGID_00000073713397120413201190000013135493244797917848_" y="-37.7" width="375" height="110"/>
			</defs>
			<clipPath id="SVGID_00000142892141709171673010000017039577117752611465_">
				<use xlink:href="#SVGID_00000073713397120413201190000013135493244797917848_"  style="overflow:visible;"/>
			</clipPath>
			
				<rect y="-37.7" style="clip-path:url(#SVGID_00000142892141709171673010000017039577117752611465_);fill:none;" width="375" height="44"/>
		</g>
		<g>
			<defs>
				<rect id="SVGID_00000136379065462441159760000008902855471142743955_" y="-37.7" width="375" height="110"/>
			</defs>
			<clipPath id="SVGID_00000070117617403994085460000008328952147884711095_">
				<use xlink:href="#SVGID_00000136379065462441159760000008902855471142743955_"  style="overflow:visible;"/>
			</clipPath>
			<g style="clip-path:url(#SVGID_00000070117617403994085460000008328952147884711095_);">
				<path class="st7" d="M-1,18.9l20,4c20,4,60.1,12.1,100.2,8.1s80.2-20.1,120.2-25.5c40.1-5.4,80.2,0,120.2,6.7S439.9,27,460,31
					l20,4v40.3h-20c-20,0-60.1,0-100.2,0s-80.2,0-120.2,0s-80.2,0-120.2,0c-40.1,0-80.2,0-100.2,0H-1V18.9z"/>
				<path class="st8" d="M375,15.9l-19.2,4c-19.2,4-57.8,12.1-96.2,8.1s-77-20.1-115.5-25.5s-77,0-115.5,6.7S-48.4,24-67.6,28
					l-19.2,4v40.3h19.2c19.2,0,57.8,0,96.2,0s77,0,115.5,0s77,0,115.5,0s77,0,96.2,0H375V15.9z"/>
			</g>
		</g>
	</g>
</g>
</svg>
