<svg width="200" height="266" viewBox="0 0 200 266" fill="none" xmlns="http://www.w3.org/2000/svg">
<rect x="0.5" y="0.5" width="199" height="265" fill="white"/>
<rect width="42" height="264" transform="translate(1 1)" fill="white"/>
<rect width="42" height="33" transform="translate(1 1)" fill="#5AD6F3"/>
<path d="M10.02 56H15.072V54.86H13.344V47.168H12.3C11.784 47.48 11.208 47.696 10.368 47.84V48.716H11.964V54.86H10.02V56ZM16.8638 56H21.9158V54.86H20.1878V47.168H19.1438C18.6278 47.48 18.0518 47.696 17.2118 47.84V48.716H18.8078V54.86H16.8638V56ZM22.8315 58.16H23.7915L27.1155 46.412H26.1675L22.8315 58.16ZM28.3833 56H33.4353V54.86H31.7073V47.168H30.6633C30.1473 47.48 29.5713 47.696 28.7313 47.84V48.716H30.3273V54.86H28.3833V56Z" fill="#5AD6F3"/>
<path d="M10.02 89H15.072V87.86H13.344V80.168H12.3C11.784 80.48 11.208 80.696 10.368 80.84V81.716H11.964V87.86H10.02V89ZM16.8638 89H21.9158V87.86H20.1878V80.168H19.1438C18.6278 80.48 18.0518 80.696 17.2118 80.84V81.716H18.8078V87.86H16.8638V89ZM22.8315 91.16H23.7915L27.1155 79.412H26.1675L22.8315 91.16ZM27.8793 89H33.5913V87.824H31.3833C30.9513 87.824 30.3873 87.872 29.9313 87.92C31.8033 86.12 33.1713 84.356 33.1713 82.664C33.1713 81.056 32.1273 80.012 30.5073 80.012C29.3553 80.012 28.5753 80.504 27.8073 81.332L28.5993 82.088C29.0673 81.548 29.6433 81.116 30.3393 81.116C31.3233 81.116 31.8273 81.776 31.8273 82.724C31.8273 84.176 30.4953 85.892 27.8793 88.196V89Z" fill="#5AD6F3"/>
<path d="M10.02 122H15.072V120.86H13.344V113.168H12.3C11.784 113.48 11.208 113.696 10.368 113.84V114.716H11.964V120.86H10.02V122ZM16.8638 122H21.9158V120.86H20.1878V113.168H19.1438C18.6278 113.48 18.0518 113.696 17.2118 113.84V114.716H18.8078V120.86H16.8638V122ZM22.8315 124.16H23.7915L27.1155 112.412H26.1675L22.8315 124.16ZM30.5673 122.168C32.1993 122.168 33.5313 121.232 33.5313 119.636C33.5313 118.436 32.7273 117.68 31.7073 117.416V117.356C32.6433 117.008 33.2313 116.3 33.2313 115.28C33.2313 113.828 32.1153 113.012 30.5313 113.012C29.5113 113.012 28.6953 113.444 27.9873 114.068L28.7193 114.944C29.2233 114.44 29.7993 114.116 30.4713 114.116C31.3233 114.116 31.8273 114.608 31.8273 115.388C31.8273 116.276 31.2513 116.924 29.5233 116.924V117.956C31.5033 117.956 32.1273 118.58 32.1273 119.564C32.1273 120.476 31.4433 121.028 30.4593 121.028C29.5353 121.028 28.8873 120.584 28.3713 120.056L27.6873 120.944C28.2873 121.616 29.1873 122.168 30.5673 122.168Z" fill="#5AD6F3"/>
<path d="M10.02 155H15.072V153.86H13.344V146.168H12.3C11.784 146.48 11.208 146.696 10.368 146.84V147.716H11.964V153.86H10.02V155ZM16.8638 155H21.9158V153.86H20.1878V146.168H19.1438C18.6278 146.48 18.0518 146.696 17.2118 146.84V147.716H18.8078V153.86H16.8638V155ZM22.8315 157.16H23.7915L27.1155 145.412H26.1675L22.8315 157.16ZM31.4193 155H32.7153V146.168H31.1073L27.6033 151.7V152.636H33.8433V151.556H28.9953L30.7233 148.904C30.9753 148.448 31.2153 147.98 31.4313 147.536H31.4913C31.4553 148.016 31.4193 148.772 31.4193 149.24V155Z" fill="#5AD6F3"/>
<path d="M10.02 188H15.072V186.86H13.344V179.168H12.3C11.784 179.48 11.208 179.696 10.368 179.84V180.716H11.964V186.86H10.02V188ZM16.8638 188H21.9158V186.86H20.1878V179.168H19.1438C18.6278 179.48 18.0518 179.696 17.2118 179.84V180.716H18.8078V186.86H16.8638V188ZM22.8315 190.16H23.7915L27.1155 178.412H26.1675L22.8315 190.16ZM30.5793 188.168C32.1153 188.168 33.5553 187.052 33.5553 185.108C33.5553 183.164 32.3433 182.3 30.8673 182.3C30.3873 182.3 30.0273 182.408 29.6553 182.6L29.8593 180.344H33.1353V179.168H28.6473L28.3833 183.368L29.0673 183.8C29.5833 183.464 29.9193 183.308 30.4713 183.308C31.4793 183.308 32.1513 183.98 32.1513 185.144C32.1513 186.32 31.4073 187.028 30.4113 187.028C29.4873 187.028 28.8393 186.584 28.3473 186.08L27.6753 186.98C28.3113 187.604 29.1873 188.168 30.5793 188.168Z" fill="#5AD6F3"/>
<path d="M10.02 221H15.072V219.86H13.344V212.168H12.3C11.784 212.48 11.208 212.696 10.368 212.84V213.716H11.964V219.86H10.02V221ZM16.8638 221H21.9158V219.86H20.1878V212.168H19.1438C18.6278 212.48 18.0518 212.696 17.2118 212.84V213.716H18.8078V219.86H16.8638V221ZM22.8315 223.16H23.7915L27.1155 211.412H26.1675L22.8315 223.16ZM31.0473 221.168C32.4753 221.168 33.6873 220.016 33.6873 218.264C33.6873 216.392 32.6793 215.492 31.1913 215.492C30.5313 215.492 29.7153 215.9 29.1993 216.596L29.2593 217.604C29.7873 216.8 30.4233 216.488 30.9513 216.488C31.8873 216.488 32.4033 217.124 32.4033 218.264C32.4033 219.404 31.8033 220.1 31.0353 220.1C29.9553 220.1 29.2833 219.032 29.2833 216.752C29.2833 214.052 30.2313 213.14 31.4073 213.14C31.9233 213.14 32.4633 213.416 32.7873 213.8L33.5433 212.96C33.0393 212.42 32.3193 212.012 31.3353 212.012C29.5833 212.012 27.9993 213.368 27.9993 216.752C27.9993 219.752 29.3673 221.168 31.0473 221.168Z" fill="#5AD6F3"/>
<path d="M10.02 254H15.072V252.86H13.344V245.168H12.3C11.784 245.48 11.208 245.696 10.368 245.84V246.716H11.964V252.86H10.02V254ZM16.8638 254H21.9158V252.86H20.1878V245.168H19.1438C18.6278 245.48 18.0518 245.696 17.2118 245.84V246.716H18.8078V252.86H16.8638V254ZM22.8315 256.16H23.7915L27.1155 244.412H26.1675L22.8315 256.16ZM29.6673 254H31.0833C31.2393 250.556 31.5633 248.6 33.6273 246.008V245.168H27.9513V246.344H32.1033C30.3873 248.72 29.8233 250.784 29.6673 254Z" fill="#5AD6F3"/>
<rect width="52" height="264" transform="translate(43 1)" fill="white"/>
<rect width="52" height="33" transform="translate(43 1)" fill="#5AD6F3"/>
<path d="M56.64 16.64V17.78H61.596V16.64H56.64ZM51.564 22.292V23.432H62.436V22.292H51.564ZM55.992 13.04V22.916H57.204V13.04H55.992ZM65.94 12.836C65.448 14.468 64.596 16.076 63.564 17.06C63.864 17.216 64.38 17.564 64.62 17.756C65.616 16.652 66.564 14.924 67.14 13.124L65.94 12.836ZM66.06 14.444L65.496 15.548H73.464V14.444H66.06ZM63.612 18.344V19.484H74.388V18.344H63.612ZM68.412 14.924V24.02H69.588V14.924H68.412ZM83.004 16.136C82.428 17.048 81.324 17.936 80.352 18.452C80.592 18.656 80.868 18.956 81.024 19.196C82.08 18.56 83.184 17.588 83.892 16.508L83.004 16.136ZM84.096 17.816C83.364 19.004 81.972 20.036 80.628 20.624C80.856 20.84 81.12 21.188 81.264 21.44C82.728 20.72 84.132 19.58 84.984 18.2L84.096 17.816ZM85.08 19.616C84.156 21.38 82.308 22.532 80.016 23.084C80.244 23.336 80.496 23.732 80.604 24.02C83.052 23.288 84.96 22.028 85.992 20.024L85.08 19.616ZM83.364 13.316L82.536 13.7C83.364 15.104 84.768 16.568 86.004 17.348C86.172 17.06 86.508 16.64 86.76 16.436C85.512 15.776 84.108 14.516 83.364 13.316ZM82.848 12.836C82.236 14.312 81.012 15.728 79.512 16.592C79.728 16.772 80.064 17.168 80.208 17.408C81.792 16.412 83.076 14.924 83.82 13.148L82.848 12.836ZM75.96 16.52V17.396H79.356V16.52H75.96ZM75.96 18.116V18.992H79.356V18.116H75.96ZM75.468 14.888V15.812H79.74V14.888H75.468ZM76.404 19.748V20.672H78.492V22.388H76.404V23.312H79.428V19.748H76.404ZM75.936 19.748V23.852H76.836V19.748H75.936ZM76.728 13.256C77.028 13.76 77.4 14.468 77.556 14.912L78.432 14.396C78.24 13.964 77.88 13.316 77.544 12.824L76.728 13.256Z" fill="white"/>
<rect width="52" height="264" transform="translate(95 1)" fill="white"/>
<rect width="52" height="33" transform="translate(95 1)" fill="#5AD6F3"/>
<path d="M103.636 13.76V14.9H114.364V13.76H103.636ZM108.148 14.72V23.996H109.36V14.72H108.148ZM108.796 17.6C110.212 18.344 112.06 19.472 112.948 20.228L113.776 19.196C112.828 18.452 110.944 17.384 109.564 16.712L108.796 17.6ZM117.94 12.836C117.448 14.468 116.596 16.076 115.564 17.06C115.864 17.216 116.38 17.564 116.62 17.756C117.616 16.652 118.564 14.924 119.14 13.124L117.94 12.836ZM118.06 14.444L117.496 15.548H125.464V14.444H118.06ZM115.612 18.344V19.484H126.388V18.344H115.612ZM120.412 14.924V24.02H121.588V14.924H120.412ZM135.004 16.136C134.428 17.048 133.324 17.936 132.352 18.452C132.592 18.656 132.868 18.956 133.024 19.196C134.08 18.56 135.184 17.588 135.892 16.508L135.004 16.136ZM136.096 17.816C135.364 19.004 133.972 20.036 132.628 20.624C132.856 20.84 133.12 21.188 133.264 21.44C134.728 20.72 136.132 19.58 136.984 18.2L136.096 17.816ZM137.08 19.616C136.156 21.38 134.308 22.532 132.016 23.084C132.244 23.336 132.496 23.732 132.604 24.02C135.052 23.288 136.96 22.028 137.992 20.024L137.08 19.616ZM135.364 13.316L134.536 13.7C135.364 15.104 136.768 16.568 138.004 17.348C138.172 17.06 138.508 16.64 138.76 16.436C137.512 15.776 136.108 14.516 135.364 13.316ZM134.848 12.836C134.236 14.312 133.012 15.728 131.512 16.592C131.728 16.772 132.064 17.168 132.208 17.408C133.792 16.412 135.076 14.924 135.82 13.148L134.848 12.836ZM127.96 16.52V17.396H131.356V16.52H127.96ZM127.96 18.116V18.992H131.356V18.116H127.96ZM127.468 14.888V15.812H131.74V14.888H127.468ZM128.404 19.748V20.672H130.492V22.388H128.404V23.312H131.428V19.748H128.404ZM127.936 19.748V23.852H128.836V19.748H127.936ZM128.728 13.256C129.028 13.76 129.4 14.468 129.556 14.912L130.432 14.396C130.24 13.964 129.88 13.316 129.544 12.824L128.728 13.256Z" fill="white"/>
<rect width="52" height="264" transform="translate(147 1)" fill="white"/>
<rect width="52" height="33" transform="translate(147 1)" fill="#5AD6F3"/>
<path d="M161.48 12.884C161.06 13.988 160.268 15.332 159.056 16.328C159.308 16.472 159.668 16.832 159.836 17.072C161.168 15.896 162.032 14.432 162.584 13.064L161.48 12.884ZM161.6 13.916L161.024 14.864H164.204V13.916H161.6ZM162.512 16.244C162.368 19.532 162.128 21.968 158.24 23.12C158.492 23.348 158.792 23.768 158.912 24.056C163.016 22.7 163.412 19.928 163.592 16.244H162.512ZM163.04 19.196V22.448C163.04 23.504 163.28 23.816 164.276 23.816C164.48 23.816 165.212 23.816 165.428 23.816C166.268 23.816 166.544 23.396 166.652 21.74C166.364 21.656 165.908 21.488 165.692 21.308C165.656 22.628 165.608 22.808 165.32 22.808C165.152 22.808 164.564 22.808 164.444 22.808C164.156 22.808 164.108 22.772 164.108 22.436V19.196H163.04ZM156.428 13.772V14.78H158.24V20.696H156.428V21.704H159.272V13.772H156.428ZM156.452 17.192V18.188H158.684V17.192H156.452ZM155.852 13.772V22.64H156.872V13.772H155.852ZM161.012 16.892H165.092V18.8H161.012V16.892ZM160.016 15.944V19.748H166.148V15.944H160.016ZM163.832 13.916V14.108C163.604 14.672 163.136 15.524 162.704 16.052C162.932 16.16 163.268 16.364 163.472 16.52C163.952 15.956 164.576 15.068 164.924 14.324L164.228 13.868L164.06 13.916H163.832ZM172.64 16.64V17.78H177.596V16.64H172.64ZM167.564 22.292V23.432H178.436V22.292H167.564ZM171.992 13.04V22.916H173.204V13.04H171.992ZM187.004 16.136C186.428 17.048 185.324 17.936 184.352 18.452C184.592 18.656 184.868 18.956 185.024 19.196C186.08 18.56 187.184 17.588 187.892 16.508L187.004 16.136ZM188.096 17.816C187.364 19.004 185.972 20.036 184.628 20.624C184.856 20.84 185.12 21.188 185.264 21.44C186.728 20.72 188.132 19.58 188.984 18.2L188.096 17.816ZM189.08 19.616C188.156 21.38 186.308 22.532 184.016 23.084C184.244 23.336 184.496 23.732 184.604 24.02C187.052 23.288 188.96 22.028 189.992 20.024L189.08 19.616ZM187.364 13.316L186.536 13.7C187.364 15.104 188.768 16.568 190.004 17.348C190.172 17.06 190.508 16.64 190.76 16.436C189.512 15.776 188.108 14.516 187.364 13.316ZM186.848 12.836C186.236 14.312 185.012 15.728 183.512 16.592C183.728 16.772 184.064 17.168 184.208 17.408C185.792 16.412 187.076 14.924 187.82 13.148L186.848 12.836ZM179.96 16.52V17.396H183.356V16.52H179.96ZM179.96 18.116V18.992H183.356V18.116H179.96ZM179.468 14.888V15.812H183.74V14.888H179.468ZM180.404 19.748V20.672H182.492V22.388H180.404V23.312H183.428V19.748H180.404ZM179.936 19.748V23.852H180.836V19.748H179.936ZM180.728 13.256C181.028 13.76 181.4 14.468 181.556 14.912L182.432 14.396C182.24 13.964 181.88 13.316 181.544 12.824L180.728 13.256Z" fill="white"/>
<rect x="0.5" y="0.5" width="199" height="265" stroke="#5AD6F3"/>
</svg>
