<svg width="160" height="160" viewBox="0 0 160 160" fill="none" xmlns="http://www.w3.org/2000/svg">
<g clip-path="url(#clip0_1091_120187)">
<path d="M80.0002 13.3333C43.2002 13.3333 13.3335 43.1999 13.3335 79.9999C13.3335 116.8 43.2002 146.667 80.0002 146.667C116.8 146.667 146.667 116.8 146.667 79.9999C146.667 43.1999 116.8 13.3333 80.0002 13.3333ZM61.9335 108.6L38.0002 84.6666C35.4002 82.0666 35.4002 77.8666 38.0002 75.2666C40.6002 72.6666 44.8002 72.6666 47.4002 75.2666L66.6668 94.4666L112.533 48.5999C115.133 45.9999 119.334 45.9999 121.934 48.5999C124.534 51.1999 124.534 55.3999 121.934 57.9999L71.3335 108.6C68.8002 111.2 64.5335 111.2 61.9335 108.6Z" fill="#67C23A"/>
</g>
<defs>
<clipPath id="clip0_1091_120187">
<rect width="160" height="160" fill="white"/>
</clipPath>
</defs>
</svg>
