<svg width="186" height="266" viewBox="0 0 186 266" fill="none" xmlns="http://www.w3.org/2000/svg">
<rect x="0.5" y="0.5" width="185" height="265" fill="white"/>
<rect width="28" height="264" transform="translate(1 1)" fill="white"/>
<rect width="28" height="33" transform="translate(1 1)" fill="#5AD6F3"/>
<path d="M9.492 50.708V51.944H20.532V50.708H9.492Z" fill="#5AD6F3"/>
<path d="M10.668 80.564V81.8H19.332V80.564H10.668ZM9.66 87.62V88.904H20.34V87.62H9.66Z" fill="#5AD6F3"/>
<path d="M10.452 113.036V114.188H19.56V113.036H10.452ZM11.244 116.936V118.076H18.612V116.936H11.244ZM9.768 121.052V122.204H20.208V121.052H9.768Z" fill="#5AD6F3"/>
<path d="M9.996 145.904V155.612H11.136V146.996H18.78V155.516H19.968V145.904H9.996ZM10.596 153.656V154.76H19.428V153.656H10.596ZM13.104 146.636C13.068 149.612 12.96 151.136 11.196 152.024C11.436 152.216 11.76 152.648 11.88 152.912C13.944 151.856 14.172 149.96 14.208 146.636H13.104ZM15.672 146.804V150.5C15.672 151.568 15.888 152.036 16.86 152.036C17.064 152.036 17.82 152.036 18.048 152.036C18.336 152.036 18.66 152.024 18.816 151.964C18.78 151.688 18.756 151.316 18.744 151.016C18.564 151.064 18.216 151.076 18.024 151.076C17.832 151.076 17.196 151.076 17.016 151.076C16.776 151.076 16.74 150.932 16.74 150.536V146.804H15.672Z" fill="#5AD6F3"/>
<path d="M10.392 179.012V180.128H19.548V179.012H10.392ZM9.66 187.268V188.396H20.376V187.268H9.66ZM13.824 179.408C13.5 182.132 12.888 185.768 12.396 187.952H13.644C14.1 185.828 14.7 182.204 15.096 179.408H13.824ZM11.052 182.504V183.608H17.604V182.504H11.052ZM17.184 182.504V182.636C17.112 183.86 16.908 186.248 16.692 187.964L17.88 188.06C18.096 186.332 18.312 184.124 18.396 182.528L17.508 182.456L17.304 182.504H17.184Z" fill="#5AD6F3"/>
<path d="M9.636 213.98V215.156H20.4V213.98H9.636ZM12.6 216.392C11.82 218.108 10.596 219.98 9.468 221.156C9.78 221.336 10.344 221.72 10.608 221.936C11.7 220.652 12.972 218.648 13.86 216.8L12.6 216.392ZM16.08 216.824C17.16 218.432 18.588 220.592 19.224 221.864L20.412 221.204C19.704 219.932 18.228 217.844 17.16 216.308L16.08 216.824ZM13.764 211.304C14.16 212.12 14.652 213.2 14.868 213.848L16.128 213.368C15.864 212.732 15.348 211.688 14.94 210.92L13.764 211.304Z" fill="#5AD6F3"/>
<path d="M10.992 244.652V254.876H12.156V245.792H17.868V254.84H19.08V244.652H10.992ZM11.784 248.756V249.872H18.372V248.756H11.784ZM11.772 252.956V254.096H18.384V252.956H11.772Z" fill="#5AD6F3"/>
<rect width="52" height="264" transform="translate(29 1)" fill="white"/>
<rect width="52" height="33" transform="translate(29 1)" fill="#5AD6F3"/>
<path d="M42.64 16.64V17.78H47.596V16.64H42.64ZM37.564 22.292V23.432H48.436V22.292H37.564ZM41.992 13.04V22.916H43.204V13.04H41.992ZM51.94 12.836C51.448 14.468 50.596 16.076 49.564 17.06C49.864 17.216 50.38 17.564 50.62 17.756C51.616 16.652 52.564 14.924 53.14 13.124L51.94 12.836ZM52.06 14.444L51.496 15.548H59.464V14.444H52.06ZM49.612 18.344V19.484H60.388V18.344H49.612ZM54.412 14.924V24.02H55.588V14.924H54.412ZM69.004 16.136C68.428 17.048 67.324 17.936 66.352 18.452C66.592 18.656 66.868 18.956 67.024 19.196C68.08 18.56 69.184 17.588 69.892 16.508L69.004 16.136ZM70.096 17.816C69.364 19.004 67.972 20.036 66.628 20.624C66.856 20.84 67.12 21.188 67.264 21.44C68.728 20.72 70.132 19.58 70.984 18.2L70.096 17.816ZM71.08 19.616C70.156 21.38 68.308 22.532 66.016 23.084C66.244 23.336 66.496 23.732 66.604 24.02C69.052 23.288 70.96 22.028 71.992 20.024L71.08 19.616ZM69.364 13.316L68.536 13.7C69.364 15.104 70.768 16.568 72.004 17.348C72.172 17.06 72.508 16.64 72.76 16.436C71.512 15.776 70.108 14.516 69.364 13.316ZM68.848 12.836C68.236 14.312 67.012 15.728 65.512 16.592C65.728 16.772 66.064 17.168 66.208 17.408C67.792 16.412 69.076 14.924 69.82 13.148L68.848 12.836ZM61.96 16.52V17.396H65.356V16.52H61.96ZM61.96 18.116V18.992H65.356V18.116H61.96ZM61.468 14.888V15.812H65.74V14.888H61.468ZM62.404 19.748V20.672H64.492V22.388H62.404V23.312H65.428V19.748H62.404ZM61.936 19.748V23.852H62.836V19.748H61.936ZM62.728 13.256C63.028 13.76 63.4 14.468 63.556 14.912L64.432 14.396C64.24 13.964 63.88 13.316 63.544 12.824L62.728 13.256Z" fill="white"/>
<rect width="52" height="264" transform="translate(81 1)" fill="white"/>
<rect width="52" height="33" transform="translate(81 1)" fill="#5AD6F3"/>
<path d="M89.636 13.76V14.9H100.364V13.76H89.636ZM94.148 14.72V23.996H95.36V14.72H94.148ZM94.796 17.6C96.212 18.344 98.06 19.472 98.948 20.228L99.776 19.196C98.828 18.452 96.944 17.384 95.564 16.712L94.796 17.6ZM103.94 12.836C103.448 14.468 102.596 16.076 101.564 17.06C101.864 17.216 102.38 17.564 102.62 17.756C103.616 16.652 104.564 14.924 105.14 13.124L103.94 12.836ZM104.06 14.444L103.496 15.548H111.464V14.444H104.06ZM101.612 18.344V19.484H112.388V18.344H101.612ZM106.412 14.924V24.02H107.588V14.924H106.412ZM121.004 16.136C120.428 17.048 119.324 17.936 118.352 18.452C118.592 18.656 118.868 18.956 119.024 19.196C120.08 18.56 121.184 17.588 121.892 16.508L121.004 16.136ZM122.096 17.816C121.364 19.004 119.972 20.036 118.628 20.624C118.856 20.84 119.12 21.188 119.264 21.44C120.728 20.72 122.132 19.58 122.984 18.2L122.096 17.816ZM123.08 19.616C122.156 21.38 120.308 22.532 118.016 23.084C118.244 23.336 118.496 23.732 118.604 24.02C121.052 23.288 122.96 22.028 123.992 20.024L123.08 19.616ZM121.364 13.316L120.536 13.7C121.364 15.104 122.768 16.568 124.004 17.348C124.172 17.06 124.508 16.64 124.76 16.436C123.512 15.776 122.108 14.516 121.364 13.316ZM120.848 12.836C120.236 14.312 119.012 15.728 117.512 16.592C117.728 16.772 118.064 17.168 118.208 17.408C119.792 16.412 121.076 14.924 121.82 13.148L120.848 12.836ZM113.96 16.52V17.396H117.356V16.52H113.96ZM113.96 18.116V18.992H117.356V18.116H113.96ZM113.468 14.888V15.812H117.74V14.888H113.468ZM114.404 19.748V20.672H116.492V22.388H114.404V23.312H117.428V19.748H114.404ZM113.936 19.748V23.852H114.836V19.748H113.936ZM114.728 13.256C115.028 13.76 115.4 14.468 115.556 14.912L116.432 14.396C116.24 13.964 115.88 13.316 115.544 12.824L114.728 13.256Z" fill="white"/>
<rect width="52" height="264" transform="translate(133 1)" fill="white"/>
<rect width="52" height="33" transform="translate(133 1)" fill="#5AD6F3"/>
<path d="M147.48 12.884C147.06 13.988 146.268 15.332 145.056 16.328C145.308 16.472 145.668 16.832 145.836 17.072C147.168 15.896 148.032 14.432 148.584 13.064L147.48 12.884ZM147.6 13.916L147.024 14.864H150.204V13.916H147.6ZM148.512 16.244C148.368 19.532 148.128 21.968 144.24 23.12C144.492 23.348 144.792 23.768 144.912 24.056C149.016 22.7 149.412 19.928 149.592 16.244H148.512ZM149.04 19.196V22.448C149.04 23.504 149.28 23.816 150.276 23.816C150.48 23.816 151.212 23.816 151.428 23.816C152.268 23.816 152.544 23.396 152.652 21.74C152.364 21.656 151.908 21.488 151.692 21.308C151.656 22.628 151.608 22.808 151.32 22.808C151.152 22.808 150.564 22.808 150.444 22.808C150.156 22.808 150.108 22.772 150.108 22.436V19.196H149.04ZM142.428 13.772V14.78H144.24V20.696H142.428V21.704H145.272V13.772H142.428ZM142.452 17.192V18.188H144.684V17.192H142.452ZM141.852 13.772V22.64H142.872V13.772H141.852ZM147.012 16.892H151.092V18.8H147.012V16.892ZM146.016 15.944V19.748H152.148V15.944H146.016ZM149.832 13.916V14.108C149.604 14.672 149.136 15.524 148.704 16.052C148.932 16.16 149.268 16.364 149.472 16.52C149.952 15.956 150.576 15.068 150.924 14.324L150.228 13.868L150.06 13.916H149.832ZM158.64 16.64V17.78H163.596V16.64H158.64ZM153.564 22.292V23.432H164.436V22.292H153.564ZM157.992 13.04V22.916H159.204V13.04H157.992ZM173.004 16.136C172.428 17.048 171.324 17.936 170.352 18.452C170.592 18.656 170.868 18.956 171.024 19.196C172.08 18.56 173.184 17.588 173.892 16.508L173.004 16.136ZM174.096 17.816C173.364 19.004 171.972 20.036 170.628 20.624C170.856 20.84 171.12 21.188 171.264 21.44C172.728 20.72 174.132 19.58 174.984 18.2L174.096 17.816ZM175.08 19.616C174.156 21.38 172.308 22.532 170.016 23.084C170.244 23.336 170.496 23.732 170.604 24.02C173.052 23.288 174.96 22.028 175.992 20.024L175.08 19.616ZM173.364 13.316L172.536 13.7C173.364 15.104 174.768 16.568 176.004 17.348C176.172 17.06 176.508 16.64 176.76 16.436C175.512 15.776 174.108 14.516 173.364 13.316ZM172.848 12.836C172.236 14.312 171.012 15.728 169.512 16.592C169.728 16.772 170.064 17.168 170.208 17.408C171.792 16.412 173.076 14.924 173.82 13.148L172.848 12.836ZM165.96 16.52V17.396H169.356V16.52H165.96ZM165.96 18.116V18.992H169.356V18.116H165.96ZM165.468 14.888V15.812H169.74V14.888H165.468ZM166.404 19.748V20.672H168.492V22.388H166.404V23.312H169.428V19.748H166.404ZM165.936 19.748V23.852H166.836V19.748H165.936ZM166.728 13.256C167.028 13.76 167.4 14.468 167.556 14.912L168.432 14.396C168.24 13.964 167.88 13.316 167.544 12.824L166.728 13.256Z" fill="white"/>
<rect x="0.5" y="0.5" width="185" height="265" stroke="#5AD6F3"/>
</svg>
